<svg width="36" height="36" viewBox="0 0 36 36" fill="none" xmlns="http://www.w3.org/2000/svg">
<path d="M34.875 18C34.875 10.6313 30.2062 4.38755 23.625 2.0813V33.9188C30.2062 31.6125 34.875 25.3688 34.875 18Z" fill="#ED4C5C"/>
<path d="M1.125 18C1.125 25.3688 5.85 31.6125 12.375 33.9188V2.0813C5.85 4.38755 1.125 10.6313 1.125 18Z" fill="#75A843"/>
<path d="M23.625 2.08125C21.8813 1.4625 19.9688 1.125 18 1.125C16.0312 1.125 14.1187 1.4625 12.375 2.08125V33.9187C14.1187 34.5375 16.0312 34.875 18 34.875C19.9688 34.875 21.8813 34.5375 23.625 33.9187V2.08125Z" fill="white"/>
<path d="M22.8941 17.8313C22.8379 17.6625 22.7816 17.8875 22.7816 17.9438C22.7816 17.775 22.7254 17.6625 22.6129 17.4938C22.4441 17.6625 22.3879 17.8875 22.3879 18.1125C22.3316 17.9438 22.2754 17.775 22.1066 17.7188C22.2191 17.8875 22.1629 18 22.1629 18.1688C22.1629 18.3938 22.3316 18.5625 22.3316 18.7875C22.3316 19.0125 22.2191 19.1813 22.0504 19.35V19.1813C21.4879 19.4063 21.6004 19.6875 21.6004 20.1938C21.6004 20.7 21.3191 20.5875 20.9816 20.8688C21.0379 20.7563 21.0379 20.5875 20.9816 20.475C20.9816 20.8125 20.5316 20.8125 20.4754 21.0938C20.4191 21.2063 20.4754 21.4313 20.3066 21.4875C20.1941 21.5438 20.0254 21.6563 20.0254 21.7688C19.9129 21.7125 19.8004 21.7125 19.6316 21.7125C19.6879 21.6563 19.7441 21.6563 19.8004 21.6C19.2379 21.3188 19.0691 21.9375 18.5629 21.9938C18.3941 21.9938 18.0004 21.7688 18.0004 21.9938C18.5066 21.9938 18.7316 22.4438 19.1254 22.4438C19.4629 22.4438 19.7441 22.1625 20.0816 22.1625C20.0254 22.1625 19.8566 22.05 19.6879 22.05C19.9691 21.8813 20.1379 21.5438 20.4754 21.5438C21.0379 21.5438 21.3191 21.4313 21.4879 20.8688C21.4316 20.8688 21.3754 20.8688 21.3191 20.925C21.3191 20.7 21.5441 20.4188 21.7691 20.3063C22.3316 20.1938 22.2754 19.7438 22.6129 19.35C22.5004 19.35 22.3879 19.4063 22.2754 19.5188C22.2754 19.1813 22.2191 18.8438 22.5004 18.6188C23.0629 18.3375 23.0066 18.225 22.8941 17.8313M13.1066 17.8313C12.9941 18.2813 12.9379 18.3938 13.3879 18.675C13.7254 18.9 13.6129 19.2375 13.6129 19.575C13.5004 19.4625 13.4441 19.4063 13.2754 19.4063C13.6129 19.7438 13.5566 20.25 14.1191 20.3625C14.2879 20.475 14.5691 20.7563 14.5691 20.9813C14.5129 20.9813 14.4566 20.925 14.4004 20.925C14.5691 21.4875 14.8504 21.6 15.4129 21.6C15.7504 21.6 15.9191 21.9375 16.2004 22.1063C16.0316 22.1063 15.8629 22.1625 15.8066 22.2188C16.1441 22.2188 16.4254 22.5563 16.7629 22.5C17.1566 22.5 17.4379 22.05 17.8879 22.05C17.8879 21.825 17.4941 22.05 17.3254 22.05C16.8754 21.9375 16.7066 21.375 16.0879 21.6C16.1441 21.6563 16.2004 21.7125 16.2566 21.7125C16.1441 21.7125 15.9754 21.6563 15.8629 21.7688C15.8066 21.6563 15.6941 21.5438 15.5816 21.4875C15.4691 21.375 15.4691 21.2063 15.4129 21.0938C15.3004 20.8125 14.9066 20.7563 14.9066 20.475C14.8504 20.5875 14.8504 20.7563 14.9066 20.8688C14.5691 20.5875 14.2879 20.7 14.2879 20.1938C14.2879 19.7438 14.4004 19.4063 13.8379 19.1813V19.35C13.6691 19.1813 13.5566 19.0688 13.5566 18.7875C13.5566 18.5625 13.7816 18.3938 13.7254 18.1688C13.7254 18 13.6691 17.8875 13.7816 17.7188C13.6129 17.775 13.5566 17.9438 13.5004 18.1125C13.5004 17.8875 13.4441 17.6625 13.2754 17.4938C13.2191 17.6063 13.1629 17.775 13.1066 17.9438C13.1629 17.8313 13.1066 17.6625 13.1066 17.8313" fill="#75A843"/>
<path d="M19.5184 21.2062C19.4059 21.2062 19.3496 21.0937 19.2934 21.0375C19.2934 20.925 19.7434 20.8125 19.7996 20.8125V20.7C19.0684 20.925 16.8746 21.0937 16.4246 20.3062C16.1996 20.6437 15.8059 20.4187 15.4121 20.1375C15.4684 20.25 15.6934 20.8125 15.6934 20.7562C15.8059 20.8125 16.5371 20.9812 16.5371 21.15L16.3684 21.3187C17.5496 21.7125 18.2809 21.825 19.5184 21.2062Z" fill="#428BC1"/>
<path d="M18.7875 21.2062C18.8438 21.15 18.8438 21.0937 18.8438 20.9812L18.7875 20.8125C18.9 20.7 18.7875 20.4187 18.6187 20.475C18.5062 20.5312 18.5625 20.5312 18.45 20.475C18.3937 20.475 18.3937 20.4187 18.3375 20.4187H17.325C17.2125 20.4187 17.2125 20.3625 17.1 20.3625C16.9875 20.3062 16.9313 20.4187 16.875 20.475C16.875 20.5875 16.9313 20.5875 16.9313 20.6437C16.9313 20.7 16.875 20.7562 16.875 20.8687C16.875 20.9812 16.9313 21.0375 16.9875 21.0937C16.7625 21.2625 16.9875 21.5437 17.2125 21.375C17.2688 21.4875 17.4375 21.4875 17.6062 21.4875H18.225C18.3375 21.4875 18.5625 21.5437 18.6187 21.375C18.7875 21.6562 19.0125 21.3187 18.7875 21.2062Z" fill="#ED4C5C"/>
<path d="M20.5871 19.7438C20.1371 19.1813 19.9121 20.025 19.4058 19.9688C19.5183 19.2938 18.5058 19.5188 18.2246 19.6875C18.2808 19.6313 18.3371 19.5188 18.3933 19.4063C18.1683 19.4063 17.8871 19.5188 17.7183 19.35C17.3808 19.125 16.9308 19.0125 16.6496 19.4063C16.4246 19.0688 15.8058 18.7313 15.4683 19.0688C15.4683 18.7313 15.1308 18.225 14.7371 18.2813C14.2871 18.3375 14.4558 18.9 14.6808 19.125C14.8496 19.2938 15.0746 19.35 15.2996 19.35C15.2996 19.4625 15.3558 19.5188 15.4121 19.575C15.6933 19.8 16.2558 19.8563 16.5371 19.6313C16.5371 20.1938 17.6621 20.1938 17.9433 19.9125C17.8308 20.1938 17.7183 20.7563 18.1121 20.7563C18.4496 20.7563 18.3371 20.4188 18.6183 20.3063C18.8433 20.1938 19.1246 20.1375 19.3496 20.25C19.7433 20.475 20.9808 20.4188 20.5871 19.7438" fill="#428BC1"/>
<path d="M15.975 18.3374C15.9188 18.2249 15.8063 18.1124 15.8063 18.1124C15.5813 18.1687 15.5813 17.9999 15.525 17.8312C15.4688 17.5499 15.075 17.4374 15.075 17.2124C15.075 16.9874 15.3 16.7624 15.1313 16.5374C14.9625 16.3124 14.6813 16.1999 14.6813 16.3124C14.625 16.4249 14.9063 16.4249 14.9063 16.7062C14.9063 17.0437 14.5688 17.3249 14.9625 17.6062C15.1875 17.9437 15.1875 18.5624 15.5813 18.5624C15.75 18.5624 15.9188 18.5062 15.975 18.3374" fill="#75A843"/>
<path d="M16.8189 18.0562C16.7064 17.8312 16.8189 17.4937 16.5939 17.325C16.3127 17.1 15.7502 17.55 15.6939 16.9875C15.6939 16.875 16.3127 16.2 16.4252 16.1437C16.5939 15.9187 16.5377 15.525 16.3689 15.4125C16.1439 15.3 16.0877 15.4125 15.9189 15.6375C15.9752 15.6937 16.2002 15.8062 16.2002 15.8625C16.0314 16.2562 15.5252 16.3125 15.4127 16.7063C15.3002 16.9875 15.3564 17.4375 15.6377 17.6062C15.8064 17.7187 15.9189 17.7187 16.0877 17.7187C16.5939 17.6625 16.3127 17.775 16.3689 17.8875C16.3689 18 16.5377 18.3937 16.8189 18.0562M15.1314 15.3C15.1314 15.6375 15.4689 15.5812 15.6939 15.525C15.6939 15.4125 15.6939 15.3 15.7502 15.1875C15.6377 15.2437 15.4689 15.2437 15.4127 15.1875C15.2439 15.075 15.8064 14.85 15.7502 14.85C15.7502 14.85 15.1877 15.1312 15.4127 14.7937C15.4689 14.6812 15.5814 14.5688 15.6377 14.4563C15.6939 14.3437 15.4689 14.4563 15.4689 14.4563C15.4127 14.4563 15.3564 14.4562 15.3002 14.5125C14.9627 14.7937 15.0752 14.9625 15.1314 15.3" fill="#75A843"/>
<path d="M21.0935 15.3C20.8122 14.9063 19.7435 13.6125 18.2247 13.5C18.056 13.5 17.606 13.6687 17.4372 13.725C16.931 14.0625 17.9997 14.3437 18.056 14.5687C18.056 14.6812 18.1122 14.7375 18.1122 14.85C17.9435 14.5687 17.7747 14.4 17.7185 14.2875C17.4372 14.4 16.9872 14.2312 16.931 13.95C16.8747 14.0625 16.8747 14.1187 16.7622 14.2312C16.7622 14.0625 16.706 14.0625 16.6497 13.95C16.6497 14.1187 16.6497 14.3438 16.481 14.4C16.5372 14.2875 16.481 14.175 16.4247 14.0625C16.4247 14.2313 16.4247 14.3438 16.3122 14.4563C16.3685 14.3438 16.256 14.2875 16.256 14.175C16.1997 14.625 15.581 14.7938 16.1997 14.9625C16.4247 15.0188 16.5372 14.9625 16.7622 15.075C16.8185 15.1312 16.931 15.2438 16.931 15.1875C16.931 15.2438 16.706 15.4688 16.8747 15.525C16.8185 15.5813 16.6497 15.9187 16.6497 15.9187C16.8185 15.9187 16.706 16.0313 16.5935 16.1438C16.4247 16.425 16.5935 16.7062 16.6497 17.0437C16.6497 16.9312 16.8185 17.1 16.8185 17.2688C16.8185 17.4938 17.0435 17.6063 17.0997 17.775C16.8185 17.4938 16.7622 17.775 17.0997 17.9437C16.8185 17.9437 16.7622 18.1125 17.0435 18.225C16.3685 18.225 16.931 18.5062 17.0435 18.5625C17.4935 18.675 17.831 18.3375 17.831 18.2812C17.831 18.2812 18.731 19.1812 18.7872 19.1812C18.8435 19.1812 19.2935 18.9563 19.406 19.0688C19.5185 19.2375 19.631 19.0687 19.7435 19.125C19.856 19.2375 20.306 19.125 20.4185 19.0688C20.4747 19.0688 21.0372 18.9563 20.9247 18.8438C20.6435 18.6187 20.306 18.3937 20.0247 18.1687C19.7435 17.9437 19.4622 17.775 19.2372 17.55C19.1247 17.4375 19.1247 17.2125 19.0685 17.0437C19.5747 17.55 20.081 17.8313 20.0247 16.875C20.3622 17.1562 21.0372 18.7312 21.0935 18.7312C21.2622 18.7312 21.0935 17.0438 21.0935 16.875C21.3185 17.1 21.3185 18.9563 21.3747 18.9563C21.656 19.0125 22.0497 16.5375 21.0935 15.3" fill="#89664C"/>
<path d="M17.0439 18.1688C16.9877 18.1688 16.7064 17.775 16.7064 17.7188C16.8752 18.3938 16.2002 18 16.3689 17.7188C16.1439 17.6625 15.5814 18 15.8064 18.3375C15.6939 18.5625 16.5939 18.3938 16.6502 18.2813C16.8752 18.7875 17.4377 18.225 17.0439 18.1688M19.6877 19.8563C19.9689 19.4625 18.7877 19.35 18.9002 18.9C18.7314 19.0125 18.5064 19.4063 18.2814 19.2938C18.1689 19.2375 17.7189 19.5188 17.9439 19.6875C17.9439 19.4625 18.0564 19.6313 18.2252 19.575C18.1689 19.7438 18.0002 19.9125 18.2814 20.025C18.1689 19.6875 18.6189 19.8563 18.5627 19.6875C18.4502 19.575 18.9564 19.575 19.0127 19.575C19.1814 19.575 19.7439 19.7438 19.5189 19.9125C19.5189 19.9125 19.6314 19.9125 19.6877 19.8563M15.9189 15.0188C15.8627 15.1313 15.6377 15.3 15.6377 15.4688C15.6377 15.5813 15.9189 15.8625 16.0314 15.6938C15.6939 15.4688 16.0877 15.3 16.2564 15.3C16.3127 15.3 16.3127 15.4125 16.3127 15.4125C16.3689 15.4688 16.8189 15.3 16.7627 15.1875C16.8189 14.9625 16.0877 14.9625 15.9189 15.0188Z" fill="#FFCE31"/>
</svg>
