<svg width="36" height="36" viewBox="0 0 36 36" fill="none" xmlns="http://www.w3.org/2000/svg">
<path d="M27 3.7125C24.3563 2.08125 21.3188 1.125 18 1.125V3.7125H27Z" fill="#ED4C5C"/>
<path d="M18 6.30002H30.15C29.1937 5.34377 28.125 4.44377 27 3.71252H18V6.30002Z" fill="white"/>
<path d="M18 8.88755H32.2312C31.6125 7.9313 30.9375 7.08755 30.2063 6.30005H18V8.88755Z" fill="#ED4C5C"/>
<path d="M18 11.475H33.5813C33.1875 10.575 32.7375 9.67495 32.2312 8.88745H18V11.475Z" fill="white"/>
<path d="M18 14.0625H34.425C34.2 13.1625 33.9188 12.3187 33.5813 11.475H18V14.0625Z" fill="#ED4C5C"/>
<path d="M18 16.7063H34.8188C34.7625 15.8063 34.5938 14.9625 34.425 14.1188H18V16.7063" fill="white"/>
<path d="M34.8188 16.7063H18V18H1.125C1.125 18.45 1.125 18.8438 1.18125 19.2938H34.8188C34.875 18.8438 34.875 18.45 34.875 18C34.875 17.55 34.875 17.1 34.8188 16.7063" fill="#ED4C5C"/>
<path d="M1.57539 21.8812H34.4254C34.6504 21.0375 34.7629 20.1937 34.8191 19.2937H1.18164C1.23789 20.1375 1.35039 21.0375 1.57539 21.8812Z" fill="white"/>
<path d="M2.41895 24.4687H33.5814C33.9189 23.625 34.2002 22.7812 34.4252 21.8812H1.5752C1.8002 22.7812 2.08145 23.625 2.41895 24.4687Z" fill="#ED4C5C"/>
<path d="M3.76895 27.0562H32.2314C32.7377 26.2125 33.1877 25.3688 33.5814 24.4688H2.41895C2.8127 25.3688 3.2627 26.2125 3.76895 27.0562" fill="white"/>
<path d="M5.79355 29.6438H30.2061C30.9373 28.8563 31.6686 27.9563 32.2311 27.0563H3.76855C4.33105 28.0125 5.0623 28.8563 5.79355 29.6438Z" fill="#ED4C5C"/>
<path d="M8.94394 32.2313H27.0564C28.2377 31.5 29.2502 30.6 30.2064 29.6438H5.79395C6.7502 30.6563 7.81894 31.5 8.94394 32.2313Z" fill="white"/>
<path d="M17.9996 34.875C21.3184 34.875 24.4121 33.9187 27.0559 32.2312H8.94336C11.5871 33.9187 14.6809 34.875 17.9996 34.875Z" fill="#ED4C5C"/>
<path d="M9 3.7125C7.81875 4.44375 6.75 5.34375 5.79375 6.3C5.00625 7.0875 4.33125 7.9875 3.76875 8.8875C3.2625 9.73125 2.75625 10.575 2.41875 11.475C2.08125 12.3187 1.8 13.1625 1.575 14.0625C1.35 14.9062 1.2375 15.75 1.18125 16.65C1.125 17.1 1.125 17.55 1.125 18H18V1.125C14.6812 1.125 11.6437 2.08125 9 3.7125Z" fill="#428BC1"/>
<path d="M14.0621 1.6875L14.3434 2.53125H15.1871L14.5121 3.09375L14.7371 3.9375L14.0621 3.43125L13.3871 3.9375L13.6121 3.09375L12.9371 2.53125H13.7809L14.0621 1.6875ZM16.3121 5.0625L16.5934 5.90625H17.4371L16.7621 6.46875L16.9871 7.3125L16.3121 6.80625L15.6371 7.3125L15.8621 6.46875L15.1871 5.90625H16.0309L16.3121 5.0625ZM11.8121 5.0625L12.0934 5.90625H12.9371L12.2621 6.46875L12.4871 7.3125L11.8121 6.80625L11.1371 7.3125L11.3621 6.46875L10.6871 5.90625H11.5309L11.8121 5.0625ZM14.0621 8.4375L14.3434 9.28125H15.1871L14.5121 9.84375L14.7371 10.6875L14.0621 10.1813L13.3871 10.6875L13.6121 9.84375L12.9371 9.28125H13.7809L14.0621 8.4375ZM9.56211 8.4375L9.84336 9.28125H10.6871L10.0121 9.84375L10.2371 10.6875L9.56211 10.1813L8.88711 10.6875L9.11211 9.84375L8.43711 9.28125H9.28086L9.56211 8.4375ZM5.06211 8.4375L5.34336 9.28125H6.18711L5.51211 9.84375L5.73711 10.6875L5.06211 10.1813L4.38711 10.6875L4.61211 9.84375L3.93711 9.28125H4.78086L5.06211 8.4375ZM16.3121 11.8125L16.5934 12.6562H17.4371L16.7621 13.2188L16.9871 14.0625L16.3121 13.5563L15.6371 14.0625L15.8621 13.2188L15.1871 12.6562H16.0309L16.3121 11.8125ZM11.8121 11.8125L12.0934 12.6562H12.9371L12.2621 13.2188L12.4871 14.0625L11.8121 13.5563L11.1371 14.0625L11.3621 13.2188L10.6871 12.6562H11.5309L11.8121 11.8125ZM7.31211 11.8125L7.59336 12.6562H8.43711L7.76211 13.2188L7.98711 14.0625L7.31211 13.5563L6.63711 14.0625L6.86211 13.2188L6.18711 12.6562H7.03086L7.31211 11.8125ZM14.0621 15.1875L14.3434 16.0312H15.1871L14.5121 16.5938L14.7371 17.4375L14.0621 16.9313L13.3871 17.4375L13.6121 16.5938L12.9371 16.0312H13.7809L14.0621 15.1875ZM9.56211 15.1875L9.84336 16.0312H10.6871L10.0121 16.5938L10.2371 17.4375L9.56211 16.9313L8.88711 17.4375L9.11211 16.5938L8.43711 16.0312H9.28086L9.56211 15.1875ZM5.06211 15.1875L5.34336 16.0312H6.18711L5.51211 16.5938L5.73711 17.4375L5.06211 16.9313L4.38711 17.4375L4.61211 16.5938L3.93711 16.0312H4.78086L5.06211 15.1875ZM6.63711 7.3125L7.31211 6.80625L7.98711 7.3125L7.70586 6.46875L8.38086 5.90625H7.53711L7.31211 5.0625L7.03086 5.90625H6.24336L6.91836 6.4125L6.63711 7.3125M2.13711 14.0625L2.81211 13.5563L3.48711 14.0625L3.20586 13.2188L3.88086 12.6562H3.09336L2.81211 11.8125L2.53086 12.6562H1.96836C1.96836 12.7125 1.91211 12.7687 1.91211 12.825L2.36211 13.1625L2.13711 14.0625" fill="white"/>
</svg>
