<svg width="86" height="101" viewBox="0 0 86 101" fill="none" xmlns="http://www.w3.org/2000/svg">
<path d="M56.8053 63.3059C57.2213 64.0396 57.6486 64.7658 58.2085 65.734C58.3597 65.2007 58.4618 64.9284 58.5223 64.622C59.0442 62.0176 59.5649 59.4143 60.0842 56.8124C60.4182 55.1303 60.7509 53.4482 61.0836 51.7663L61.1081 51.6416C61.9048 47.6134 62.7013 43.5863 63.5145 39.5629C63.674 38.689 63.692 37.7951 63.5675 36.9156C63.541 36.6962 63.4804 36.4806 63.4577 36.2613C63.2258 34.0652 62.9837 31.8667 62.7317 29.6656C62.6522 28.9319 62.5689 28.2019 62.4782 27.4683C62.2664 25.8572 62.0774 24.2499 61.8883 22.6387C61.8059 21.9425 61.7292 21.2545 61.6522 20.5633L61.6515 20.558C61.5915 20.0204 61.5313 19.481 61.4681 18.9343L61.4182 18.5066C61.4037 18.383 61.3889 18.259 61.3739 18.1344C61.2805 17.3587 61.1794 16.5849 61.0783 15.8115L61.0758 15.7925L60.9968 15.186L60.9331 14.6926C60.8834 14.3045 60.8346 13.9164 60.7877 13.5281C60.7176 12.9615 60.6554 12.3945 60.5932 11.828C60.4945 10.927 60.3958 10.0273 60.2658 9.1334C59.846 6.24778 59.237 3.4 58.5942 0.555947C58.5601 0.416054 58.5299 0.268532 58.4882 0.128579C58.4714 0.0951923 58.4467 0.0663227 58.4163 0.044411C58.386 0.0224384 58.3508 0.00815617 58.3138 0.00260197C58.2768 -0.00295223 58.239 0.000404702 58.2035 0.0124897C58.1831 0.0194477 58.1638 0.0291523 58.1461 0.0413593C58.1397 0.0457538 58.1335 0.0504535 58.1277 0.0554584C58.1215 0.0605854 58.1157 0.0660785 58.1101 0.0718769C58.0161 0.184609 57.9419 0.312477 57.8907 0.450051C57.7622 0.956826 57.6373 1.45988 57.5352 1.96287C57.485 2.21885 57.4342 2.47459 57.3833 2.73014C57.2948 3.17442 57.2055 3.61802 57.1163 4.06126C56.7747 5.75834 56.4344 7.44962 56.1396 9.14854C55.8183 10.9991 55.5599 12.8606 55.3016 14.7213L55.1639 15.7102L55.1613 15.7276V15.7309C54.8786 17.7701 54.5959 19.8092 54.3584 21.8521C54.2603 22.6783 54.184 23.5071 54.1079 24.3357C54.0725 24.7207 54.0371 25.1057 53.9995 25.4903C53.9494 26.0017 53.8956 26.5125 53.8327 27.022C53.7716 27.5066 53.7307 27.9911 53.6899 28.4749L53.6668 28.7471C53.6587 28.8426 53.6504 28.9381 53.6417 29.0335C53.6292 29.1712 53.6162 29.3088 53.602 29.4462C53.5813 29.6477 53.5592 29.849 53.5365 30.0503C53.5056 30.3238 53.4735 30.5971 53.4412 30.8705L53.4402 30.88C53.3714 31.4639 53.3026 32.048 53.2465 32.6344C53.2019 33.1105 53.1701 33.5883 53.1384 34.0663V34.0685C53.0893 34.8048 53.0402 35.5415 52.9439 36.2726L52.9322 36.3682L52.9212 36.461C52.9149 36.5165 52.9088 36.5719 52.903 36.6274C52.8947 36.7063 52.8871 36.7853 52.8797 36.8642C52.8746 36.9199 52.8696 36.9757 52.865 37.0315L52.8543 37.1598C52.8289 37.4763 52.8089 37.793 52.7889 38.1098C52.7765 38.3084 52.7639 38.507 52.75 38.7056C52.7398 38.8501 52.7291 38.9947 52.717 39.1393C52.6588 39.9063 52.594 40.6723 52.5291 41.4388C52.4635 42.2144 52.3978 42.9905 52.3388 43.7684C52.325 43.9508 52.3131 44.1336 52.3021 44.3164C52.2835 44.6273 52.268 44.9387 52.2525 45.2502C52.2093 46.1192 52.166 46.9888 52.0551 47.8492C51.9884 48.3601 51.9535 48.872 51.9185 49.3838C51.8783 49.9744 51.838 50.565 51.7489 51.1546C51.4959 52.5887 51.7415 54.066 52.4448 55.3412C52.5355 55.5025 52.6208 55.6667 52.7038 55.8323C52.74 55.9045 52.7756 55.9769 52.8111 56.0494C52.8435 56.1155 52.8757 56.1817 52.9078 56.248C53.0496 56.5401 53.1915 56.832 53.3486 57.1149C54.4958 59.1798 55.648 61.2435 56.8053 63.3059Z" fill="white"/>
<path d="M76.1794 7.91581L76.1598 7.89677C76.1554 7.89237 76.151 7.88798 76.1468 7.88352L76.1401 7.8762L76.1348 7.87028C75.9558 7.94517 75.9112 8.09574 75.8685 8.23997C75.8617 8.26328 75.8548 8.28642 75.8475 8.309L75.6139 9.42509C75.4583 10.168 75.3028 10.9109 75.144 11.6673C74.6939 13.9482 74.1118 16.201 73.4006 18.4143C72.3757 21.4701 71.2675 24.4654 70.1329 27.491C68.9492 30.6754 67.773 33.856 66.7708 37.1047C65.0006 43.0088 63.5875 49.014 62.5388 55.0878C62.0825 57.6789 61.6439 60.2729 61.2049 62.8699L61.198 62.91L61.0261 63.9262C60.6485 65.8469 60.4648 67.8006 60.4776 69.758C60.5415 71.7207 61.08 73.6386 62.0472 75.3477C62.361 75.9074 62.4708 75.9339 62.9851 75.5935C63.3753 75.3334 63.7669 75.0752 64.1585 74.8171C65.372 74.0171 66.5847 73.2178 67.7541 72.36C72.1272 69.2253 75.1726 64.5709 76.2938 59.3084C76.625 57.7932 76.87 56.2603 77.0274 54.7172C77.0904 54.1676 77.156 53.6183 77.2215 53.0691C77.3018 52.3966 77.3822 51.7242 77.4578 51.0509C77.5057 50.6244 77.5517 50.1977 77.5947 49.7704C77.7616 48.1504 77.903 46.5389 78.0461 44.9087L78.0472 44.8949L78.1129 44.1466C78.1766 43.3771 78.2492 42.6076 78.3219 41.8377C78.4605 40.3678 78.5993 38.8967 78.6764 37.4223C78.6897 37.1757 78.7033 36.9291 78.7172 36.6825L78.7381 36.3093V36.3066C78.831 34.6522 78.9239 32.9985 78.9487 31.3373C79.0376 26.7225 78.833 22.1068 78.336 17.518C77.9692 14.2731 77.141 11.1416 76.2559 8.0178C76.2457 7.97916 76.2126 7.94755 76.1794 7.91581Z" fill="white"/>
<path d="M31.1975 24.8432C31.0682 24.6068 30.9389 24.3702 30.8117 24.1326C30.6135 24.6766 30.5767 25.2663 30.7059 25.8307L30.913 27.1026C31.3248 29.6286 31.7365 32.155 32.1317 34.6842C32.6195 37.8194 33.1755 40.9396 33.8713 44.037C34.8509 48.3938 35.9362 52.7241 37.0936 57.0355C38.561 62.4386 40.0586 67.8543 41.5865 73.2827C43.0713 78.517 44.9542 83.6236 46.8383 88.7336L46.8398 88.7376L46.8585 88.7887C47.3397 90.1042 48.0415 91.3119 48.7448 92.5222L48.8731 92.743C48.9514 92.8778 49.0295 93.0129 49.1073 93.1482C49.1558 93.2329 49.2043 93.3177 49.2525 93.4026C49.3055 93.4934 49.3924 93.6068 49.5135 93.5312C49.5498 93.5042 49.5814 93.4721 49.6076 93.4361C49.6251 93.4121 49.6401 93.3864 49.6526 93.3594C49.6588 93.346 49.6643 93.3323 49.669 93.3183C49.6732 93.3063 49.6768 93.294 49.6799 93.2817L49.7068 93.1773C49.7307 93.0843 49.7548 92.9912 49.7791 92.898C49.9035 92.4193 50.0284 91.9383 50.1298 91.4549C50.5532 89.3488 51.2686 87.3121 52.2553 85.4038C53.7725 82.5151 55.9162 80.0018 58.5296 78.048C58.7701 77.8769 58.9987 77.6899 59.2141 77.4883C59.4713 77.2725 59.6569 76.9839 59.7468 76.6605C59.8365 76.3371 59.8263 75.9941 59.7171 75.6767C59.6037 75.325 59.5091 74.9695 59.3768 74.6253C56.6168 67.2104 53.0746 60.1107 48.81 53.4464C47.3945 51.2574 45.9652 49.0788 44.536 46.9003C43.9272 45.9725 43.3186 45.0447 42.7109 44.1161C42.1572 43.2699 41.6043 42.423 41.0532 41.5749C39.3287 38.9125 37.6079 36.2386 35.9249 33.5459C34.6339 31.4813 33.5227 29.3171 32.4113 27.1527C32.2238 26.7875 32.0363 26.4223 31.848 26.0576C31.6381 25.6499 31.4179 25.2467 31.1975 24.8432Z" fill="white"/>
<path d="M2.70834 82.783C3.44442 82.5898 4.19845 82.4732 4.95858 82.435C5.8348 82.381 6.71102 82.3174 7.58761 82.2538L7.59347 82.2535C8.5538 82.1838 9.51461 82.1141 10.4764 82.0569C11.6195 81.9856 12.7667 82.0224 13.9028 82.1665C14.086 82.1893 14.2705 82.2007 14.455 82.2005C17.11 82.2992 19.7505 82.6385 22.3442 83.2141C23.2856 83.3999 24.2237 83.601 25.1616 83.802C26.4578 84.0798 27.7536 84.3575 29.0571 84.5945C30.4337 84.8442 31.8217 85.0143 33.2173 85.1581C35.2754 85.3432 37.3433 85.3963 39.4083 85.3169C39.6611 85.3036 39.9148 85.3175 40.1646 85.3585C40.5095 85.4267 40.8333 85.5758 41.1095 85.7934C41.3855 86.011 41.6062 86.2909 41.753 86.6103C42.5095 88.055 43.3302 89.4505 44.2152 90.8158C45.5948 93.0036 47.2342 95.0163 49.0976 96.8102C49.1878 96.8944 49.279 96.9776 49.3709 97.06C49.5016 97.1772 49.6336 97.2928 49.7663 97.408C49.8368 97.4692 49.9074 97.5302 49.9782 97.5912L50.0302 97.636C50.1612 97.7491 50.2924 97.8623 50.4229 97.9763L50.5121 98.0545L50.5201 98.0618C50.5847 98.1194 50.6545 98.1816 50.6903 98.2619C50.7121 98.3111 50.7213 98.367 50.7087 98.4327C50.6759 98.6042 50.5162 98.6208 50.3759 98.6352L50.3608 98.6369C48.848 98.8146 47.3579 98.9961 45.8565 99.1512C43.6112 99.3351 41.357 99.3869 39.1057 99.3063C36.4515 99.236 33.8105 98.9067 31.2203 98.323C25.3208 97.0402 19.7657 94.5045 14.9316 90.8877C12.6843 89.2361 10.3259 87.7528 7.96749 86.2694L7.54159 86.0014C6.23312 85.1719 4.92831 84.3361 3.62728 83.494C3.51498 83.4093 3.40463 83.3225 3.2828 83.2266C3.2225 83.1791 3.15939 83.1294 3.09176 83.0767C2.97897 82.9886 2.85372 82.8921 2.70834 82.783Z" fill="white"/>
<path d="M76.3222 66.977C76.2931 66.8872 76.262 66.7981 76.2292 66.7097L76.1583 66.8277C75.9884 67.1105 75.893 67.2691 75.8094 67.4397C75.0822 68.5967 74.2533 69.6864 73.3322 70.6959C71.629 72.4996 69.7257 74.1034 67.6594 75.4763C66.1679 76.4966 64.6632 77.4949 63.1587 78.4929L63.0715 78.5508C62.6366 78.8393 62.2016 79.1278 61.7671 79.417C59.9577 80.6374 58.3272 82.1037 56.9225 83.7738C55.7483 85.1533 54.7744 86.6913 54.0293 88.3424C53.0238 90.5637 52.3521 92.9214 52.0362 95.339C51.8585 96.6362 52.248 97.5591 53.322 98.2587C54.6239 99.1133 56.065 99.734 57.5805 100.093C59.3423 100.538 61.1897 100.514 62.9395 100.025C65.3408 99.3398 67.434 97.8512 68.8696 95.808C69.7431 94.5246 70.4796 93.1531 71.0669 91.7159C72.7708 87.8692 74.2645 83.9327 75.541 79.9238C76.1418 78.0623 76.5225 76.1368 76.6755 74.1866C76.854 71.939 76.7804 69.6784 76.4561 67.4472C76.4172 67.2889 76.3725 67.1321 76.3222 66.977Z" fill="white"/>
<path d="M4.89816 38.1258L4.915 38.1335C4.81515 38.6138 4.99813 39.0326 5.17916 39.4465C5.23031 39.5635 5.28121 39.68 5.32553 39.7975C7.01693 44.1346 9.17257 48.2759 11.7548 52.1493C14.8917 56.8864 18.3742 61.3853 22.1742 65.6092C24.4486 68.1873 26.7767 70.719 29.1036 73.2495L29.1065 73.2528C29.6766 73.8728 30.2467 74.4927 30.8159 75.1132C31.8465 76.2401 32.894 77.3517 33.9417 78.4635L33.9615 78.4844L33.9637 78.4868C34.5542 79.1135 35.1447 79.7403 35.7324 80.3701C35.9593 80.6273 36.1711 80.8844 36.398 81.1265C36.594 81.3372 36.7879 81.5499 36.9819 81.7627C37.1659 81.9645 37.3498 82.1663 37.5355 82.3664C37.8076 82.6596 38.0833 82.949 38.3684 83.2293C38.8546 83.6993 39.4496 84.0417 40.1002 84.2257C40.7509 84.4099 41.437 84.43 42.0974 84.2844C42.0716 84.1825 42.047 84.0824 42.0225 83.9834L42.0075 83.9226C41.9402 83.6502 41.8739 83.3868 41.7949 83.1234C39.9795 77.0924 38.1604 71.0514 36.3375 65.0003C36.197 64.4623 35.9299 63.9656 35.5584 63.5518C35.343 63.3244 35.1303 63.0944 34.9182 62.8639L34.7658 62.6983C34.2281 62.1134 33.6906 61.5288 33.1191 60.9801C31.8143 59.7282 30.4754 58.5105 29.1253 57.3078C25.8039 54.3734 22.2819 51.6741 18.585 49.2296C16.5277 47.8681 14.4779 46.4877 12.4508 45.0694C10.003 43.3428 7.76425 41.3375 5.77938 39.094C5.68417 38.9876 5.60348 38.868 5.52279 38.7483C5.35995 38.5067 5.19723 38.2652 4.915 38.1335L4.92086 38.1069L4.89816 38.1258Z" fill="white"/>
<path d="M0.707972 56.2497C0.528041 56.0575 0.343226 55.8599 0.0320691 55.8594C-0.0314074 56.1399 -0.000157431 56.4339 0.121425 56.6951C2.47628 64.8891 7.30709 72.1544 13.952 77.4958C14.6905 78.1069 15.5625 78.5357 16.4973 78.7477C20.0145 79.5721 23.5317 80.423 27.03 81.3345C28.5522 81.73 30.0584 82.1846 31.5644 82.6391C32.2473 82.8453 32.9301 83.0514 33.6143 83.2519C33.7433 83.2897 33.8722 83.3299 34.0011 83.3695C34.0997 83.3999 34.1982 83.4299 34.2968 83.4584C34.353 83.4746 34.4091 83.4903 34.4653 83.5053C34.5319 83.5367 34.608 83.5417 34.6782 83.5193C34.7484 83.4968 34.8075 83.4486 34.8435 83.3843C34.9288 83.2323 34.8432 83.102 34.765 82.983L34.7602 82.9759C34.7462 82.9558 34.7317 82.9361 34.7168 82.9168C34.705 82.9015 34.693 82.8865 34.6806 82.8716C34.6729 82.8623 34.6651 82.8531 34.6572 82.8439C34.6217 82.8029 34.5841 82.7636 34.5446 82.7262C33.758 81.8917 32.9702 81.0622 32.181 80.2377C29.8513 77.8135 27.5329 75.3817 25.2902 72.8781C24.6738 72.1935 24.0195 71.5393 23.3388 70.9153C22.1797 69.821 20.7944 68.9947 19.2807 68.4948C14.4702 66.8884 10.0217 64.3532 6.18771 61.033C5.16928 60.1749 4.16696 59.2945 3.16513 58.4145L3.14498 58.3967L3.14242 58.3945C2.40329 57.7453 1.66452 57.0964 0.919398 56.4569C0.845179 56.3962 0.776942 56.3233 0.707972 56.2497Z" fill="white"/>
<path d="M50.1112 39.1695C50.097 40.9784 49.9707 42.7845 49.733 44.5777C49.7249 44.6557 49.7191 44.7336 49.7144 44.8116C49.7082 44.9151 49.7042 45.0187 49.7002 45.1223C49.6956 45.2358 49.6911 45.3492 49.6838 45.4627C49.593 46.862 49.5009 48.2613 49.4077 49.6606C49.4077 49.6827 49.4056 49.7048 49.4017 49.7264C49.3966 49.7555 49.3879 49.784 49.3759 49.8113C49.3551 49.8587 49.3247 49.9015 49.2867 49.9367C49.1311 50.044 49.0418 49.9108 48.9698 49.8034L48.95 49.7741C48.8789 49.6725 48.8076 49.571 48.7362 49.4695C48.6486 49.3451 48.5609 49.2207 48.4731 49.0963L48.4713 49.0937C47.992 48.4146 47.5128 47.7355 47.0592 47.0436C45.984 45.4244 44.9131 43.8052 43.8421 42.186C42.4116 40.0232 40.981 37.8605 39.5406 35.6977C38.6096 34.3542 38.1241 32.7521 38.1527 31.1178C38.1651 30.3736 38.1588 29.6284 38.1524 28.8831C38.1416 27.5945 38.1307 26.3056 38.2169 25.0213C38.2661 24.2754 38.2907 23.5336 38.3153 22.7936V22.7843C38.3527 21.6514 38.3901 20.5228 38.5157 19.39C38.5687 18.9121 38.6169 18.4332 38.6651 17.954C38.7719 16.8932 38.8787 15.831 39.0377 14.776C39.4112 11.995 40.0754 9.26084 41.0194 6.61839C41.0279 6.58366 41.0395 6.54972 41.0538 6.51707C41.0579 6.50742 41.0625 6.49796 41.0671 6.48856C41.071 6.48081 41.0752 6.47312 41.0794 6.46549C41.0879 6.45054 41.0968 6.43595 41.1063 6.42173C41.1159 6.41203 41.1263 6.4033 41.1374 6.39555C41.1452 6.39011 41.1534 6.38517 41.162 6.38078C41.1704 6.37644 41.179 6.37266 41.188 6.36942C41.1964 6.36637 41.2049 6.36387 41.2136 6.36192C41.2234 6.35966 41.2335 6.35807 41.2436 6.35722C41.257 6.356 41.2706 6.35606 41.2841 6.3574C41.2956 6.3624 41.3066 6.36845 41.317 6.3754C41.3344 6.38712 41.3501 6.40153 41.3632 6.41813C41.3844 6.44444 41.3988 6.47556 41.4051 6.50871C41.4974 7.65098 41.6527 8.78727 41.8703 9.91245C42.2157 11.7987 42.6588 13.6657 43.1977 15.506C43.9957 18.3047 44.9929 21.0332 45.9901 23.7615C46.2595 24.4986 46.5289 25.2358 46.7944 25.9743C46.9 26.2688 47.0058 26.563 47.1117 26.857C47.9571 29.2059 48.7985 31.5439 49.4607 33.9505C49.9442 35.6465 50.1635 37.4068 50.1112 39.1695Z" fill="white"/>
<path d="M34.3292 58.4122C33.9975 58.3265 33.7011 58.1385 33.482 57.8752L33.1126 57.5404L33.1075 57.5357C32.3022 56.8061 31.498 56.0774 30.7024 55.3374C29.4074 54.1282 28.0162 53.0265 26.5422 52.0434C24.563 50.725 23.0171 48.8515 22.0984 46.6579C21.5536 45.327 21.0901 43.9643 20.7104 42.5772C19.6529 38.8903 18.3903 35.2653 16.9284 31.7192C16.1665 29.88 15.3003 28.0857 14.3341 26.3451C14.1878 26.0929 14.0479 25.832 13.9143 25.5622C13.9052 25.5447 13.8956 25.5267 13.8857 25.5085C13.8089 25.3663 13.7235 25.208 13.8878 25.0706C13.9642 25.0187 14.0545 24.991 14.1468 24.991C14.2392 24.991 14.3296 25.0187 14.406 25.0706C15.169 25.4449 15.8958 25.8893 16.5767 26.398C17.887 27.4236 19.1045 28.5626 20.2149 29.8018C22.5223 32.2948 24.583 35.0052 26.3682 37.8951C27.9151 40.3204 29.2961 42.8474 30.5019 45.459C32.0857 48.8337 33.2894 52.3738 34.0909 56.0144C34.1914 56.4934 34.2652 56.9784 34.3387 57.4615L34.3391 57.4642L34.367 57.6482C34.4312 57.9009 34.4181 58.1671 34.3292 58.4122Z" fill="white"/>
<path d="M83.9835 41.0409C84.6541 39.6689 85.3248 38.297 86 36.9256L86 61.7351C85.1222 63.8483 84.1525 65.9233 83.0933 67.954C82.106 69.8122 81.0139 71.6128 79.822 73.347C79.7408 73.4712 79.6484 73.5877 79.5459 73.6949C79.5178 73.7135 79.4857 73.7253 79.4521 73.7292C79.4187 73.7332 79.3847 73.7292 79.353 73.7176C79.3216 73.7032 79.294 73.6817 79.2723 73.6548C79.2507 73.6279 79.2356 73.5964 79.2282 73.5626L79.2191 73.3255L79.2031 72.9334C79.1734 72.2204 79.1438 71.5073 79.1525 70.7942C79.1162 68.6925 78.9431 66.5954 78.6345 64.5162C78.5759 64.0418 78.5455 63.5645 78.5437 63.0866C78.5498 62.1637 78.6319 61.2428 78.7895 60.3334C78.9331 59.1698 79.113 58.0097 79.2931 56.8496L79.4444 55.8681L79.4726 55.6828L79.5157 55.3962L79.5459 55.1937C79.5793 54.8999 79.592 54.6042 79.5837 54.3087C79.5837 52.0395 80.1623 49.8574 80.9301 47.7319C81.4022 46.4508 81.9425 45.196 82.5487 43.9727C83.013 43.0262 83.4757 42.0798 83.9383 41.1334L83.9835 41.0409Z" fill="white"/>
<path d="M86 67.7446C85.4834 68.738 84.9327 69.7135 84.349 70.6693C84.3245 70.7079 84.2934 70.7469 84.2613 70.787C84.1395 70.9392 84.0044 71.1082 84.175 71.3388C84.5651 71.1791 85.2281 70.865 86 70.4823V67.7446Z" fill="white"/>
<path d="M86 94.777C84.1517 95.549 82.2725 96.2463 80.3668 96.867C79.9045 97.0008 79.4719 97.2215 79.0924 97.5175C79.0485 97.5545 79.0048 97.5918 78.9613 97.6291C78.8824 97.6968 78.8039 97.7648 78.7258 97.8332C78.6408 97.9078 78.5562 97.9827 78.4719 98.058C78.2572 98.2496 78.0442 98.4433 77.8311 98.6372L77.8245 98.6432L77.796 98.6692C77.6773 98.7771 77.5587 98.8849 77.4397 98.9925C77.3628 99.0445 77.3057 99.1211 77.2783 99.2098C77.2508 99.2985 77.2544 99.394 77.2883 99.4803C77.3062 99.5254 77.3309 99.5671 77.3614 99.604C77.3897 99.6383 77.4231 99.6686 77.4605 99.6936C77.5382 99.7456 77.6298 99.7727 77.7232 99.7715H79.4516C79.9027 99.7381 80.3571 99.7033 80.8145 99.6683L80.8211 99.6679L80.8244 99.6676C82.381 99.5485 83.9706 99.4267 85.567 99.3479C85.7114 99.3398 85.8557 99.331 86 99.3214V94.777Z" fill="white"/>
<path d="M86 73.3115C84.214 74.3941 82.4804 75.562 80.8054 76.8113C79.2055 78.014 77.9613 79.5191 77.6928 81.5954C77.5416 82.6162 77.258 83.6129 76.8494 84.5605C76.2782 85.9687 75.6945 87.3731 75.1114 88.7762L75.1048 88.7918C74.5282 90.1794 73.9521 91.5655 73.389 92.9526C73.2528 93.2589 73.128 93.5653 73.0107 93.8754C72.9853 93.9205 72.9683 93.9696 72.9607 94.0205C72.9574 94.0418 72.9557 94.0635 72.9557 94.0853C72.9557 94.1589 72.9747 94.2311 73.0107 94.2952C73.1125 94.4375 73.2475 94.3885 73.3698 94.3441L73.3923 94.336L73.4117 94.3292C73.49 94.3014 73.5683 94.274 73.6468 94.2465C73.8326 94.1814 74.0185 94.1162 74.2033 94.0473C74.3552 93.9907 74.5063 93.9316 74.6558 93.8678C77.5113 92.6652 80.3402 91.4096 83.0859 89.9611C84.0669 89.4449 85.0383 88.9117 86 88.3615V73.3115Z" fill="white"/>
</svg>
