<svg width="243" height="200" viewBox="0 0 243 200" fill="none" xmlns="http://www.w3.org/2000/svg">
<path d="M0.102867 110.925L0.0366829 110.953L0.11943 110.908C-0.134287 111.268 0.0808076 111.621 0.174572 111.953C1.84864 117.958 4.16386 123.765 7.08009 129.273C10.8176 136.221 15.5361 142.593 21.0897 148.191C23.4226 150.525 25.8728 152.739 28.4309 154.823C29.547 155.772 30.8692 156.445 32.2918 156.79L39.964 158.62C46.1139 160.09 52.2803 161.499 58.3474 163.273C61.8222 164.284 65.2805 165.357 68.7388 166.412C69.0256 166.501 69.2903 166.661 69.5275 166.34C69.7647 166.02 69.5551 165.727 69.34 165.473C68.6064 164.605 67.7846 163.815 67.0069 162.986C63.8023 159.559 60.5371 156.193 57.3049 152.789C55.7661 151.17 54.2383 149.539 52.7381 147.881C50.789 145.593 48.7196 143.411 46.5386 141.343C44.2594 139.263 41.5893 137.659 38.6844 136.624C37.3386 136.159 35.9817 135.717 34.658 135.203C26.545 131.975 19.0283 127.41 12.4192 121.696C8.24942 118.176 4.21198 114.512 0.102867 110.925Z" fill="#0C0D0D"/>
<path d="M98.6605 186.661C98.9693 185.467 99.3499 184.29 99.5815 183.086C100.364 178.826 101.73 174.695 103.641 170.811C106.217 165.641 109.816 161.051 114.22 157.32C115.323 156.392 116.459 155.541 117.529 154.629C118.144 154.182 118.597 153.547 118.819 152.818C119.041 152.09 119.02 151.31 118.759 150.595C118.638 150.213 118.539 149.821 118.401 149.445C116.9 145.429 115.297 141.454 113.591 137.519C110.973 131.495 108.098 125.6 104.965 119.833C101.926 114.218 98.6053 108.78 95.1194 103.436C89.0082 94.0739 82.8142 84.7616 76.7856 75.3387C74.2981 71.4701 71.7665 67.6014 69.4941 63.5615C67.2878 59.6928 65.2746 55.675 63.2228 51.7014C62.561 50.4137 61.866 49.1425 61.1876 47.8659C60.9974 48.9166 60.9974 49.993 61.1876 51.0437C62.1693 57.1451 63.1401 63.2483 64.0998 69.3534C64.894 74.4876 65.7545 79.6163 66.8576 84.6952C68.7825 93.6483 71.0384 102.524 73.3494 111.383C75.4123 119.286 77.5523 127.167 79.7696 135.026C81.4243 140.879 83.0072 146.743 84.8384 152.534C86.4324 157.569 88.1863 162.543 89.9458 167.517C91.0489 170.557 92.0859 173.596 93.2552 176.608C94.5844 180.123 96.6086 183.284 98.3957 186.556C98.3901 186.6 98.495 186.606 98.6605 186.661Z" fill="#0C0D0D"/>
<path d="M151.451 15.4088C151.346 15.4993 151.261 15.6111 151.202 15.7368C151.143 15.8626 151.112 15.9994 151.109 16.1383C150.558 18.6087 150.061 21.1122 149.532 23.555C148.715 27.3463 147.921 31.143 146.746 34.8514C144.81 40.9307 142.599 46.8939 140.376 52.8626C138.28 58.4943 136.184 64.1203 134.309 69.8183C131.981 76.8481 130.045 83.9775 128.357 91.1842C126.504 99.1425 124.971 107.156 123.575 115.203C122.704 120.221 121.871 125.239 121.033 130.263C120.386 133.684 120.201 137.177 120.481 140.647C120.854 144.232 122.008 147.69 123.862 150.778C124.237 151.413 124.259 151.413 124.965 150.96C127.497 149.302 130.029 147.594 132.544 145.887C135.995 143.601 139.146 140.888 141.92 137.812C147.2 131.806 150.738 124.467 152.152 116.59C153.255 110.837 153.806 104.984 154.358 99.1757C154.628 96.4842 154.805 93.7761 155.108 91.0902C155.621 86.586 155.941 82.0653 156.332 77.55C156.531 75.2509 156.669 72.9463 156.768 70.6417C156.906 67.4584 157.038 64.2696 157.061 61.0807C157.061 56.8971 157.132 52.7134 156.879 48.5353C156.774 46.7778 156.708 45.0204 156.592 43.2684C156.399 40.2343 156.084 37.2168 155.693 34.2048C155.345 31.0027 154.777 27.8284 153.994 24.7045C153.139 21.6317 152.301 18.5534 151.451 15.4088Z" fill="#0C0D0D"/>
<path d="M237.646 107.068C237.294 107.212 236.987 107.448 236.758 107.753C235.363 109.157 233.901 110.516 232.429 111.81C227.693 116.029 222.631 119.863 217.288 123.277C208.973 128.572 200.152 133.024 190.957 136.569C184.817 138.87 178.867 141.653 173.164 144.892C168.283 147.657 163.638 150.82 159.275 154.348C156.818 156.266 155.175 159.043 154.675 162.124C154.348 164.296 153.753 166.42 152.905 168.446C150.368 174.614 147.836 180.785 145.31 186.96C145.092 187.406 144.931 187.878 144.83 188.364C145.31 188.204 145.685 188.093 146.055 187.955C152.41 185.518 158.62 182.715 164.653 179.56C171.541 175.971 178.197 171.951 184.581 167.523C192.192 162.237 199.402 156.394 206.152 150.043C209.44 146.951 212.611 143.744 215.667 140.421C218.822 136.994 221.899 133.513 224.812 129.876C229.328 124.332 233.069 118.196 235.931 111.638C236.589 110.149 237.162 108.623 237.646 107.068V107.068Z" fill="#0C0D0D"/>
<path d="M115.936 130.787C116.118 130.408 116.24 130.004 116.3 129.588C116.833 126.857 117.372 124.129 117.916 121.403C119.299 114.402 120.687 107.402 122.081 100.402C123.338 94.0792 124.568 87.7457 125.903 81.4343C126.572 78.6567 126.734 75.7809 126.383 72.9454C125.831 69.4028 125.506 65.8271 125.092 62.268C124.772 59.5047 124.474 56.7414 124.154 53.9781C123.746 50.4908 123.327 47.0035 122.919 43.5162C122.594 40.7916 122.296 38.0614 121.965 35.3368C121.483 31.3797 120.99 27.4245 120.487 23.4712C120.172 20.9676 119.885 18.4585 119.505 15.966C118.722 10.8594 117.486 5.83573 116.482 0.773355C116.479 0.633063 116.447 0.494981 116.388 0.367617C116.329 0.240252 116.245 0.126304 116.14 0.0327911C115.9 0.147217 115.691 0.317967 115.531 0.530579C115.37 0.743192 115.263 0.991401 115.219 1.25417C115.07 1.93395 114.899 2.60819 114.756 3.28797C113.763 7.86953 112.848 12.4677 112.042 17.1045C111.344 21.1573 110.704 25.2102 110.123 29.263C109.626 32.7448 109.163 36.2266 108.777 39.7194C108.358 43.4664 107.9 47.208 107.492 50.955C107.238 53.3204 107.04 55.6858 106.808 58.0512C106.471 61.4721 106.113 64.8931 105.788 68.3141C105.589 70.3921 105.435 72.4701 105.236 74.5481C104.971 77.5712 104.684 80.6274 104.447 83.6228C104.315 85.2311 104.249 86.8393 104.133 88.4475C103.951 90.8516 103.719 93.2557 103.581 95.6653C103.443 98.0749 103.162 100.545 102.964 102.988C102.809 104.928 102.842 106.857 103.664 108.708C104.955 111.632 106.422 114.461 107.983 117.247C110.388 121.569 112.853 125.863 115.302 130.162C115.445 130.367 115.489 130.704 115.936 130.787Z" fill="#0C0D0D"/>
<path d="M101.568 196.255C101.439 196.097 101.297 195.949 101.144 195.813C99.2543 194.307 97.4721 192.671 95.8099 190.917C93.588 188.581 91.5486 186.077 89.7097 183.428C87.3092 179.961 85.1246 176.349 83.1682 172.612C82.6691 171.583 81.812 170.771 80.7579 170.33C79.9195 170.061 79.0384 169.953 78.1601 170.009C76.0807 169.971 74.0234 170.308 71.9219 170.114C69.8205 169.921 67.5481 169.866 65.364 169.645C62.0546 169.308 58.7783 168.744 55.5076 168.153C49.0047 166.975 42.6177 165.19 36.0265 164.439C33.0867 164.102 30.1414 163.803 27.2016 163.698C23.6882 163.576 20.1748 163.588 16.6558 163.803C13.6278 163.98 10.5887 164.3 7.59375 164.566C6.99807 164.615 6.41335 164.77 5.80664 164.875C5.94453 165.4 6.35823 165.577 6.66158 165.782C8.96158 167.29 11.2616 168.794 13.5837 170.258C19.0662 173.723 24.5762 177.144 29.816 180.98C34.6168 184.539 39.763 187.605 45.1769 190.132C48.5755 191.697 52.0769 193.029 55.6565 194.117C63.0092 196.298 70.6071 197.542 78.2704 197.819C82.5514 197.96 86.837 197.85 91.1051 197.488C94.5579 197.206 97.9941 196.78 101.568 196.255Z" fill="#0C0D0D"/>
<path d="M151.721 132.937C151.429 133.379 151.263 133.616 151.12 133.865C148.75 137.846 145.772 141.43 142.295 144.487C139.325 147.103 136.173 149.504 132.863 151.672C129.848 153.687 126.824 155.695 123.79 157.696C121.858 158.954 120.015 160.345 118.274 161.857C113.487 165.997 109.682 171.155 107.139 176.956C105.364 181.142 104.165 185.55 103.575 190.06C103.222 192.58 104.061 194.509 106.273 195.841C108.258 197.085 110.384 198.09 112.604 198.836C116.363 200.113 120.396 200.344 124.275 199.505C130.624 198.057 135.202 194.227 138.406 188.667C140.452 184.936 142.247 181.071 143.778 177.1C146.319 170.899 148.573 164.588 150.541 158.166C151.695 154.377 152.382 150.461 152.587 146.504C152.763 143.502 152.703 140.489 152.405 137.496C152.284 135.962 152.056 134.438 151.721 132.937V132.937Z" fill="#0C0D0D"/>
<path d="M9.66762 75.6203C9.6068 75.7212 9.57471 75.8368 9.57471 75.9546C9.57471 76.0725 9.6068 76.1881 9.66762 76.289C11.6126 81.8667 13.9993 87.2797 16.8048 92.4764C19.331 97.2072 22.1163 101.772 25.0782 106.227C30.6349 114.375 36.682 122.176 43.1858 129.588C46.6827 133.639 50.2789 137.59 53.8695 141.553C56.0757 143.968 58.3316 146.317 60.5489 148.704C63.2956 151.652 66.0332 154.61 68.7616 157.58C70.6976 159.68 72.6225 161.791 74.575 163.886C75.4906 164.881 76.3069 165.969 77.4597 166.738C79.2853 167.97 81.3206 168.202 83.4496 168.114C83.764 168.114 83.9295 167.97 83.8081 167.622C83.7474 167.45 83.7088 167.268 83.6537 167.069C81.5577 160.069 79.4582 153.087 77.3549 146.123C75.6598 140.508 73.9665 134.897 72.275 129.289C72.0168 128.367 71.5485 127.518 70.9072 126.808C69.5338 125.332 68.1494 123.845 66.7429 122.42C63.121 118.783 59.3502 115.303 55.4305 111.98C50.0275 107.414 44.3843 103.141 38.5252 99.1802C32.7007 95.2342 26.7329 91.4927 21.2173 87.0991C17.6598 84.3318 14.4024 81.1976 11.4988 77.748C10.9622 76.9783 10.3486 76.2653 9.66762 75.6203V75.6203Z" fill="#0C0D0D"/>
<path d="M157.723 147.55C157.866 147.437 158.001 147.313 158.125 147.18C161.112 142.87 163.811 138.367 166.206 133.7C169.68 126.717 172.662 119.498 175.13 112.097C177.518 105.128 179.542 98.0427 181.704 91.0018C183.867 83.9609 186.034 76.7763 188.224 69.6746C189.588 65.2533 190.972 60.8486 192.377 56.4605C193.337 53.4595 194.181 50.4254 195.378 47.5074C196.266 45.3354 197.264 43.2132 198.279 41.0965C198.704 40.2012 199.095 39.2948 199.514 38.3995C199.691 38.0182 199.514 37.7695 199.228 37.5539C198.941 37.3384 198.759 37.5871 198.571 37.7474L197.435 38.7422C194.815 40.9528 192.184 43.1966 189.713 45.5675C187.651 47.5629 185.734 49.7035 183.977 51.9729C179.972 57.1756 176.48 62.7561 173.552 68.6356C171.898 71.8355 170.453 75.1183 168.881 78.3459C167.485 81.2197 166.018 84.0549 164.612 86.9176C162.873 90.3537 161.397 93.9176 160.199 97.5785C159.128 100.855 158.493 104.26 158.313 107.703C158.263 108.941 158.263 110.196 158.092 111.428C157.579 115.12 156.962 118.801 156.493 122.481C156.187 124.705 156.187 126.961 156.493 129.185C157.057 132.985 157.379 136.817 157.458 140.658C157.513 142.902 157.612 145.129 157.723 147.55Z" fill="#0C0D0D"/>
<path d="M242.823 162.66C242.763 162.411 242.608 162.389 242.47 162.345C240.788 161.847 239.084 161.449 237.363 161.101C234.319 160.489 231.235 160.099 228.135 159.935C225.797 159.802 223.447 159.841 221.103 159.935C219.002 159.956 216.962 160.652 215.284 161.919C214.181 162.759 213.078 163.632 211.975 164.467C207.049 168.153 202.047 171.74 196.868 175.072C191.815 178.328 186.636 181.367 181.286 184.103C174.39 187.668 167.207 190.646 159.814 193.006C158.76 193.331 157.784 193.869 156.946 194.587C155.892 195.493 154.894 196.466 153.874 197.417C153.697 197.582 153.46 197.754 153.636 198.063C153.813 198.373 153.874 198.787 154.353 198.793C154.833 198.798 155.159 198.793 155.561 198.793C157.933 198.66 160.299 198.467 162.671 198.389C165.23 198.306 167.778 198.124 170.332 197.947C172.59 197.785 174.842 197.562 177.089 197.278C181.874 196.649 186.572 195.477 191.093 193.786C198.022 191.171 204.618 187.744 210.745 183.578C220.673 176.946 230.689 170.552 240.716 164.13C241.468 163.714 242.174 163.222 242.823 162.66V162.66Z" fill="#0C0D0D"/>
<path d="M82.2523 12.2418C81.4966 14.1927 80.7685 16.1436 80.2115 18.1442C78.5958 24.1572 77.5087 30.3005 76.9628 36.5036C76.6539 39.6648 76.4499 42.8482 76.3064 46.026C76.163 49.2038 76.1189 52.3263 76.0748 55.482C76.0417 57.759 76.0748 60.0359 76.0748 62.3129C76.0164 65.4894 76.9603 68.6033 78.7719 71.2107C79.875 72.8079 80.9285 74.4438 82.0095 76.052C87.2659 83.8722 92.2961 91.8471 97.6683 99.5899C97.8172 99.7999 97.8834 100.143 98.2198 100.143C98.3577 98.5564 98.5397 96.9924 98.628 95.4283C98.7879 92.5048 99.0417 89.5922 99.2844 86.6742C99.6236 83.3565 99.7782 80.0225 99.7477 76.6876C99.7107 74.0798 99.3813 71.4844 98.7659 68.9503C97.3925 63.5453 95.4565 58.3061 93.5923 53.0669C91.0441 45.9652 88.3359 38.9187 86.1958 31.6789C84.2696 25.3397 82.9492 18.8314 82.2523 12.2418V12.2418Z" fill="#0C0D0D"/>
<path d="M166.901 142.327L167.039 142.487C167.232 142.405 167.43 142.327 167.59 142.233L178.506 136.585C181.266 135.219 183.719 133.303 185.715 130.953C192.974 122.32 199.706 113.254 205.874 103.807C208.781 99.2693 211.5 94.6215 213.965 89.8299C216.662 84.5796 219.001 79.158 221.494 73.8027C221.861 73.2103 222.126 72.5601 222.277 71.8794C220.349 73.4581 218.537 75.1739 216.855 77.0137C215.112 78.9448 213.252 80.7665 211.285 82.4684C207.093 86.0165 202.791 89.4264 198.489 92.8364C194.186 96.2463 189.763 99.7336 185.411 103.204C183.605 104.598 182.259 106.505 181.55 108.676C179.896 113.732 178.169 118.745 176.2 123.68C174.092 129.154 171.549 134.449 168.594 139.514C168.015 140.443 167.458 141.388 166.901 142.327Z" fill="#0C0D0D"/>
<path d="M68.6231 117.07C68.6659 116.889 68.6918 116.704 68.7003 116.518C68.4687 115.07 68.2757 113.616 67.9834 112.185C66.3173 104.291 63.6829 96.6335 60.1402 89.3876C57.0051 82.7938 53.3147 76.4798 49.109 70.5142C45.1488 64.8992 40.8357 59.5826 35.6951 54.9955C33.5859 52.9932 31.1638 51.3503 28.5249 50.1321C28.2105 49.9994 27.8299 49.6678 27.521 49.9994C27.2121 50.331 27.5817 50.6737 27.7527 50.9721C29.4074 53.9399 31.0069 56.9574 32.4188 60.0689C36.1198 68.2262 38.9328 76.7095 41.4699 85.2869C42.4462 88.6028 43.4059 91.9188 45.0054 94.975C46.6944 98.3732 49.2331 101.275 52.3742 103.398C56.9025 106.365 60.8737 109.985 64.8505 113.616C66.0529 114.722 67.2663 115.816 68.6231 117.07Z" fill="#0C0D0D"/>
<path d="M9.43921 75.1558C9.41164 75.1834 9.36751 75.211 9.37303 75.2331C9.38485 75.2982 9.40525 75.3614 9.43369 75.421C9.43369 75.421 9.5054 75.3658 9.5054 75.3492C9.48917 75.2828 9.46702 75.2181 9.43921 75.1558V75.1558Z" fill="#0C0D0D"/>
<path d="M98.6602 186.661C98.4947 186.606 98.3899 186.6 98.3678 186.556C96.5808 183.279 94.5565 180.118 93.2273 176.608C92.0855 173.596 91.021 170.557 89.9179 167.517C88.1584 162.543 86.4045 157.569 84.8105 152.534C82.9794 146.743 81.3798 140.879 79.7417 135.026C77.5355 127.164 75.3954 119.283 73.3215 111.383C71.0105 102.541 68.7546 93.6484 66.8297 84.6953C65.7266 79.6163 64.8772 74.4876 64.0719 69.3534C63.149 63.2447 62.1911 57.1396 61.1983 51.0382C61.0081 49.9875 61.0081 48.9111 61.1983 47.8604C61.8767 49.1371 62.5717 50.4082 63.2335 51.6959C65.2853 55.6695 67.3096 59.6597 69.5048 63.556C71.7772 67.5794 74.3089 71.4425 76.7964 75.3332C82.8249 84.7561 89.0189 94.0684 95.1302 103.431C98.616 108.775 101.936 114.213 104.975 119.828C108.097 125.601 110.973 131.496 113.602 137.513C115.312 141.444 116.915 145.42 118.411 149.44C118.549 149.815 118.649 150.208 118.77 150.589C119.031 151.304 119.052 152.085 118.83 152.813C118.608 153.541 118.155 154.177 117.54 154.624C116.437 155.535 115.29 156.387 114.231 157.315C109.832 161.049 106.238 165.641 103.668 170.811C101.757 174.695 100.391 178.826 99.6088 183.086C99.3496 184.29 98.969 185.468 98.6602 186.661Z" fill="#65CCCC"/>
<path d="M151.449 15.4088C152.298 18.5534 153.137 21.6317 153.969 24.7045C154.753 27.8284 155.321 31.0027 155.668 34.2048C156.06 37.2168 156.374 40.2343 156.567 43.2684C156.683 45.0204 156.749 46.7778 156.854 48.5353C157.108 52.7134 157.064 56.8971 157.036 61.0807C157.036 64.2696 156.882 67.4584 156.744 70.6417C156.645 72.9463 156.507 75.2509 156.308 77.55C155.916 82.0653 155.597 86.586 155.084 91.0902C154.78 93.7761 154.604 96.4842 154.334 99.1757C153.749 105.001 153.23 110.837 152.127 116.59C150.713 124.467 147.175 131.806 141.896 137.812C139.121 140.888 135.971 143.601 132.519 145.887C130.004 147.594 127.473 149.274 124.941 150.96C124.263 151.413 124.24 151.413 123.838 150.778C121.983 147.69 120.829 144.232 120.457 140.647C120.176 137.177 120.362 133.684 121.008 130.263C121.847 125.239 122.663 120.221 123.551 115.203C124.947 107.156 126.48 99.1425 128.333 91.1842C130.021 83.9996 131.957 76.8481 134.284 69.8183C136.176 64.1203 138.272 58.4943 140.352 52.8626C142.558 46.8939 144.764 40.9196 146.722 34.8514C147.897 31.143 148.691 27.3463 149.507 23.555C150.059 21.0846 150.555 18.6087 151.085 16.1383C151.09 15.9977 151.125 15.8598 151.188 15.734C151.251 15.6081 151.34 15.4972 151.449 15.4088V15.4088Z" fill="#65CCCC"/>
<path d="M237.646 107.068C237.161 108.615 236.589 110.134 235.931 111.616C233.069 118.174 229.328 124.309 224.812 129.854C221.899 133.49 218.822 136.972 215.667 140.399C212.607 143.715 209.436 146.922 206.152 150.021C199.402 156.372 192.192 162.215 184.581 167.501C178.197 171.929 171.541 175.949 164.653 179.538C158.62 182.693 152.41 185.496 146.055 187.933C145.685 188.071 145.31 188.182 144.83 188.342C144.931 187.856 145.092 187.384 145.31 186.938C147.84 180.763 150.371 174.592 152.905 168.424C153.753 166.398 154.348 164.274 154.675 162.102C155.175 159.021 156.818 156.244 159.275 154.326C163.639 150.805 168.284 147.65 173.164 144.892C178.864 141.654 184.809 138.871 190.946 136.569C200.145 133.025 208.969 128.573 217.288 123.277C222.635 119.864 227.701 116.029 232.44 111.81C233.912 110.494 235.374 109.157 236.769 107.753C236.995 107.45 237.298 107.213 237.646 107.068V107.068Z" fill="#16B1C2"/>
<path d="M116.034 130.787C115.587 130.704 115.543 130.367 115.411 130.13C112.962 125.83 110.496 121.536 108.092 117.214C106.542 114.451 105.064 111.599 103.773 108.675C102.951 106.829 102.918 104.895 103.072 102.955C103.271 100.513 103.541 98.0808 103.69 95.6325C103.839 93.1842 104.071 90.8188 104.242 88.4148C104.358 86.8065 104.424 85.1983 104.556 83.59C104.804 80.567 105.108 77.5107 105.345 74.5153C105.521 72.4373 105.676 70.3593 105.896 68.2813C106.222 64.8603 106.58 61.4394 106.917 58.0184C107.148 55.653 107.347 53.2876 107.601 50.9222C108.009 47.1752 108.467 43.4336 108.886 39.6866C109.272 36.1938 109.735 32.712 110.232 29.2303C110.816 25.1774 111.456 21.1246 112.151 17.0717C112.956 12.457 113.872 7.85884 114.865 3.25517C115.008 2.5754 115.179 1.90115 115.328 1.22138C115.372 0.95861 115.479 0.710405 115.64 0.497792C115.8 0.28518 116.009 0.114426 116.249 0C116.354 0.0935133 116.438 0.207465 116.497 0.33483C116.555 0.462194 116.588 0.600276 116.591 0.740568C117.595 5.80295 118.83 10.8266 119.614 15.9332C119.994 18.4257 120.281 20.9072 120.595 23.4384C121.099 27.3917 121.592 31.3469 122.074 35.304C122.405 38.0286 122.702 40.7588 123.028 43.4834C123.436 46.9707 123.855 50.458 124.263 53.9453C124.583 56.7086 124.881 59.4719 125.201 62.2352C125.615 65.7943 125.962 69.37 126.492 72.9126C126.843 75.7481 126.681 78.6239 126.012 81.4015C124.677 87.7129 123.447 94.0464 122.189 100.369C120.792 107.369 119.404 114.37 118.025 121.37C117.485 124.096 116.946 126.825 116.409 129.555C116.349 129.983 116.222 130.399 116.034 130.787V130.787Z" fill="#16B1C2"/>
<path d="M101.568 196.255C97.994 196.808 94.5578 197.184 91.0885 197.488C86.8204 197.85 82.5348 197.96 78.2538 197.819C70.5905 197.542 62.9926 196.298 55.6399 194.117C52.0603 193.029 48.5589 191.697 45.1603 190.132C39.7464 187.605 34.6001 184.539 29.7993 180.98C24.5595 177.144 19.0495 173.723 13.567 170.258C11.2449 168.794 8.94491 167.29 6.64491 165.782C6.32501 165.577 5.92793 165.4 5.79004 164.875C6.39675 164.77 6.9814 164.615 7.57708 164.566C10.5996 164.3 13.6111 163.98 16.6391 163.803C20.1581 163.588 23.6715 163.576 27.1849 163.698C30.1358 163.803 33.0811 164.102 36.0099 164.439C42.6286 165.19 48.9881 166.975 55.4909 168.153C58.7617 168.744 62.0324 169.308 65.3473 169.645C67.5535 169.866 69.7267 169.915 71.9053 170.114C74.084 170.313 76.064 169.971 78.1434 170.009C79.0217 169.953 79.9029 170.061 80.7413 170.33C81.7954 170.771 82.6525 171.583 83.1516 172.612C85.108 176.349 87.2926 179.961 89.6931 183.428C91.532 186.077 93.5714 188.581 95.7933 190.917C97.4554 192.671 99.2376 194.307 101.127 195.813C101.286 195.948 101.433 196.096 101.568 196.255V196.255Z" fill="#16B1C2"/>
<path d="M151.721 132.937C152.054 134.439 152.28 135.962 152.399 137.496C152.697 140.489 152.758 143.502 152.581 146.504C152.376 150.461 151.689 154.377 150.535 158.166C148.571 164.58 146.317 170.892 143.773 177.1C142.241 181.071 140.447 184.936 138.401 188.667C135.196 194.227 130.618 198.062 124.27 199.505C120.391 200.344 116.357 200.113 112.599 198.836C110.378 198.09 108.253 197.085 106.267 195.841C104.061 194.509 103.217 192.58 103.57 190.06C104.159 185.55 105.358 181.142 107.133 176.956C109.674 171.147 113.479 165.981 118.269 161.835C120.009 160.323 121.852 158.932 123.784 157.674C126.811 155.669 129.835 153.661 132.858 151.65C136.167 149.482 139.319 147.081 142.289 144.465C145.767 141.408 148.744 137.824 151.114 133.843C151.263 133.616 151.428 133.379 151.721 132.937Z" fill="#16B1C2"/>
<path d="M9.66794 75.6203C10.3504 76.274 10.964 76.9963 11.4991 77.7757C14.4027 81.2252 17.6601 84.3595 21.2176 87.1267C26.7332 91.548 32.7011 95.2619 38.5255 99.2079C44.3847 103.169 50.0278 107.442 55.4308 112.008C59.3542 115.323 63.125 118.803 66.7433 122.447C68.1663 123.873 69.5341 125.36 70.9075 126.835C71.5489 127.545 72.0171 128.395 72.2753 129.317C73.9631 134.928 75.6564 140.54 77.3552 146.151C79.4548 153.133 81.5544 160.115 83.654 167.097C83.7091 167.268 83.7478 167.45 83.8084 167.649C83.9298 167.998 83.7643 168.13 83.4499 168.141C81.3264 168.23 79.2857 167.998 77.46 166.765C76.3072 165.997 75.4909 164.908 74.5754 163.913C72.6284 161.819 70.7144 159.708 68.7619 157.608C66.0262 154.66 63.2886 151.701 60.5492 148.732C58.343 146.344 56.0595 143.996 53.8698 141.58C50.2792 137.618 46.6996 133.666 43.1862 129.615C36.6823 122.204 30.6352 114.403 25.0785 106.254C22.1001 101.8 19.3147 97.2349 16.8051 92.5041C13.9996 87.3074 11.6129 81.8943 9.66794 76.3166C9.60163 76.2127 9.56641 76.0919 9.56641 75.9685C9.56641 75.8451 9.60163 75.7243 9.66794 75.6203V75.6203Z" fill="#16B1C2"/>
<path d="M157.722 147.55C157.634 145.129 157.535 142.902 157.479 140.675C157.4 136.834 157.078 133.002 156.514 129.202C156.208 126.978 156.208 124.722 156.514 122.498C156.983 118.801 157.617 115.12 158.114 111.445C158.285 110.212 158.285 108.958 158.334 107.72C158.515 104.276 159.149 100.872 160.221 97.5951C161.419 93.9342 162.894 90.3703 164.633 86.9342C166.04 84.0714 167.507 81.2363 168.902 78.3624C170.474 75.1349 171.941 71.8521 173.574 68.6522C176.502 62.7727 179.993 57.1922 183.998 51.9894C185.74 49.7217 187.64 47.5812 189.685 45.5841C192.178 43.2132 194.809 40.9915 197.407 38.7587L198.571 37.7474C198.758 37.5871 198.929 37.3384 199.227 37.5539C199.525 37.7695 199.69 38.0182 199.514 38.3995C199.095 39.2948 198.703 40.2012 198.278 41.0965C197.263 43.2132 196.265 45.3354 195.377 47.5074C194.18 50.4254 193.336 53.4595 192.377 56.4605C190.972 60.8597 189.588 65.2644 188.223 69.6746C186.017 76.7763 183.877 83.8946 181.704 91.0018C179.531 98.109 177.518 105.128 175.129 112.097C172.655 119.504 169.665 126.728 166.183 133.717C163.789 138.383 161.089 142.886 158.103 147.196C157.985 147.323 157.857 147.442 157.722 147.55V147.55Z" fill="#16B1C2"/>
<path d="M242.821 162.66C242.171 163.212 241.464 163.696 240.714 164.102C230.687 170.524 220.649 176.941 210.743 183.551C204.616 187.717 198.02 191.143 191.091 193.758C186.57 195.45 181.871 196.622 177.087 197.251C174.836 197.538 172.584 197.761 170.33 197.92C167.776 198.097 165.228 198.279 162.669 198.362C160.297 198.439 157.931 198.633 155.559 198.765C155.157 198.765 154.754 198.765 154.351 198.765C153.949 198.765 153.8 198.345 153.634 198.036C153.469 197.726 153.695 197.555 153.871 197.389C154.892 196.439 155.89 195.466 156.944 194.56C157.782 193.842 158.758 193.304 159.812 192.979C167.205 190.619 174.388 187.64 181.284 184.076C186.634 181.34 191.813 178.3 196.865 175.045C202.045 171.729 207.047 168.126 211.973 164.439C213.076 163.605 214.179 162.732 215.282 161.892C216.96 160.624 218.999 159.929 221.101 159.908C223.445 159.83 225.795 159.792 228.133 159.908C231.233 160.072 234.317 160.462 237.361 161.074C239.082 161.422 240.786 161.82 242.468 162.317C242.606 162.389 242.761 162.389 242.821 162.66Z" fill="#16B1C2"/>
<path d="M0.108088 110.919C4.21168 114.512 8.26561 118.159 12.4299 121.685C19.039 127.399 26.5558 131.965 34.6687 135.192C35.9925 135.706 37.3493 136.148 38.6951 136.613C41.6 137.648 44.27 139.252 46.5493 141.332C48.7303 143.4 50.7998 145.582 52.7488 147.87C54.2491 149.528 55.7768 151.186 57.3157 152.778C60.5478 156.182 63.8131 159.548 67.0176 162.975C67.7953 163.804 68.6172 164.594 69.3507 165.462C69.5658 165.716 69.803 165.97 69.5382 166.329C69.2735 166.689 69.0363 166.49 68.7495 166.401C65.2912 165.346 61.833 164.273 58.3581 163.262C52.291 161.488 46.1246 160.079 39.9747 158.609L32.3025 156.779C30.88 156.434 29.5577 155.761 28.4416 154.812C25.8836 152.728 23.4333 150.514 21.1004 148.18C15.5469 142.582 10.8284 136.21 7.09083 129.262C4.1746 123.754 1.85938 117.947 0.185315 111.942C0.0915498 111.61 -0.123544 111.257 0.130172 110.897L0.108088 110.919Z" fill="#65CCCC"/>
<path d="M82.251 12.2418C82.9488 18.8467 84.2729 25.3699 86.2057 31.7231C88.3457 38.9629 91.0539 46.0094 93.6021 53.1111C95.4884 58.3503 97.4023 63.6116 98.7757 68.9946C99.3911 71.5287 99.7205 74.124 99.7575 76.7318C99.7881 80.0667 99.6333 83.4007 99.2941 86.7184C99.0514 89.6365 98.7978 92.549 98.6378 95.4726C98.5496 97.0366 98.3675 98.6006 98.2297 100.187C97.8711 100.154 97.805 99.822 97.6781 99.6341C92.3059 91.8969 87.2757 83.9164 82.0194 76.0963C80.9162 74.488 79.8848 72.8521 78.7817 71.2549C76.9701 68.6475 76.0262 65.5336 76.0846 62.3571C76.0846 60.0801 76.0846 57.8032 76.0846 55.5262C76.1287 52.3705 76.1673 49.2203 76.3163 46.0702C76.4652 42.92 76.6637 39.709 76.9726 36.5478C77.5124 30.3302 78.5957 24.172 80.2102 18.1442C80.7673 16.1436 81.4954 14.1927 82.251 12.2418Z" fill="#16B1C2"/>
<path d="M166.901 142.327C167.452 141.388 168.004 140.443 168.556 139.503C171.51 134.438 174.054 129.143 176.162 123.669C178.131 118.734 179.885 113.722 181.512 108.665C182.221 106.494 183.566 104.587 185.373 103.193C189.724 99.7226 194.093 96.2851 198.45 92.8254C202.807 89.3658 207.054 86.0056 211.246 82.4575C213.213 80.7556 215.074 78.9339 216.817 77.0027C218.499 75.163 220.311 73.4471 222.239 71.8685C222.088 72.5492 221.823 73.1994 221.456 73.7918C218.962 79.136 216.624 84.5576 213.927 89.8189C211.461 94.6105 208.742 99.2584 205.835 103.796C199.675 113.25 192.951 122.323 185.698 130.965C183.703 133.314 181.25 135.23 178.489 136.596L167.574 142.244C167.392 142.338 167.193 142.416 167.022 142.499L166.901 142.327Z" fill="#65CCCC"/>
<path d="M68.625 117.07C67.2682 115.843 66.0548 114.749 64.8469 113.643C60.8701 110.012 56.8989 106.392 52.3706 103.424C49.2325 101.288 46.7012 98.3729 45.0239 94.9632C43.4244 91.8904 42.4647 88.58 41.4884 85.2751C38.9512 76.6978 36.1383 68.2144 32.4373 60.0571C31.0253 56.9457 29.4479 53.9281 27.7711 50.9603C27.6002 50.6619 27.2196 50.3358 27.5395 49.9877C27.8594 49.6395 28.229 49.9877 28.5433 50.1203C31.1823 51.3385 33.6044 52.9814 35.7136 54.9837C40.8596 59.5708 45.1673 64.8874 49.1275 70.5025C53.3332 76.468 57.0236 82.782 60.1586 89.3758C63.7014 96.6217 66.3357 104.279 68.0018 112.173C68.2941 113.605 68.4872 115.058 68.7188 116.506C68.7055 116.696 68.6741 116.885 68.625 117.07V117.07Z" fill="#16B1C2"/>
<path d="M9.43874 75.1558C9.46655 75.2181 9.4887 75.2828 9.50493 75.3492C9.50493 75.3492 9.45528 75.3934 9.43322 75.421C9.40478 75.3614 9.38438 75.2982 9.37256 75.2331C9.37256 75.2331 9.41116 75.1834 9.43874 75.1558Z" fill="#188490"/>
<path d="M0.119264 110.908L0.0380859 110.952L0.103015 110.925L0.119264 110.908Z" fill="#6BA4A4"/>
</svg>
