<svg width="161" height="234" viewBox="0 0 161 234" fill="none" xmlns="http://www.w3.org/2000/svg">
<path d="M41.5253 32.4351C41.9878 33.2992 42.4707 34.1531 42.918 35.0223C44.6717 38.4178 46.3694 41.8438 48.3976 45.0869C50.6595 48.706 52.9724 52.2997 55.2902 55.8782C58.7518 61.2053 62.2642 66.4968 65.7156 71.834C71.4474 80.7911 76.2083 90.3334 79.9178 100.299C80.0957 100.762 80.2228 101.24 80.3753 101.712C80.5219 102.139 80.5358 102.6 80.4151 103.035C80.2944 103.469 80.0448 103.857 79.6992 104.147C79.4097 104.418 79.1024 104.67 78.7792 104.899C75.2667 107.526 72.3856 110.903 70.3464 114.786C69.0201 117.351 68.0586 120.088 67.4896 122.919C67.3168 123.742 67.0932 124.561 66.8848 125.374C66.8512 125.508 66.7722 125.627 66.6611 125.71C66.4985 125.811 66.3816 125.659 66.3104 125.537C65.1565 123.504 63.8959 121.531 63.0928 119.335C60.5512 112.443 58.0097 105.555 56.007 98.4948C53.9534 91.1989 51.9405 83.9199 49.9683 76.6579C48.4128 70.8632 46.954 65.043 45.6375 59.1873C44.7022 55.0243 43.955 50.8307 43.2993 46.6169C42.6791 42.647 42.0285 38.6822 41.3829 34.7174C41.2094 33.9588 41.2588 33.1662 41.5253 32.4351Z" fill="#65CCCC"/>
<path d="M102.441 10.5776C102.497 10.6437 102.584 10.6996 102.604 10.7759C103.793 14.9745 104.907 19.1833 105.4 23.5446C106.068 29.7121 106.343 35.9158 106.223 42.1182C106.182 44.8529 106.005 47.5723 105.857 50.2969C105.7 53.3162 105.349 56.3254 105.1 59.3346C104.876 61.8761 104.663 64.377 104.403 66.8931C104.18 69.1144 103.895 71.3256 103.641 73.5418C103.429 75.6157 103.1 77.676 102.655 79.7127C101.148 86.7856 97.0548 93.0412 91.1771 97.2544C89.0982 98.7793 86.9176 100.167 84.7674 101.6C84.0761 102.058 83.9287 102.022 83.5068 101.27C82.2069 98.973 81.4831 96.3952 81.3973 93.7572C81.3801 91.1264 81.627 88.5006 82.1344 85.9191C82.8054 81.9543 83.4712 77.9946 84.1676 74.0399C85.577 65.8764 87.4764 57.8052 89.8556 49.8699C91.2026 45.5035 92.7834 41.2286 94.3744 36.9487C95.8994 32.8822 97.3887 28.8564 98.7662 24.7493C99.7221 21.7744 100.505 18.7466 101.11 15.681C101.43 14.1561 101.74 12.6719 102.055 11.1673C102.126 10.9487 102.162 10.6945 102.441 10.5776Z" fill="#65CCCC"/>
<path d="M160.454 72.9675C160.418 73.1483 160.371 73.3266 160.312 73.5012C159.29 76.1926 158.022 78.7841 156.525 81.2428C154.507 84.4872 152.228 87.561 149.708 90.433C146.553 94.1338 143.2 97.6615 139.664 101.001C135.696 104.746 131.489 108.228 127.068 111.426C122.204 114.946 117.096 118.115 111.783 120.911C108.093 122.858 104.291 124.546 100.453 126.162C99.9041 126.396 99.34 126.584 98.7808 126.782C98.6029 126.843 98.3945 126.95 98.242 126.736C98.1934 126.65 98.168 126.553 98.168 126.454C98.168 126.355 98.1934 126.258 98.242 126.172C98.3996 125.755 98.5673 125.344 98.7503 124.932C100.275 121.175 101.871 117.424 103.401 113.652C103.951 112.379 104.332 111.039 104.535 109.667C104.896 106.877 106.568 104.854 108.718 103.237C111.94 100.834 115.323 98.6552 118.844 96.7157C122.402 94.7434 126.194 93.2541 129.966 91.7342C137.034 88.9572 143.759 85.3755 150.008 81.0598C153.134 78.8642 156.097 76.4451 158.873 73.8215C159.27 73.4504 159.686 73.0997 160.108 72.754C160.149 72.7184 160.281 72.754 160.362 72.8099C160.444 72.8658 160.408 72.8811 160.454 72.9675Z" fill="#16B1C2"/>
<path d="M78.3473 88.3491C77.595 87.0479 77.0206 86.0719 76.4615 85.0858C74.9061 82.3138 73.3574 79.5401 71.8155 76.7648C71.3835 75.9871 71.0378 75.1585 70.6007 74.3808C69.6556 72.667 69.3255 70.6813 69.6654 68.7539C69.8891 67.2747 69.884 65.7904 70.0771 64.3112C70.311 62.4966 70.3211 60.6514 70.4584 58.8266C70.6159 56.7476 70.8091 54.6788 70.9667 52.6049C71.0734 51.3189 71.109 50.0329 71.2716 48.7519C71.4851 47.1304 71.5258 45.4886 71.6783 43.862C71.8156 42.4286 72.0087 41.0053 72.1561 39.5769C72.268 38.4942 72.3289 37.4065 72.4662 36.3187C72.7508 34.011 72.8983 31.6829 73.1727 29.3701C73.493 26.6151 73.8742 23.8651 74.2554 21.1152C74.6672 18.1721 75.0585 15.2239 75.5669 12.296C76.126 9.07336 76.8071 5.87102 77.4425 2.63818C77.5798 1.96213 77.7475 1.28608 77.9203 0.604947C77.9891 0.420051 78.0888 0.248174 78.2152 0.0966386C78.25 0.0603756 78.2931 0.0329951 78.3407 0.0167888C78.3884 0.000582501 78.4392 -0.0039781 78.489 0.00348696C78.5388 0.010952 78.586 0.0302245 78.6268 0.0596959C78.6676 0.0891673 78.7007 0.127977 78.7235 0.172882C78.7794 0.360956 78.82 0.559199 78.8658 0.747273C79.7299 4.56975 80.5483 8.39731 81.1125 12.2757C81.3972 14.2327 81.57 16.21 81.814 18.1823C82.0631 20.246 82.3528 22.3046 82.6019 24.3734C82.8509 26.4423 83.0542 28.4094 83.2931 30.4274C83.5473 32.5928 83.8015 34.7531 84.0861 36.9185C84.2081 37.9046 84.3199 38.8856 84.4267 39.8718C84.7655 42.8301 85.0909 45.7851 85.4026 48.7367C85.4331 49.0315 85.5145 49.3212 85.55 49.616C85.7175 50.7982 85.6934 51.9997 85.4789 53.1742C83.9184 60.8954 82.4036 68.6268 80.8685 76.3581C80.1704 79.8553 79.4707 83.3542 78.7692 86.8547C78.6879 87.2664 78.5506 87.6324 78.3473 88.3491Z" fill="#16B1C2"/>
<path d="M3.75293 111.264C4.74228 111.004 5.75581 110.847 6.77737 110.796C9.24775 110.643 11.7181 110.435 14.1936 110.288C15.7299 110.192 17.2718 110.241 18.7988 110.435C19.045 110.466 19.2929 110.481 19.541 110.481C23.1093 110.613 26.6583 111.069 30.1443 111.843C33.1586 112.438 36.1474 113.149 39.1668 113.698C41.017 114.034 42.8825 114.263 44.7582 114.456C47.5244 114.705 50.3038 114.776 53.0792 114.669C53.4191 114.651 53.7599 114.67 54.0958 114.725C54.5593 114.817 54.9944 115.017 55.3656 115.31C55.7367 115.602 56.0332 115.978 56.2307 116.408C57.2473 118.349 58.3503 120.225 59.5398 122.06C61.3942 125 63.5976 127.706 66.102 130.117C66.7171 130.691 67.3677 131.23 68.0031 131.789C68.1454 131.916 68.3132 132.058 68.2674 132.297C68.2217 132.536 67.9929 132.552 67.7998 132.572C65.7665 132.811 63.7638 133.055 61.7458 133.263C58.7281 133.51 55.6984 133.58 52.6725 133.472C49.1052 133.377 45.5556 132.934 42.0743 132.15C34.145 130.426 26.6788 127.018 20.1815 122.157C16.9791 119.803 13.609 117.704 10.2491 115.589C8.49035 114.474 6.7367 113.351 4.98812 112.219C4.63738 111.955 4.3019 111.675 3.75293 111.264Z" fill="#16B1C2"/>
<path d="M102.568 89.6606C102.689 89.9849 102.791 90.3159 102.873 90.6519C103.309 93.6508 103.408 96.689 103.168 99.7099C102.962 102.331 102.451 104.919 101.643 107.421C99.9274 112.809 97.9199 118.1 95.6297 123.27C94.8403 125.202 93.8505 127.045 92.6765 128.77C90.7471 131.516 87.9336 133.517 84.7062 134.438C82.3543 135.095 79.8713 135.127 77.5034 134.529C75.4666 134.047 73.5297 133.212 71.7799 132.064C70.3363 131.123 69.8127 129.883 70.0516 128.14C70.4763 124.89 71.379 121.721 72.7304 118.736C73.7318 116.517 75.0409 114.45 76.619 112.596C78.5071 110.351 80.6986 108.38 83.1304 106.74C85.7736 104.981 88.427 103.238 91.0498 101.443C93.8271 99.5981 96.3851 97.4425 98.6745 95.0182C99.9123 93.6614 101.027 92.1967 102.004 90.6417C102.131 90.3825 102.278 90.1435 102.568 89.6606Z" fill="#16B1C2"/>
<path d="M6.69601 51.2427C7.28057 51.5019 7.48898 52.1068 7.88038 52.544C10.5481 55.5593 13.5571 58.2545 16.8469 60.5752C19.5715 62.4814 22.3265 64.3367 25.0917 66.1666C30.0605 69.4521 34.7941 73.0801 39.2582 77.0241C41.0729 78.6405 42.8723 80.2773 44.626 81.9598C45.7697 83.0577 46.8117 84.2624 47.9046 85.4163C48.4039 85.9724 48.7629 86.6399 48.9517 87.3631C51.4017 95.496 53.8467 103.615 56.2866 111.721C56.4391 112.23 56.556 112.738 56.6932 113.282C55.8057 113.477 54.8835 113.45 54.0089 113.203C53.1344 112.955 52.3347 112.495 51.6813 111.864C50.7613 110.959 49.9124 109.983 49.033 109.037C48.728 108.712 48.4434 108.366 48.1384 108.021C45.9374 105.662 43.706 103.334 41.5304 100.955C37.6418 96.716 33.7228 92.497 29.9155 88.1815C24.8084 82.5044 20.1277 76.4577 15.9116 70.0908C12.4409 64.8848 9.54362 59.3187 7.27041 53.4894C6.99592 52.7625 6.53335 52.0611 6.72651 51.2173L6.69601 51.2427Z" fill="#16B1C2"/>
<path d="M105.679 84.7909C105.687 83.5504 105.797 82.3127 106.009 81.0904C106.294 78.7827 106.685 76.4852 107.026 74.1825C107.071 73.7877 107.088 73.3903 107.077 72.9931C107.077 69.9432 107.854 67.0103 108.886 64.1536C109.521 62.4318 110.247 60.7452 111.062 59.101C113.181 54.7804 115.276 50.4598 117.426 46.1442C119.415 42.0859 121.829 38.2504 124.628 34.7022C126.167 32.6922 127.911 30.8489 129.834 29.2023C131.099 28.1857 132.279 27.0166 133.534 25.9745C133.905 25.6645 134.322 24.9325 134.871 25.4307C135.278 25.7966 134.723 26.3253 134.53 26.7472C133.468 29.0397 132.289 31.2915 131.521 33.7059C129.701 39.4261 127.907 45.1496 126.138 50.8766C124.944 54.7092 123.785 58.5571 122.58 62.3898C121.309 66.5121 120.079 70.6447 118.727 74.7417C116.89 80.4584 114.571 86.0088 111.794 91.3328C110.467 93.8305 108.999 96.2505 107.397 98.5813C107.288 98.7482 107.163 98.9048 107.026 99.049C106.988 99.074 106.945 99.0898 106.9 99.0951C106.855 99.1004 106.809 99.095 106.766 99.0795C106.724 99.0601 106.687 99.0312 106.658 98.995C106.629 98.9588 106.609 98.9164 106.599 98.8711C106.553 97.6308 106.482 96.3905 106.497 95.1502C106.448 92.3255 106.216 89.5069 105.801 86.7123C105.722 86.0748 105.681 85.4332 105.679 84.7909Z" fill="#16B1C2"/>
<path d="M99.9456 133.266H97.6226C97.4966 133.268 97.3736 133.231 97.2696 133.161C97.1646 133.091 97.0846 132.991 97.0376 132.875C96.9926 132.758 96.9876 132.63 97.0246 132.511C97.0616 132.392 97.1376 132.289 97.2416 132.219C97.9786 131.553 98.7056 130.877 99.4626 130.236C99.9726 129.839 100.554 129.542 101.176 129.362C105.61 127.918 109.938 126.165 114.128 124.116C117.116 122.658 120.014 121.031 122.865 119.318C128.167 116.097 133.273 112.563 138.155 108.735C139.537 107.58 141.29 106.964 143.091 107.002C144.779 107.047 146.471 106.951 148.174 107.058C150.895 107.236 153.593 107.684 156.226 108.394C156.414 108.445 156.607 108.501 156.795 108.567C156.854 108.581 156.909 108.611 156.952 108.654C156.995 108.697 157.025 108.751 157.039 108.811C157.052 108.87 157.049 108.932 157.03 108.99C157.01 109.047 156.974 109.098 156.927 109.137C156.449 109.492 155.961 109.838 155.463 110.153C148.977 114.291 142.476 118.398 136.097 122.698C132.718 124.981 129.146 126.964 125.422 128.625C121.763 130.292 117.896 131.454 113.924 132.082C112.016 132.383 110.094 132.588 108.165 132.697C105.385 132.834 102.619 133.068 99.9456 133.266Z" fill="#16B1C2"/>
<path d="M0.1536 75.0771C0.733071 75.0771 0.987213 75.5854 1.34811 75.8802C3.71683 77.9134 6.03983 80.0178 8.42887 82.0307C13.5818 86.4932 19.5608 89.9007 26.0265 92.0597C28.0608 92.7316 29.9227 93.8422 31.4806 95.3128C32.3956 96.1516 33.275 97.0309 34.1035 97.951C37.1178 101.316 40.2337 104.584 43.3649 107.843C44.4256 108.951 45.4845 110.066 46.5418 111.187C46.6492 111.289 46.7463 111.402 46.8316 111.523C46.9383 111.685 47.0603 111.863 46.9434 112.072C46.895 112.158 46.8156 112.223 46.7212 112.253C46.6269 112.283 46.5247 112.277 46.4351 112.234C46.0538 112.133 45.6726 112.006 45.2914 111.894C42.3432 111.03 39.4153 110.089 36.4417 109.317C31.7399 108.092 27.0126 106.948 22.2853 105.84C21.0289 105.555 19.857 104.979 18.8644 104.157C9.93339 96.9784 3.44058 87.2134 0.275589 76.2004C0.107013 75.8383 0.0675632 75.4292 0.163776 75.0415L0.1536 75.0771Z" fill="#65CCCC"/>
<path d="M67.4636 52.6452C67.4446 55.0763 67.2748 57.5039 66.9553 59.914C66.9146 60.3105 66.9146 60.707 66.8892 61.1035C66.7672 62.9842 66.6435 64.865 66.5182 66.7457C66.5179 66.8154 66.5034 66.8843 66.4754 66.9481C66.4474 67.012 66.4066 67.0694 66.3555 67.1168C66.1268 67.2743 66.0048 67.0456 65.9031 66.8982C65.0491 65.6782 64.1748 64.4685 63.3616 63.2282C59.9864 58.1451 56.6417 53.062 53.2564 47.979C52.0051 46.1732 51.3526 44.02 51.3909 41.8233C51.4366 39.0937 51.2943 36.3539 51.4773 33.6294C51.645 31.0879 51.5993 28.5819 51.8789 26.0607C52.1076 23.997 52.2703 21.918 52.5804 19.8593C53.0824 16.1215 53.9751 12.4467 55.2439 8.89513C55.2672 8.80089 55.3067 8.71143 55.3608 8.63081C55.3916 8.5995 55.4291 8.5755 55.4705 8.56055C55.5118 8.5456 55.556 8.54008 55.5997 8.54439C55.6413 8.56255 55.6778 8.59054 55.7062 8.62597C55.7345 8.66139 55.7538 8.70317 55.7624 8.74771C55.8864 10.283 56.0951 11.8102 56.3876 13.3225C56.8518 15.8576 57.4473 18.367 58.1717 20.8404C59.534 25.6185 61.3283 30.2441 63.0058 34.9103C64.2816 38.4685 65.588 41.9911 66.5893 45.6306C67.2392 47.91 67.5341 50.276 67.4636 52.6452Z" fill="#16B1C2"/>
<path d="M150.003 48.8281C150.04 48.9469 150.051 49.0722 150.036 49.1957C150.021 49.3192 149.98 49.4382 149.916 49.5448C148.036 53.5351 146.307 57.6015 144.228 61.5002C140.611 68.1784 136.46 74.553 131.815 80.5618C129.711 83.327 127.525 86.0261 125.299 88.6947C124.569 89.57 123.713 90.3307 122.757 90.9516C121.339 91.8768 115.072 95.135 113.247 95.8822C112.957 95.4908 113.323 95.2316 113.481 94.9825C114.644 93.0777 115.71 91.1148 116.673 89.1014C118.61 84.9666 120.307 80.7237 121.756 76.3937C122.081 75.4584 122.432 74.5231 122.701 73.5726C123.191 71.8929 124.216 70.4188 125.619 69.374C128.625 67.0019 131.621 64.6297 134.606 62.2576C137.317 60.0922 140.028 57.9116 142.739 55.7157C144.094 54.5506 145.382 53.3101 146.597 52C147.532 51.0444 148.498 50.1141 149.454 49.1789C149.526 49.0781 149.621 48.9967 149.732 48.9417C149.843 48.8867 149.965 48.8599 150.089 48.8637L150.003 48.8281Z" fill="#65CCCC"/>
<path d="M46.2518 78.5083C45.8059 78.3931 45.4076 78.1405 45.1132 77.7865C43.8627 76.653 42.6123 75.5245 41.3771 74.3758C39.6368 72.7504 37.7668 71.2697 35.7857 69.9484C33.1255 68.1764 31.0478 65.6583 29.8131 62.7101C29.0807 60.9213 28.4578 59.0897 27.9476 57.2254C26.5263 52.2701 24.8293 47.398 22.8645 42.6319C21.8403 40.1599 20.6761 37.7484 19.3775 35.4088C19.181 35.07 18.9929 34.7192 18.8133 34.3566C18.7066 34.1482 18.5286 33.9042 18.7777 33.6958C18.8805 33.6261 19.0017 33.5889 19.1259 33.5889C19.2501 33.5889 19.3714 33.6261 19.4741 33.6958C20.4998 34.1989 21.4766 34.7962 22.3918 35.48C24.1529 36.8584 25.7892 38.3893 27.2817 40.0548C30.3828 43.4055 33.1525 47.0484 35.5519 50.9326C37.631 54.1921 39.4871 57.5886 41.1077 61.0988C43.2364 65.6344 44.8543 70.3925 45.9315 75.2856C46.084 76.0125 46.1908 76.7496 46.3026 77.4815C46.3889 77.8211 46.3712 78.1789 46.2518 78.5083Z" fill="#16B1C2"/>
<path d="M150.023 48.853L150.14 48.6401C150.282 48.8378 150.14 48.853 150.003 48.8276L150.023 48.853Z" fill="#5ECE7D"/>
<path d="M6.71524 51.242C6.61389 51.2927 6.48215 51.242 6.51762 51.1711C6.68486 50.9329 6.64937 51.2015 6.69498 51.2623L6.71524 51.242Z" fill="#5ECE7D"/>
<path d="M0.15377 75.052C0.0317813 75.0825 -0.0190362 75.0521 0.00637816 74.9453C0.00637816 74.9453 0.0826125 74.9453 0.0927782 74.9453C0.112933 74.9831 0.125051 75.0246 0.128362 75.0673L0.15377 75.052Z" fill="#5ECE7D"/>
<path d="M13.0589 194.841C15.5709 194.606 18.083 194.359 20.5951 194.136C22.8292 193.935 25.0649 193.744 27.3022 193.562C28.5876 193.456 29.8731 193.361 31.1636 193.293C34.4607 193.111 37.7528 192.959 41.05 192.773C45.0144 192.545 48.9836 192.451 52.9529 192.31C56.9222 192.169 60.9013 192.211 64.8706 192.09C69.2275 191.957 73.5844 192.006 77.9414 192.021C82.73 192.021 87.5186 192.147 92.3024 192.238C94.7899 192.283 97.2773 192.367 99.7648 192.454C103.302 192.575 106.84 192.693 110.378 192.857C114.725 193.058 119.072 193.278 123.414 193.535C127.231 193.767 131.044 194.059 134.85 194.336C137.044 194.495 139.233 194.674 141.426 194.848C141.622 194.887 141.814 194.937 142 195H13L13.0589 194.841Z" fill="#16B1C2"/>
<path d="M106.789 167.615C106.789 164.63 106.789 161.648 106.789 158.669C106.801 158.338 106.787 158.005 106.75 157.676C106.624 156.769 106.332 156.493 105.408 156.334L104.149 156.095C103.911 156.066 103.694 155.944 103.545 155.757C103.458 155.646 103.415 155.509 103.424 155.369C103.445 155.305 103.479 155.246 103.524 155.196C103.57 155.146 103.624 155.106 103.687 155.078C103.867 155.021 104.056 154.994 104.245 155.001H112.08C112.269 155 112.458 155.016 112.644 155.05C112.739 155.059 112.827 155.103 112.891 155.175C112.955 155.245 112.99 155.337 112.99 155.432C113.011 155.528 112.999 155.628 112.955 155.716C112.912 155.804 112.841 155.875 112.752 155.916C112.449 156.043 112.124 156.12 111.813 156.232C111.42 156.339 111.074 156.576 110.831 156.903C110.589 157.23 110.464 157.628 110.476 158.035C110.476 158.412 110.476 158.791 110.476 159.173C110.476 164.092 110.476 169.015 110.476 173.938C110.513 175.933 110.132 177.914 109.357 179.754C107.586 183.795 104.493 186.165 100.117 186.858C97.8095 187.21 95.4503 186.905 93.3085 185.981C91.5847 185.285 90.0307 184.229 88.7514 182.884C87.4721 181.539 86.4971 179.936 85.8923 178.183C85.5156 177.06 85.3411 175.879 85.3769 174.694C85.3769 169.525 85.3769 164.368 85.3769 159.221C85.3967 158.749 85.3722 158.275 85.3039 157.807C85.1532 156.997 84.7204 156.353 83.7915 156.43C83.2656 156.435 82.7466 156.312 82.2791 156.072C82.1828 156.027 82.1039 155.951 82.0548 155.857C82.0057 155.763 81.9889 155.655 82.0072 155.55C82.0254 155.446 82.0776 155.35 82.1557 155.277C82.2338 155.206 82.3335 155.161 82.4395 155.151C83.0007 155.049 83.5756 155.049 84.1368 155.151C85.0751 155.289 86.0288 155.289 86.9671 155.151C88.576 155.008 90.1934 154.984 91.8058 155.078C91.9483 155.077 92.0904 155.093 92.229 155.127C92.4575 155.185 92.7153 155.257 92.7153 155.539C92.7153 155.82 92.5256 155.955 92.3019 156.023C92.0782 156.091 91.7427 156.115 91.4654 156.193C91.0351 156.254 90.6425 156.471 90.3633 156.803C90.0841 157.135 89.9379 157.558 89.953 157.991C89.953 158.272 89.953 158.558 89.953 158.838C89.953 164.709 89.953 170.577 89.953 176.444C89.9165 177.512 90.1048 178.576 90.506 179.569C90.9072 180.56 91.5123 181.456 92.2825 182.201C94.2958 184.139 96.7562 184.799 99.4895 184.464C100.865 184.314 102.185 183.838 103.336 183.073C104.403 182.395 105.282 181.46 105.89 180.353C106.497 179.247 106.815 178.006 106.813 176.744C106.876 173.716 106.813 170.687 106.813 167.658L106.789 167.615Z" fill="#16B1C2"/>
<path d="M30.9634 157.772C27.5937 157.772 24.3396 157.772 21.0999 157.772C19.9105 157.819 18.7833 158.324 17.9469 159.185C17.1912 159.899 16.5028 160.652 15.7519 161.41C15.386 161.782 15.0202 162.153 14.6255 162.486C14.5577 162.529 14.4805 162.554 14.4006 162.56C14.3209 162.565 14.2411 162.549 14.1685 162.516C14.0959 162.482 14.0327 162.43 13.9848 162.365C13.9368 162.3 13.9055 162.224 13.8937 162.144C13.8577 161.668 13.8577 161.191 13.8937 160.716C14.057 159.009 14.332 157.315 14.7169 155.645C14.8613 155.068 15.0442 154.906 15.6123 155.049C17.504 155.537 19.4296 155.464 21.3551 155.464H35.4498C36.8939 155.464 36.9806 155.655 36.3259 156.892C33.6015 161.851 30.6275 166.664 27.4156 171.312C24.8499 175.136 22.2264 178.916 19.6462 182.731C19.3092 183.219 18.8567 183.674 18.7653 184.413C19.6176 184.474 20.4724 184.488 21.3262 184.456C24.2434 184.456 27.1557 184.388 30.068 184.432C30.6782 184.449 31.2854 184.342 31.8541 184.117C32.4229 183.892 32.9416 183.553 33.3799 183.122C34.2408 182.377 34.9928 181.511 35.6135 180.55C35.7506 180.302 35.93 180.082 36.143 179.899C36.3007 179.804 36.4875 179.77 36.6677 179.806C36.7621 179.82 36.848 179.87 36.908 179.945C36.9678 180.02 36.9973 180.116 36.9902 180.212C37.0119 180.833 36.9974 181.452 36.9469 182.071C36.841 183.014 36.6677 183.953 36.504 184.887C36.4242 185.134 36.3988 185.395 36.4296 185.653C36.4604 185.911 36.5466 186.158 36.6822 186.379C36.8651 186.637 36.6436 186.946 36.3163 186.97C35.989 186.995 35.5654 187 35.1899 187L14.327 186.936H14.0526C12.8443 187.005 12.7865 186.501 13.3257 185.567C15.3812 182.031 17.4945 178.535 19.7425 175.127C23.1924 169.894 26.6358 164.657 30.0728 159.415C30.4713 158.931 30.7736 158.373 30.9634 157.772Z" fill="#16B1C2"/>
<path d="M59.3456 155.317H65.4691C66.4645 155.391 67.4651 155.3 68.4311 155.047C68.8932 154.886 69.1607 155.15 69.1705 155.629C69.1617 156.106 69.0964 156.58 68.9758 157.041C68.7472 158.062 68.5576 159.094 68.3388 160.119C68.2878 160.349 68.2076 160.571 68.1004 160.78C68.0514 160.863 67.9791 160.929 67.8926 160.971C67.806 161.013 67.7091 161.028 67.614 161.014C67.5176 161.01 67.4253 160.974 67.3507 160.912C67.2763 160.85 67.2235 160.766 67.2006 160.672L66.9963 159.842C66.8918 159.323 66.6347 158.848 66.2584 158.478C65.882 158.107 65.4038 157.858 64.8855 157.764C64.5677 157.679 64.2415 157.628 63.9126 157.613C62.4876 157.613 61.0626 157.613 59.6374 157.637C59.1024 157.637 58.9614 157.799 58.9516 158.331C58.9516 159.572 58.9516 160.809 58.9516 162.05C58.9516 164.058 58.9516 166.061 58.9516 168.065C58.9516 168.71 59.0781 168.833 59.6958 168.838C61.4516 168.838 63.2074 168.838 64.9633 168.838C65.5333 168.785 66.0871 168.619 66.5926 168.348C67.0304 168.168 67.4632 167.968 67.9108 167.816C67.9888 167.794 68.0708 167.79 68.1508 167.803C68.2308 167.818 68.3068 167.849 68.3733 167.896C68.4398 167.942 68.4951 168.003 68.5354 168.073C68.5757 168.145 68.5999 168.223 68.6062 168.305C68.625 168.687 68.607 169.069 68.5527 169.448C68.2938 170.853 68.1119 172.27 68.008 173.694C67.9929 173.837 67.9602 173.976 67.9108 174.11C67.8813 174.174 67.839 174.233 67.7864 174.28C67.7337 174.327 67.672 174.363 67.6049 174.386C67.538 174.408 67.467 174.416 67.3966 174.411C67.3262 174.404 67.2578 174.384 67.1957 174.349C66.948 174.203 66.7535 173.98 66.6412 173.715C66.4878 173.365 66.3579 173.006 66.2521 172.639C66.1726 172.285 65.9758 171.969 65.6938 171.743C65.4118 171.516 65.0616 171.393 64.7006 171.393C63.5625 171.32 62.4438 171.017 61.2959 171.109C60.5567 171.173 59.7833 170.914 59.0733 171.305C58.8008 171.999 58.9516 172.718 58.9468 173.426C58.9468 176.094 58.9808 178.772 58.9225 181.44C58.8871 181.942 58.9974 182.443 59.2399 182.885C59.4825 183.325 59.847 183.685 60.2891 183.922C61.1146 184.444 62.0415 184.782 63.0077 184.916C63.974 185.049 64.9574 184.974 65.8923 184.694C66.5129 184.514 67.0842 184.194 67.5624 183.758C68.0404 183.322 68.4125 182.781 68.65 182.177C68.8007 181.831 68.9175 181.464 69.0829 181.127C69.1273 181.041 69.1997 180.973 69.2882 180.933C69.3768 180.894 69.4759 180.887 69.5693 180.912C69.8173 180.975 70.0265 181.142 69.9973 181.4C69.934 181.968 69.8027 182.524 69.7249 183.087C69.6081 183.888 69.5206 184.694 69.4038 185.496C69.2482 186.57 69.0197 186.805 67.9447 186.844C66.8698 186.883 65.8533 186.844 64.8125 186.844C62.7211 186.81 60.6393 186.966 58.5528 186.995C56.5684 187.03 54.5742 186.864 52.585 186.776C52.3509 186.765 52.1198 186.718 51.8992 186.639C51.8357 186.612 51.7786 186.572 51.7317 186.521C51.6847 186.471 51.6489 186.411 51.6268 186.345C51.5733 186.126 51.7387 186.004 51.9283 185.946C52.1181 185.887 52.3855 185.813 52.6141 185.754C53.689 185.496 54.1657 184.708 54.3311 183.702C54.3968 183.182 54.4212 182.658 54.404 182.134C54.404 174.445 54.404 166.762 54.404 159.084V158.796C54.3699 157.33 54.1997 157.1 52.799 156.699C52.2848 156.57 51.7928 156.365 51.3399 156.089C51.1405 155.962 50.9362 155.819 51.0188 155.526C51.1015 155.233 51.3009 155.292 51.4809 155.282C51.8554 155.282 52.2397 155.282 52.619 155.282L59.3456 155.317Z" fill="#16B1C2"/>
<path d="M142.045 157.146C142.045 157.808 142.045 158.475 142.045 159.142C142.018 159.762 141.8 160.361 141.421 160.855C141.367 160.931 141.292 160.992 141.206 161.03C141.119 161.067 141.025 161.081 140.931 161.069C140.812 161.061 140.699 161.014 140.61 160.934C140.52 160.855 140.461 160.748 140.44 160.632C140.392 160.398 140.387 160.144 140.352 159.925C140.221 158.952 139.755 158.054 139.032 157.382C138.31 156.71 137.376 156.307 136.389 156.241C135.291 156.073 134.168 156.244 133.171 156.727C132.255 157.261 131.546 158.083 131.157 159.064C130.769 160.045 130.723 161.126 131.027 162.135C131.375 163.177 131.957 164.126 132.729 164.91C133.683 165.911 134.701 166.85 135.775 167.723C137.271 168.913 138.699 170.183 140.053 171.53C140.653 172.144 141.193 172.816 141.662 173.535C142.604 174.926 143.07 176.582 142.992 178.256C142.937 179.447 142.57 180.603 141.927 181.61C140.617 183.563 138.733 185.068 136.531 185.922C135.125 186.533 133.619 186.89 132.087 186.978C130.693 187.084 129.298 186.804 128.055 186.17C127.35 185.849 126.773 185.308 126.411 184.628C126.048 183.949 125.92 183.171 126.049 182.413C126.19 181.381 126.485 180.373 126.715 179.356C126.727 179.309 126.743 179.263 126.765 179.22C126.921 178.797 127.172 178.582 127.456 178.636C127.537 178.657 127.613 178.695 127.679 178.747C127.744 178.799 127.798 178.864 127.837 178.938C127.876 179.01 127.9 179.092 127.906 179.175C127.912 179.257 127.901 179.341 127.874 179.419C127.623 180.485 128.03 181.366 128.55 182.247C128.92 182.811 129.425 183.274 130.022 183.595C131.213 184.319 132.614 184.632 134.003 184.487C135.393 184.34 136.696 183.744 137.708 182.788C139.151 181.328 139.557 179.736 138.631 177.72C137.928 176.31 136.978 175.033 135.824 173.953C134.176 172.303 132.469 170.701 130.787 169.086C129.758 168.09 128.834 166.993 128.03 165.81C127.113 164.582 126.584 163.112 126.509 161.585C126.485 160.703 126.67 159.829 127.048 159.03C127.427 158.233 127.987 157.534 128.687 156.99C130.353 155.612 132.357 154.696 134.495 154.337C136.512 153.901 138.6 153.888 140.622 154.298C142.319 154.673 142.128 154.605 142.142 156.129V157.146H142.045Z" fill="#16B1C2"/>
<path d="M112 211.666C113.031 210.774 113.041 210.774 113.041 209.649C113.041 206.799 113.041 203.951 113.041 201.105C113.041 199.916 113.041 199.916 112.05 199.216C112.109 198.958 112.342 199.034 112.5 199.034C114.43 199.034 116.364 198.996 118.293 199C120.748 199 122.623 200.155 124.135 201.914C124.718 202.555 125.027 203.386 124.998 204.238C124.968 204.933 124.998 205.637 124.953 206.332C124.912 207.391 124.56 208.416 123.937 209.287C123.314 210.157 122.447 210.838 121.437 211.25C120.517 211.666 119.521 211.906 118.506 211.954C117.108 212.048 115.703 211.998 114.316 211.805C113.547 211.72 112.774 211.674 112 211.666ZM115.03 205.12C115.03 206.385 115.03 207.645 115.03 208.911C115.03 209.285 115.03 209.658 115.074 210.032C115.083 210.22 115.153 210.4 115.274 210.547C115.395 210.694 115.562 210.801 115.749 210.852C116.204 211.016 116.682 211.109 117.168 211.13C118.136 211.129 119.098 210.967 120.009 210.65C120.659 210.453 121.249 210.108 121.733 209.646C122.217 209.183 122.58 208.615 122.791 207.99C123.087 207.246 123.221 206.449 123.183 205.652C123.004 202.901 121.591 200.86 118.749 200.074C117.803 199.879 116.832 199.82 115.868 199.897C115.204 199.897 115.045 200.079 115.035 200.769C115.021 202.221 115.03 203.673 115.03 205.12Z" fill="#16B1C2"/>
<path d="M29.3453 212.99C28.669 213.069 27.6844 212.692 26.7545 212.13C25.5926 211.42 24.6066 210.456 23.8704 209.311C22.3787 207.032 22.9256 203.289 24.5914 201.422C24.89 201.105 25.2236 200.822 25.586 200.578C26.987 199.599 28.6451 199.052 30.3546 199.005C31.2334 198.968 32.1086 199.136 32.9107 199.496C33.7128 199.856 34.4194 200.399 34.9742 201.08C35.8448 202.032 36.4634 203.185 36.7734 204.436C37.0835 205.687 37.0752 206.996 36.7494 208.243C36.5235 209.141 36.0538 209.959 35.3919 210.607C33.8454 212.165 31.9757 212.935 29.3453 212.99ZM30.0514 212.071C32.2591 212.071 33.7161 211.143 34.5266 209.37C35.1105 208.163 35.3338 206.812 35.1698 205.481C35.0058 204.151 34.4615 202.895 33.6018 201.865C33.1045 201.233 32.4549 200.738 31.7139 200.425C30.9729 200.112 30.1645 199.992 29.3643 200.075C28.5642 200.159 27.7983 200.445 27.1385 200.904C26.4786 201.364 25.9461 201.983 25.5909 202.704C25.116 203.865 24.9185 205.121 25.0141 206.372C25.0287 207.492 25.3652 208.585 25.9838 209.52C26.9981 210.999 28.2661 212.136 30.0662 212.071H30.0514Z" fill="#16B1C2"/>
<path d="M73.974 211.881C74.132 211.26 74.0529 210.606 73.7511 210.035L72.8251 207.684C72.7789 207.477 72.6563 207.294 72.4802 207.169C72.3043 207.044 72.0869 206.986 71.8693 207.004C71.1909 207.042 70.5125 207.033 69.839 207.004C69.5969 206.98 69.354 207.042 69.1567 207.18C68.9594 207.318 68.8216 207.521 68.7694 207.75C68.4392 208.726 68.1238 209.704 67.8235 210.686C67.7912 210.762 67.7749 210.844 67.7754 210.925C67.7758 211.007 67.7932 211.089 67.8264 211.164C67.8595 211.24 67.9079 211.308 67.9685 211.366C68.0292 211.423 68.1011 211.468 68.1801 211.499C68.3137 211.571 68.4177 211.657 68.3534 211.819C68.289 211.982 68.1305 211.972 67.9918 211.972H65.3821C65.2434 211.972 65.0751 211.972 65.0157 211.819C64.9562 211.667 65.0751 211.585 65.2187 211.532C65.5324 211.401 65.812 211.205 66.0372 210.957C66.2626 210.709 66.4278 210.415 66.521 210.098C66.8232 209.362 67.0906 208.611 67.3678 207.865L70.3986 199.846C70.4759 199.625 70.5772 199.411 70.7006 199.21C70.7359 199.153 70.7841 199.104 70.8416 199.068C70.899 199.032 70.9642 199.008 71.0324 199C71.1014 199.018 71.1655 199.051 71.2202 199.095C71.275 199.14 71.319 199.196 71.3493 199.258C71.5178 199.593 71.6614 199.937 71.805 200.286C73.0958 203.403 74.3866 206.521 75.6774 209.639C76.0588 210.595 76.4153 211.504 78 211.518C76.8758 212.044 75.8112 212.097 73.974 211.881ZM69.5171 206.038C70.1045 206.132 70.7013 206.157 71.2949 206.115C72.013 206.115 72.1763 205.9 71.9683 205.283C71.7109 204.537 71.4385 203.798 71.1513 203.064C71.0621 202.839 71.0671 202.519 70.6561 202.442C70.1609 203.608 69.7731 204.813 69.4973 206.043L69.5171 206.038Z" fill="#16B1C2"/>
<path d="M74.3746 233.934C73.2511 234.022 72.1234 234.022 71 233.934C72.1913 232.964 72.3005 232.778 72.8321 231.178C73.9806 227.705 75.1324 224.219 76.2873 220.718C76.3822 220.432 76.4439 220.046 76.7287 220.005C77.1321 219.948 77.2033 220.406 77.3409 220.713C78.0338 222.599 78.6936 224.495 79.3771 226.38C80.0605 228.267 80.7535 230.027 81.4037 231.891C81.5023 232.285 81.6864 232.646 81.9402 232.944C82.194 233.241 82.5099 233.467 82.8607 233.601C82.8847 233.603 82.9077 233.612 82.9281 233.626C82.9483 233.641 82.9653 233.66 82.9776 233.683C82.9901 233.705 82.9976 233.731 82.9995 233.758C83.0014 233.784 82.9978 233.81 82.9889 233.834C82.932 233.877 82.8703 233.965 82.8038 233.965H79.5859C79.6903 233.496 79.8849 233.137 79.6808 232.647C79.2394 231.606 78.8976 230.475 78.5275 229.381C78.4812 229.182 78.3726 229.008 78.2208 228.888C78.0689 228.767 77.8835 228.71 77.6969 228.725C76.9565 228.725 76.2161 228.725 75.4757 228.725C75.3121 228.714 75.1502 228.766 75.0184 228.872C74.8864 228.979 74.793 229.134 74.7542 229.308C74.4362 230.313 74.1087 231.319 73.8335 232.345C73.6389 233.089 73.7148 233.251 74.3746 233.934ZM76.7144 227.755C76.9422 227.755 77.189 227.755 77.4026 227.755C77.7681 227.755 77.8773 227.558 77.7729 227.167C77.4564 226.125 77.14 225.084 76.8236 224.042C76.7809 223.911 76.7287 223.714 76.5531 223.807C76.4423 223.883 76.3599 224 76.3206 224.136C76.0784 224.949 75.8458 225.766 75.6228 226.579C75.319 227.652 75.3997 227.772 76.4534 227.792L76.7144 227.755Z" fill="#16B1C2"/>
<path d="M48 211.554C47.2688 212.154 46.5744 212.042 45.8938 211.832C45.2419 211.628 44.6622 211.222 44.2289 210.666C43.7277 210.056 43.2541 209.421 42.7574 208.81C42.5757 208.567 42.3465 208.366 42.0855 208.224C41.8244 208.082 41.5376 208 41.2444 207.986C40.6604 207.986 40.504 208.074 40.4811 208.665C40.4811 209.045 40.4811 209.431 40.4811 209.806C40.4213 210.583 40.5822 211.212 41.3502 211.505C41.3502 211.505 41.3502 211.593 41.3502 211.69C40.3245 211.771 39.2947 211.771 38.269 211.69C38.853 210.837 38.853 210.837 38.8576 209.768C38.8576 207.669 38.8576 205.572 38.8576 203.476C38.8576 203.144 38.8898 202.797 38.5265 202.617C38.3196 202.509 37.8919 202.587 38.0253 202.158C38.0896 201.938 38.4161 202.012 38.6323 202.012C39.5521 202.012 40.4304 202.055 41.3271 202.041C41.9505 202.047 42.5698 202.147 43.1667 202.338C44.6245 202.773 45.1625 204.11 44.5463 205.599C44.3134 206.119 44.0029 206.595 43.6266 207.01C43.5745 207.055 43.5326 207.113 43.5038 207.178C43.475 207.243 43.4601 207.313 43.4601 207.385C43.4601 207.458 43.475 207.529 43.5038 207.593C43.5326 207.658 43.5745 207.716 43.6266 207.762C44.0865 208.303 44.4911 208.855 44.9326 209.401C45.7263 210.432 46.7958 211.182 48 211.554ZM40.4902 204.887C40.4902 205.453 40.4902 206.024 40.4902 206.59C40.4854 206.685 40.5097 206.778 40.5595 206.856C40.6093 206.935 40.6819 206.994 40.7661 207.024C41.1474 207.169 41.5619 207.184 41.9513 207.066C42.3407 206.948 42.6853 206.703 42.9367 206.366C43.207 205.868 43.2954 205.283 43.1851 204.721C43.1755 204.438 43.1092 204.159 42.9906 203.905C42.872 203.65 42.7039 203.426 42.4973 203.246C42.2908 203.066 42.0505 202.935 41.7924 202.861C41.5344 202.787 41.2645 202.772 41.0006 202.817C40.9329 202.809 40.8644 202.818 40.8001 202.842C40.7357 202.866 40.6773 202.905 40.6289 202.956C40.5805 203.007 40.5433 203.068 40.5201 203.136C40.497 203.205 40.4883 203.277 40.4948 203.349C40.481 203.842 40.4902 204.365 40.4902 204.887Z" fill="#16B1C2"/>
<path d="M105.533 223.001C106.242 222.989 106.947 223.12 107.607 223.388C108.266 223.656 108.867 224.053 109.376 224.559C109.884 225.065 110.289 225.668 110.567 226.335C110.846 227.002 110.993 227.718 111 228.443C111.006 229.053 110.871 229.658 110.605 230.206C110.339 230.753 109.951 231.229 109.471 231.595C108.47 232.421 107.24 232.909 105.955 232.988C104.669 233.068 103.391 232.737 102.299 232.039C101.366 231.475 100.654 230.599 100.283 229.558C99.9126 228.519 99.9052 227.38 100.264 226.335C100.552 225.541 101.053 224.846 101.707 224.327C102.819 223.494 104.155 223.031 105.533 223.001ZM109.388 228.318C109.401 228.085 109.401 227.852 109.388 227.619C109.055 224.802 106.532 223.058 103.761 224.127C103.33 224.292 102.938 224.548 102.61 224.878C102.282 225.208 102.026 225.605 101.858 226.042C101.009 228.15 101.909 230.89 103.982 231.891C105.857 232.791 108.436 232.126 109.199 229.846C109.347 229.351 109.411 228.835 109.388 228.318Z" fill="#16B1C2"/>
<path d="M53.4171 212C51.5457 211.8 49.9269 211.057 48.818 209.213C48.2069 208.275 47.9226 207.119 48.0181 205.962C48.1138 204.805 48.5827 203.727 49.3373 202.93C50.2418 201.904 51.4248 201.246 52.7004 201.057C53.9758 200.867 55.2716 201.157 56.3835 201.882C57.1906 202.373 57.8614 203.104 58.3228 203.993C58.784 204.883 59.018 205.897 58.9989 206.925C59.0105 207.645 58.8618 208.358 58.5661 208.998C58.2704 209.638 57.8371 210.185 57.3052 210.591C56.1592 211.474 54.808 211.964 53.4171 212ZM49.6087 206.14C49.6087 209.24 51.5129 211.297 54.1938 211.088C54.9034 211.032 55.5804 210.734 56.1341 210.233C56.6878 209.733 57.0915 209.057 57.2911 208.292C57.4963 207.559 57.5511 206.782 57.4515 206.021C57.3519 205.261 57.1004 204.535 56.7157 203.898C56.2532 203.1 55.5737 202.49 54.7776 202.157C53.9815 201.824 53.1109 201.786 52.2943 202.05C51.4908 202.273 50.7826 202.805 50.2923 203.552C49.8019 204.299 49.5601 205.215 49.6087 206.14Z" fill="#16B1C2"/>
<path d="M52.5963 223C53.9516 222.997 55.2584 223.517 56.2573 224.455C57.2562 225.394 57.8743 226.682 57.9888 228.066C58.0428 228.794 57.9005 229.523 57.5774 230.174C57.2544 230.825 56.7631 231.373 56.1572 231.757C54.1764 233.137 52.0464 233.428 49.8465 232.325C48.6838 231.754 47.776 230.753 47.3064 229.522C46.9506 228.607 46.9033 227.596 47.1718 226.65C47.4402 225.704 48.0092 224.876 48.7885 224.298C49.8876 223.456 51.2234 223 52.5963 223ZM56.4369 228.334H56.3996C56.416 228.102 56.416 227.869 56.3996 227.636C55.8403 223.864 52.3493 223.005 50.0796 224.513C49.703 224.773 49.3851 225.111 49.1474 225.506C47.586 228.042 49.3292 231.442 51.4778 232.048C53.7383 232.683 55.803 231.571 56.3203 229.302C56.3757 228.982 56.4146 228.658 56.4369 228.334Z" fill="#16B1C2"/>
<path d="M91.22 202.288C90.6091 202.991 90.5998 202.991 90.5905 203.753C90.5905 205.276 90.5531 206.8 90.5625 208.323C90.5625 209.744 91.2014 210.656 92.3626 211.028C92.9752 211.226 93.6312 211.222 94.2413 211.015C94.8515 210.81 95.3857 210.411 95.7719 209.875C95.9765 209.557 96.0793 209.18 96.0655 208.796C96.0655 207.034 96.0655 205.276 96.0655 203.514C96.083 203.396 96.0775 203.276 96.049 203.16C96.0215 203.044 95.971 202.936 95.9031 202.841C95.8343 202.745 95.7481 202.666 95.649 202.606C95.5508 202.547 95.4416 202.508 95.3288 202.493C95.2077 202.464 95.0728 202.376 95.1333 202.19C95.1581 202.125 95.2031 202.071 95.2618 202.038C95.3205 202.004 95.3893 201.992 95.4545 202.005C96.2243 202.03 96.9941 202.059 97.7868 202.098C97.9731 202.098 98.0804 202.41 97.9263 202.493C97.4602 202.762 97.3996 203.206 97.4042 203.704C97.4042 204.988 97.3528 206.277 97.4042 207.561C97.4923 208.57 97.2133 209.575 96.6234 210.378C96.0343 211.18 95.1774 211.721 94.2235 211.891C93.2822 212.11 92.298 211.997 91.4254 211.567C90.5526 211.138 89.8407 210.417 89.4012 209.519C89.0933 208.933 88.9329 208.274 88.9348 207.605C88.9628 206.272 88.9348 204.939 88.9348 203.606C88.9348 203.026 88.8602 202.567 88.1979 202.478C88.1641 202.478 88.1309 202.469 88.1014 202.452C88.072 202.433 88.0473 202.408 88.0296 202.379C88.0119 202.348 88.0018 202.314 88.0002 202.279C87.9987 202.243 88.0057 202.208 88.0207 202.176C88.0409 202.137 88.0688 202.104 88.1027 202.078C88.1365 202.052 88.1754 202.034 88.2166 202.025C89.2333 202.059 90.236 201.873 91.22 202.288Z" fill="#16B1C2"/>
<path d="M84.3332 202.894C83.1743 202.894 82.0951 202.894 81.016 202.894C80.3914 202.953 79.802 203.194 79.3308 203.584C79.0437 203.788 78.7992 204.023 78.475 204.212C78.4431 204.232 78.4061 204.244 78.3679 204.246C78.3297 204.247 78.2918 204.239 78.2581 204.222C78.2243 204.205 78.1961 204.18 78.1762 204.149C78.1564 204.119 78.1458 204.084 78.1453 204.047C78.1932 203.514 78.2623 202.984 78.3633 202.46C78.4217 202.125 78.6929 202 79.049 202L85.8908 202.065C86.046 202.068 86.2008 202.083 86.3533 202.11C86.4162 202.122 86.4752 202.147 86.5259 202.184C86.5764 202.221 86.6171 202.268 86.6445 202.323C86.6719 202.377 86.6852 202.437 86.6837 202.497C86.682 202.558 86.6654 202.617 86.635 202.67C85.9922 203.723 85.2578 204.725 84.4395 205.665C83.2275 207.189 81.9835 208.661 80.7555 210.19C80.596 210.384 80.4631 210.588 80.3303 210.773C80.4206 211.138 80.7129 211.073 80.9522 211.073C81.941 211.073 82.9245 211.024 83.908 211.073C84.3487 211.109 84.7919 211.041 85.1976 210.875C85.6032 210.709 85.9584 210.452 86.231 210.125C86.3905 209.945 86.518 209.705 86.853 209.76C87.0262 210.108 87.0472 210.506 86.9115 210.868C86.8583 211.203 86.7999 211.533 86.7307 211.957H84.6043C82.7915 211.957 80.9735 211.957 79.1607 211.957C78.778 211.957 78.2729 212.156 78.0496 211.698C77.8689 211.338 78.2251 211.068 78.4217 210.799C78.8205 210.229 79.2245 209.66 79.6604 209.116C81.078 207.368 82.4957 205.626 83.9133 203.888C84.1684 203.61 84.3162 203.26 84.3332 202.894Z" fill="#16B1C2"/>
<path d="M45.7152 231.348C45.8219 231.418 45.9048 231.517 45.953 231.634C46.0013 231.749 46.0126 231.877 45.9858 232C45.8721 234.244 46.1589 233.985 43.9079 233.996C41.7434 233.996 39.579 233.996 37.4145 233.996C37.2252 233.604 37.6148 233.588 37.7663 233.467C37.9733 233.267 38.1301 233.023 38.224 232.753C38.3179 232.485 38.3464 232.197 38.3074 231.915C38.3074 229.386 38.3074 226.86 38.3074 224.33C38.3074 223.504 38.3074 222.678 38.3074 221.853C38.3074 221.138 38.1234 220.646 37.3171 220.535C37.2476 220.513 37.1841 220.476 37.1316 220.427C37.079 220.377 37.0389 220.317 37.0141 220.249C36.9384 220.011 37.1873 220.022 37.3117 220.017C38.7132 220.017 40.1146 219.979 41.6785 220.017C40.3744 220.868 40.304 220.963 40.2987 222.319C40.2987 225.003 40.2987 227.686 40.2987 230.37C40.2772 230.886 40.3637 231.402 40.553 231.884C40.683 232.224 40.9092 232.521 41.2053 232.74C41.5013 232.959 41.855 233.092 42.225 233.122C42.722 233.196 43.2298 233.153 43.7066 232.997C44.1835 232.842 44.616 232.578 44.9685 232.227C45.2229 231.978 45.4339 231.693 45.7152 231.348Z" fill="#16B1C2"/>
<path d="M127.041 211.996C127.736 211.085 127.75 211.085 127.755 210.189C127.755 208.228 127.755 206.261 127.755 204.299C127.755 203.534 127.918 202.694 127 202.332C127 202.332 127 202.111 127.047 202.09C127.17 202.03 127.303 201.999 127.438 202C129.028 202 130.622 202 132.212 202C132.725 202 132.837 202.176 132.716 202.739C132.673 202.981 132.61 203.218 132.529 203.449C132.454 203.63 132.258 203.811 132.119 203.594C131.582 202.754 130.804 202.845 130.03 202.89C129.961 202.882 129.89 202.891 129.824 202.916C129.758 202.941 129.698 202.983 129.649 203.036C129.6 203.09 129.563 203.155 129.54 203.226C129.517 203.297 129.509 203.374 129.518 203.449C129.518 204.234 129.518 205.018 129.518 205.802C129.518 206.145 129.737 206.306 130.053 206.341C130.879 206.454 131.715 206.277 132.441 205.838C132.55 206.224 132.585 206.63 132.541 207.03C132.499 207.431 132.381 207.818 132.193 208.168C131.963 207.792 131.642 207.491 131.265 207.298C130.888 207.105 130.469 207.026 130.053 207.07C129.986 207.059 129.917 207.063 129.852 207.083C129.786 207.103 129.726 207.138 129.674 207.186C129.623 207.234 129.582 207.294 129.553 207.36C129.526 207.427 129.512 207.501 129.513 207.574C129.513 208.459 129.513 209.339 129.513 210.225C129.517 210.421 129.576 210.612 129.685 210.771C129.792 210.931 129.941 211.05 130.114 211.115C130.457 211.314 130.849 211.392 131.235 211.337C131.622 211.283 131.983 211.1 132.268 210.813C132.403 210.687 132.506 210.516 132.64 210.39C132.673 210.362 132.712 210.341 132.753 210.331C132.795 210.322 132.838 210.323 132.878 210.335C132.914 210.357 132.944 210.388 132.965 210.426C132.987 210.465 132.998 210.507 133 210.552C132.97 210.795 132.921 211.036 132.855 211.271C132.692 211.87 132.575 211.991 131.998 211.996C130.403 212.005 128.813 211.996 127.041 211.996Z" fill="#16B1C2"/>
<path d="M92.8679 233C93.7053 231.995 93.7147 231.995 93.7194 231.126C93.7194 229.066 93.7194 227.012 93.7194 224.952C93.7194 224.806 93.7194 224.655 93.7194 224.51C93.7194 224.178 93.5681 223.937 93.2463 223.927C92.2386 223.891 91.1978 223.72 90.4078 224.645C90.3709 224.67 90.3292 224.686 90.2857 224.691C90.2422 224.696 90.1982 224.691 90.157 224.675C90.0956 224.642 90.0474 224.588 90.0213 224.52C89.9952 224.453 89.993 224.378 90.0151 224.308C90.3368 223.184 90.1002 222.937 91.5196 223.013C93.6343 223.133 95.7776 223.057 97.883 223.063C98.0672 223.063 98.2515 223.023 98.4358 223.023C98.8286 223.023 98.9989 223.218 98.9989 223.666C99.0129 224.107 98.8946 224.541 98.6629 224.906C97.6512 223.901 97.2445 223.766 95.9387 223.901C95.8698 223.901 95.8009 223.915 95.7376 223.943C95.6734 223.97 95.6157 224.012 95.5673 224.063C95.5189 224.116 95.4807 224.178 95.4547 224.245C95.4296 224.313 95.4165 224.386 95.4175 224.46C95.4109 224.605 95.4109 224.751 95.4175 224.896C95.4175 227.103 95.4175 229.309 95.4175 231.513C95.4175 231.905 95.4175 232.312 95.9238 232.427C96.1276 232.472 96.4496 232.467 96.3594 232.824C96.3072 233.025 96.0569 232.98 95.8865 232.98L92.8679 233Z" fill="#16B1C2"/>
<path d="M113.371 230.547C113.7 231.027 113.765 231.446 114.14 231.714C114.555 232.005 115.058 232.156 115.57 232.146C116.083 232.136 116.579 231.964 116.981 231.657C117.211 231.478 117.366 231.225 117.419 230.944C117.471 230.664 117.416 230.375 117.266 230.13C117.094 229.845 116.879 229.588 116.626 229.366C115.962 228.747 115.273 228.151 114.629 227.536C114.146 227.14 113.722 226.683 113.366 226.177C113.152 225.891 113.051 225.539 113.082 225.187C113.114 224.834 113.274 224.505 113.536 224.256C113.752 224.003 114.019 223.792 114.32 223.637C115.41 223.094 116.649 222.891 117.865 223.055C117.989 223.06 118.111 223.089 118.223 223.14C118.335 223.191 118.435 223.264 118.516 223.354C118.598 223.445 118.66 223.55 118.697 223.664C118.734 223.777 118.746 223.897 118.733 224.016C118.759 224.351 118.68 224.685 118.508 224.977C118.482 225.013 118.447 225.043 118.406 225.065C118.365 225.086 118.32 225.099 118.274 225.102C118.184 225.09 118.102 225.045 118.045 224.977C117.99 224.904 117.985 224.799 117.935 224.722C117.726 224.322 117.361 224.017 116.919 223.875C116.478 223.732 115.996 223.762 115.577 223.959C115.402 224.013 115.242 224.106 115.11 224.23C114.977 224.353 114.875 224.503 114.812 224.669C114.748 224.835 114.725 225.014 114.743 225.191C114.762 225.366 114.822 225.536 114.918 225.688C115.239 226.216 115.674 226.673 116.192 227.027C116.607 227.354 117.041 227.656 117.455 227.988C117.715 228.199 117.954 228.435 118.194 228.67C119.452 229.88 119.193 231.34 117.725 232.205C117.225 232.547 116.656 232.787 116.054 232.908C115.453 233.03 114.832 233.03 114.23 232.91C112.916 232.555 112.697 231.979 113.371 230.547Z" fill="#16B1C2"/>
<path d="M63.0729 223H63.3598C64.6609 223.092 65.022 223.683 64.5224 224.924C64.5011 224.966 64.4713 225.003 64.4347 225.033C64.3981 225.062 64.3554 225.085 64.3097 225.097C64.2635 225.096 64.2182 225.084 64.1772 225.063C64.1362 225.043 64.1003 225.013 64.0722 224.977C63.9634 224.829 63.8941 224.646 63.7803 224.496C63.5521 224.191 63.2275 223.966 62.856 223.858C62.4845 223.748 62.0864 223.759 61.7223 223.891C61.3983 223.996 61.1296 224.221 60.9734 224.516C60.8172 224.812 60.7859 225.155 60.8863 225.473C61.0202 225.927 61.3034 226.326 61.6926 226.608C62.217 227.018 62.7464 227.427 63.2807 227.825C63.793 228.178 64.2383 228.615 64.5966 229.115C64.897 229.491 65.0381 229.964 64.9912 230.438C64.9443 230.913 64.7128 231.352 64.3442 231.665C63.7946 232.226 63.0987 232.633 62.3305 232.842C61.5623 233.051 60.7503 233.053 59.9809 232.848C58.7837 232.55 58.8233 231.535 59.3526 230.737C59.3526 230.703 59.5406 230.707 59.595 230.737C59.6609 230.802 59.7041 230.886 59.7187 230.977C59.8919 231.829 60.5944 232.064 61.3166 232.185C61.651 232.23 61.9916 232.201 62.3129 232.1C62.6342 231.999 62.9279 231.829 63.1719 231.603C63.3389 231.463 63.4559 231.275 63.5057 231.067C63.5555 230.859 63.5357 230.64 63.4488 230.443C63.3224 230.087 63.1084 229.766 62.8255 229.51C62.2616 228.995 61.6827 228.504 61.1188 227.994C60.6427 227.599 60.1932 227.175 59.7732 226.723C58.7244 225.487 58.9766 224.353 60.4212 223.626C61.2589 223.263 62.1573 223.051 63.0729 223Z" fill="#16B1C2"/>
<path d="M84.3082 232.815C84.984 231.872 84.9889 231.872 84.9889 230.6C84.9889 228.646 84.9889 226.697 84.9889 224.742C84.9889 224.091 84.8796 223.595 84.1689 223.424C84.1143 223.424 84.0895 223.275 84 223.089C85.1268 222.961 86.2648 222.971 87.3892 223.119C87.4538 223.33 87.3892 223.48 87.2649 223.525C87.0753 223.572 86.91 223.69 86.8015 223.854C86.6931 224.018 86.6492 224.217 86.6785 224.412C86.6785 225.825 86.6785 227.238 86.6785 228.656C86.6785 229.337 86.6785 230.024 86.6785 230.705C86.6579 230.902 86.6802 231.102 86.7439 231.29C86.8077 231.478 86.9114 231.65 87.0477 231.792C87.184 231.935 87.3497 232.047 87.5331 232.119C87.7165 232.191 87.9133 232.221 88.1097 232.208C88.4943 232.271 88.888 232.236 89.2563 232.109C89.6246 231.981 89.9562 231.764 90.2218 231.477C90.3417 231.327 90.4884 231.202 90.6541 231.106C90.6852 231.088 90.7203 231.077 90.7564 231.076C90.7924 231.074 90.8283 231.082 90.8608 231.097C90.8932 231.113 90.9213 231.137 90.9425 231.167C90.9636 231.196 90.9772 231.231 90.9821 231.266C91.0455 231.8 90.9394 232.341 90.6789 232.81C90.5995 233 90.3559 233 90.182 233H87.8563C86.8624 233 85.8238 233 84.8101 233C84.6362 232.98 84.4274 233.02 84.3082 232.815Z" fill="#16B1C2"/>
<path d="M106.861 209.947C107.046 210.506 107.046 211.108 106.861 211.666C106.799 211.791 106.693 211.89 106.562 211.942C106.421 211.989 106.273 212.007 106.126 211.997H100.087C100.285 211.495 100.792 211.264 100.859 210.752C100.928 210.268 100.967 209.782 100.975 209.294C100.975 207.631 100.975 205.962 100.975 204.3C100.988 203.963 100.966 203.626 100.909 203.294C100.841 203.063 100.717 202.851 100.548 202.676C100.387 202.495 99.8484 202.596 100.041 202.174C100.163 201.907 100.548 202.028 100.853 202.023C101.447 202.023 102.041 202.023 102.635 202.023C102.781 202.003 102.932 202.016 103.074 202.061C103.217 202.105 103.346 202.179 103.456 202.279C103.603 202.495 103.375 202.526 103.279 202.546C103.056 202.585 102.858 202.708 102.725 202.889C102.592 203.069 102.534 203.294 102.563 203.516C102.563 204.3 102.563 205.084 102.563 205.862C102.563 207.038 102.624 208.219 102.563 209.38C102.472 210.832 103.802 211.766 105.303 211.163C105.888 210.848 106.414 210.437 106.861 209.947Z" fill="#16B1C2"/>
<path d="M93.2475 201.986C93.0944 201.929 92.9624 201.82 93.0098 201.659C93.0974 201.372 93.205 201.091 93.3319 200.818C93.7067 199.994 94.0922 199.174 94.4723 198.35C94.6624 197.939 94.9475 197.887 95.296 198.209C95.4098 198.31 95.5174 198.417 95.6179 198.53C96.1085 199.112 96.1459 199.423 95.6179 199.967C95.0319 200.601 94.409 201.197 93.7912 201.794C93.7294 201.875 93.645 201.935 93.5485 201.97C93.4519 202.003 93.3473 202.009 93.2475 201.986Z" fill="#16B1C2"/>
<path d="M29.4706 204C29.5835 204.057 29.7158 204.072 29.7859 204.164C30.2139 204.772 30.8405 205.169 31 206.075C30.6896 206.762 30.2796 207.361 29.7936 207.838C29.7524 207.891 29.7032 207.934 29.6491 207.961C29.595 207.99 29.5372 208.002 29.4792 208C29.4212 207.997 29.3643 207.977 29.3119 207.945C29.2596 207.912 29.2129 207.864 29.1749 207.806C28.8208 207.353 28.4705 206.894 28.132 206.416C28.0903 206.363 28.0571 206.3 28.0344 206.23C28.0117 206.161 28 206.085 28 206.009C28 205.933 28.0117 205.858 28.0344 205.788C28.0571 205.718 28.0903 205.654 28.132 205.602C28.4705 205.123 28.8208 204.664 29.1749 204.211C29.266 204.124 29.3655 204.053 29.4706 204Z" fill="#16B1C2"/>
<path d="M106 230C105.907 229.983 105.819 229.951 105.738 229.904C105.214 229.4 104.696 228.89 104.182 228.373C104.126 228.326 104.079 228.266 104.049 228.199C104.017 228.133 104 228.061 104 227.987C104 227.913 104.017 227.841 104.049 227.774C104.079 227.707 104.126 227.648 104.182 227.602C104.656 227.1 105.139 226.635 105.637 226.169C105.689 226.116 105.749 226.073 105.817 226.044C105.886 226.015 105.959 226 106.032 226C106.106 226 106.18 226.015 106.248 226.044C106.315 226.073 106.377 226.116 106.427 226.169C106.931 226.63 107.404 227.111 107.872 227.602C107.954 227.693 108 227.811 108 227.935C108 228.057 107.954 228.176 107.872 228.267C107.338 228.828 106.785 229.374 106.231 229.914C106.206 229.969 106.091 229.969 106 230Z" fill="#16B1C2"/>
<path d="M52.9473 205C53.0429 205.026 53.1637 205 53.2241 205.075C53.7876 205.616 54.3462 206.157 54.8896 206.714C54.9603 206.784 55 206.88 55 206.979C55 207.079 54.9603 207.174 54.8896 207.244C54.3462 207.806 53.7876 208.352 53.2241 208.889C53.1893 208.924 53.1478 208.952 53.1021 208.971C53.0563 208.99 53.0071 209 52.9574 209C52.9077 209 52.8584 208.99 52.8127 208.971C52.7668 208.952 52.7253 208.924 52.6907 208.889C52.1019 208.257 51.2667 207.841 51 206.939C51.3924 206.183 52.0919 205.712 52.6705 205.13C52.7544 205.071 52.8481 205.028 52.9473 205Z" fill="#16B1C2"/>
<path d="M52.466 230C52.3749 229.951 52.2891 229.885 52.2108 229.805C51.8355 229.335 51.4901 228.855 51.1336 228.375C51.0917 228.329 51.0581 228.27 51.035 228.204C51.012 228.138 51 228.066 51 227.992C51 227.919 51.012 227.848 51.035 227.782C51.0581 227.716 51.0917 227.657 51.1336 227.611C51.5089 227.11 51.8505 226.646 52.2183 226.18C52.2552 226.126 52.2999 226.082 52.3499 226.05C52.3998 226.02 52.4539 226.003 52.509 226C52.564 225.998 52.6188 226.011 52.6701 226.038C52.7214 226.064 52.7682 226.103 52.8076 226.155C53.1829 226.615 53.5357 227.095 53.8848 227.585C53.9191 227.627 53.9469 227.677 53.9666 227.734C53.9863 227.789 53.9976 227.85 53.9996 227.912C54.0017 227.974 53.9946 228.035 53.9788 228.094C53.963 228.152 53.9387 228.205 53.9073 228.25C53.5094 228.816 53.0966 229.356 52.6837 229.896C52.6168 229.948 52.5429 229.984 52.466 230Z" fill="#16B1C2"/>
</svg>
