
<svg width="200" height="200" viewBox="0 0 200 200" fill="none" xmlns="http://www.w3.org/2000/svg">
<g clip-path="url(#clip0_2762_12896)">
<rect width="200" height="200" rx="20" fill="url(#paint0_linear_2762_12896)"/>
<path d="M38.0589 68.841C40.5709 68.6058 43.083 68.3587 45.5951 68.1355C47.8292 67.9354 50.0649 67.7443 52.3022 67.5622C53.5876 67.4562 54.8731 67.3614 56.1636 67.2927C59.4607 67.1105 62.7528 66.959 66.05 66.7731C70.0144 66.5454 73.9836 66.4506 77.9529 66.3102C81.9222 66.1691 85.9013 66.211 89.8706 66.09C94.2275 65.9571 98.5844 66.0064 102.941 66.0213C107.73 66.0213 112.519 66.1468 117.302 66.2378C119.79 66.2834 122.277 66.367 124.765 66.4543C128.302 66.5753 131.84 66.6932 135.378 66.8567C139.725 67.0575 144.072 67.2777 148.414 67.5353C152.231 67.7667 156.044 68.0594 159.85 68.3363C162.044 68.4953 164.233 68.6738 166.426 68.8485C166.622 68.8865 166.814 68.9373 167 69H38L38.0589 68.841Z" fill="white" fill-opacity="0.8"/>
<path d="M131.789 41.6146C131.789 38.6297 131.789 35.6477 131.789 32.6694C131.801 32.3377 131.787 32.005 131.75 31.6761C131.624 30.7694 131.332 30.493 130.408 30.3338L129.149 30.0954C128.911 30.0659 128.694 29.9439 128.545 29.757C128.458 29.6464 128.415 29.5091 128.424 29.369C128.445 29.3051 128.479 29.246 128.524 29.1964C128.57 29.1459 128.624 29.1059 128.687 29.0782C128.867 29.021 129.056 28.9943 129.245 29.001H137.08C137.269 29.0001 137.458 29.0163 137.644 29.0496C137.739 29.0592 137.827 29.103 137.891 29.1745C137.955 29.2451 137.99 29.3366 137.99 29.4319C138.011 29.5282 137.999 29.6283 137.955 29.716C137.912 29.8037 137.841 29.8752 137.752 29.9162C137.449 30.043 137.124 30.1202 136.813 30.2318C136.42 30.3395 136.074 30.5759 135.831 30.9029C135.589 31.2299 135.464 31.6284 135.476 32.0345C135.476 32.412 135.476 32.7905 135.476 33.1728C135.476 38.092 135.476 43.0151 135.476 47.9381C135.513 49.9335 135.132 51.9136 134.357 53.7535C132.586 57.7947 129.493 60.1647 125.117 60.8578C122.81 61.2096 120.45 60.9055 118.309 59.9807C116.585 59.2848 115.031 58.2295 113.751 56.8843C112.472 55.5391 111.497 53.9356 110.892 52.1834C110.516 51.0603 110.341 49.8791 110.377 48.6941C110.377 43.5251 110.377 38.3676 110.377 33.2214C110.397 32.7486 110.372 32.2748 110.304 31.8067C110.153 30.9973 109.72 30.3528 108.791 30.4301C108.266 30.4348 107.747 30.3118 107.279 30.0716C107.183 30.0268 107.104 29.9505 107.055 29.8571C107.006 29.7627 106.989 29.655 107.007 29.5501C107.025 29.4462 107.078 29.3499 107.156 29.2775C107.234 29.206 107.334 29.1612 107.44 29.1507C108.001 29.0487 108.576 29.0487 109.137 29.1507C110.075 29.2889 111.029 29.2889 111.967 29.1507C113.576 29.0077 115.193 28.9838 116.806 29.0782C116.948 29.0773 117.09 29.0935 117.229 29.1268C117.458 29.185 117.715 29.2574 117.715 29.5387C117.715 29.8199 117.526 29.9553 117.302 30.023C117.078 30.0907 116.743 30.1155 116.465 30.1927C116.035 30.2537 115.643 30.4711 115.363 30.8028C115.084 31.1346 114.938 31.5579 114.953 31.9907C114.953 32.2719 114.953 32.5579 114.953 32.8382C114.953 38.7089 114.953 44.5767 114.953 50.4435C114.916 51.5122 115.105 52.5761 115.506 53.5686C115.907 54.56 116.512 55.4562 117.282 56.2007C119.296 58.1389 121.756 58.7986 124.49 58.464C125.865 58.3143 127.185 57.8376 128.336 57.073C129.403 56.3952 130.282 55.46 130.89 54.3532C131.497 53.2473 131.815 52.006 131.813 50.7438C131.876 47.716 131.813 44.6873 131.813 41.6585L131.789 41.6146Z" fill="white" fill-opacity="0.8"/>
<path d="M55.9634 31.7721C52.5937 31.7721 49.3396 31.7721 46.0999 31.7721C44.9105 31.8193 43.7833 32.3243 42.9469 33.1853C42.1912 33.8991 41.5028 34.6524 40.7519 35.4105C40.386 35.7818 40.0202 36.1531 39.6255 36.486C39.5577 36.5293 39.4805 36.5543 39.4006 36.5601C39.3209 36.5649 39.2411 36.5495 39.1685 36.5158C39.0959 36.4821 39.0327 36.4302 38.9848 36.3648C38.9368 36.3003 38.9055 36.2243 38.8937 36.1435C38.8577 35.6683 38.8577 35.1911 38.8937 34.7159C39.057 33.0093 39.332 31.3152 39.7169 29.6451C39.8613 29.0679 40.0442 28.9063 40.6123 29.0487C42.504 29.5374 44.4296 29.4643 46.3551 29.4643H60.4498C61.8939 29.4643 61.9806 29.6547 61.3259 30.8919C58.6015 35.8511 55.6275 40.664 52.4156 45.3125C49.8499 49.1365 47.2264 52.9162 44.6462 56.7306C44.3092 57.2193 43.8567 57.6743 43.7653 58.4131C44.6176 58.4737 45.4724 58.4882 46.3262 58.4564C49.2434 58.4564 52.1557 58.3881 55.068 58.4324C55.6782 58.4487 56.2854 58.3419 56.8541 58.1168C57.4229 57.8917 57.9416 57.5531 58.3799 57.1221C59.2408 56.3766 59.9928 55.5108 60.6135 54.5497C60.7506 54.3025 60.93 54.0822 61.143 53.8994C61.3007 53.8041 61.4875 53.7705 61.6677 53.8061C61.7621 53.8195 61.848 53.8696 61.908 53.9446C61.9678 54.0196 61.9973 54.1158 61.9902 54.212C62.0119 54.8325 61.9974 55.4521 61.9469 56.0706C61.841 57.0144 61.6677 57.9533 61.504 58.8874C61.4242 59.1337 61.3988 59.3954 61.4296 59.6532C61.4604 59.911 61.5466 60.1582 61.6822 60.3785C61.8651 60.6373 61.6436 60.9461 61.3163 60.9702C60.989 60.9952 60.5654 61 60.1899 61L39.327 60.9365H39.0526C37.8443 61.0048 37.7865 60.5007 38.3257 59.5666C40.3812 56.0312 42.4945 52.5352 44.7425 49.1268C48.1924 43.8944 51.6358 38.6572 55.0728 33.4152C55.4713 32.9313 55.7736 32.3734 55.9634 31.7721Z" fill="white" fill-opacity="0.8"/>
<path d="M84.3456 29.3167H90.4691C91.4645 29.3907 92.4651 29.3003 93.4311 29.0475C93.8932 28.886 94.1607 29.1503 94.1705 29.6291C94.1617 30.1059 94.0964 30.5798 93.9758 31.0413C93.7472 32.0622 93.5576 33.0937 93.3388 34.1194C93.2878 34.3492 93.2076 34.5713 93.1004 34.7799C93.0514 34.8626 92.9791 34.9289 92.8926 34.9712C92.806 35.0125 92.7091 35.0279 92.614 35.0144C92.5176 35.0096 92.4253 34.9741 92.3507 34.9116C92.2763 34.8501 92.2235 34.7664 92.2006 34.6722L91.9963 33.8416C91.8918 33.3225 91.6347 32.8476 91.2584 32.4775C90.882 32.1074 90.4038 31.8584 89.8855 31.7642C89.5677 31.6786 89.2415 31.6277 88.9126 31.6133C87.4876 31.6133 86.0626 31.6133 84.6374 31.6373C84.1024 31.6373 83.9614 31.7988 83.9516 32.3314C83.9516 33.5725 83.9516 34.8087 83.9516 36.0498C83.9516 38.058 83.9516 40.0614 83.9516 42.0648C83.9516 42.7099 84.0781 42.8329 84.6958 42.8377C86.4516 42.8377 88.2074 42.8377 89.9633 42.8377C90.5333 42.7849 91.0871 42.6186 91.5926 42.3484C92.0304 42.1677 92.4632 41.9678 92.9108 41.8159C92.9888 41.7938 93.0708 41.7899 93.1508 41.8034C93.2308 41.8178 93.3068 41.8485 93.3733 41.8956C93.4398 41.9418 93.4951 42.0033 93.5354 42.0735C93.5757 42.1446 93.5999 42.2235 93.6062 42.3052C93.625 42.6868 93.607 43.0694 93.5527 43.4482C93.2938 44.8527 93.1119 46.2697 93.008 47.6944C92.9929 47.8367 92.9602 47.9761 92.9108 48.1097C92.8813 48.1741 92.839 48.2327 92.7864 48.2798C92.7337 48.3269 92.672 48.3635 92.6049 48.3856C92.538 48.4077 92.467 48.4163 92.3966 48.4106C92.3262 48.4039 92.2578 48.3837 92.1957 48.349C91.948 48.2029 91.7535 47.9799 91.6412 47.7146C91.4878 47.3647 91.3579 47.0061 91.2521 46.6388C91.1726 46.2851 90.9758 45.9688 90.6938 45.7429C90.4118 45.516 90.0616 45.393 89.7006 45.393C88.5625 45.3199 87.4438 45.0171 86.2959 45.1094C85.5567 45.1728 84.7833 44.9142 84.0733 45.3055C83.8008 45.9986 83.9516 46.7177 83.9468 47.4262C83.9468 50.0939 83.9808 52.7721 83.9225 55.4398C83.8871 55.9416 83.9974 56.4434 84.2399 56.8847C84.4825 57.325 84.847 57.6855 85.2891 57.922C86.1146 58.444 87.0415 58.7824 88.0077 58.916C88.974 59.0486 89.9574 58.9737 90.8923 58.6939C91.5129 58.5141 92.0842 58.194 92.5624 57.7576C93.0404 57.3221 93.4125 56.7809 93.65 56.1772C93.8007 55.8311 93.9175 55.4639 94.0829 55.1274C94.1273 55.0409 94.1997 54.9726 94.2882 54.9332C94.3768 54.8938 94.4759 54.8871 94.5693 54.9121C94.8173 54.9755 95.0265 55.1418 94.9973 55.4004C94.934 55.9676 94.8027 56.5242 94.7249 57.0866C94.6081 57.8883 94.5206 58.6939 94.4038 59.4957C94.2482 60.5704 94.0197 60.805 92.9447 60.8444C91.8698 60.8829 90.8533 60.8444 89.8125 60.8444C87.7211 60.8098 85.6393 60.9665 83.5528 60.9953C81.5684 61.0299 79.5742 60.8636 77.585 60.7762C77.3509 60.7646 77.1198 60.7185 76.8992 60.6387C76.8357 60.6118 76.7786 60.5723 76.7317 60.5214C76.6847 60.4714 76.6489 60.4108 76.6268 60.3455C76.5733 60.1263 76.7387 60.0042 76.9283 59.9456C77.1181 59.8869 77.3855 59.8129 77.6141 59.7543C78.689 59.4957 79.1657 58.7083 79.3311 57.7018C79.3968 57.1817 79.4212 56.6578 79.404 56.1339C79.404 48.4452 79.404 40.7622 79.404 33.0841V32.7957C79.3699 31.3297 79.1997 31.0999 77.799 30.699C77.2848 30.5702 76.7928 30.3645 76.3399 30.0886C76.1405 29.9617 75.9362 29.8194 76.0188 29.5262C76.1015 29.233 76.3009 29.2917 76.4809 29.282C76.8554 29.282 77.2397 29.282 77.619 29.282L84.3456 29.3167Z" fill="white" fill-opacity="0.8"/>
<path d="M167.045 31.1459C167.045 31.8076 167.045 32.4751 167.045 33.1415C167.018 33.762 166.8 34.3605 166.421 34.8546C166.367 34.9312 166.292 34.9916 166.206 35.0299C166.119 35.0672 166.025 35.0806 165.931 35.0691C165.812 35.0615 165.699 35.0136 165.61 34.9341C165.52 34.8546 165.461 34.7483 165.44 34.6315C165.392 34.3979 165.387 34.1441 165.352 33.9248C165.221 32.9519 164.755 32.0537 164.032 31.3815C163.31 30.7102 162.376 30.3071 161.389 30.241C160.291 30.0735 159.168 30.2439 158.171 30.7275C157.255 31.2608 156.546 32.0834 156.157 33.064C155.769 34.0445 155.723 35.1256 156.027 36.1349C156.375 37.1768 156.957 38.1257 157.729 38.91C158.683 39.9106 159.701 40.85 160.775 41.7233C162.271 42.9127 163.699 44.1833 165.053 45.5297C165.653 46.1445 166.193 46.8157 166.662 47.5349C167.604 48.9262 168.07 50.5819 167.992 52.2557C167.937 53.447 167.57 54.6028 166.927 55.6101C165.617 57.5626 163.733 59.0679 161.531 59.9221C160.125 60.533 158.619 60.8902 157.087 60.9783C155.693 61.0836 154.298 60.804 153.055 60.1701C152.35 59.8493 151.773 59.3083 151.411 58.6284C151.048 57.9495 150.92 57.171 151.049 56.4126C151.19 55.3813 151.485 54.3729 151.715 53.356C151.727 53.3091 151.743 53.2631 151.765 53.22C151.921 52.7968 152.172 52.5823 152.456 52.6359C152.537 52.657 152.613 52.6953 152.679 52.747C152.744 52.7987 152.798 52.8638 152.837 52.9375C152.876 53.0103 152.9 53.0917 152.906 53.175C152.912 53.2574 152.901 53.3407 152.874 53.4192C152.623 54.485 153.03 55.3659 153.55 56.2469C153.92 56.8109 154.425 57.2744 155.022 57.5952C156.213 58.3191 157.614 58.6322 159.003 58.4867C160.393 58.3402 161.696 57.7436 162.708 56.7879C164.151 55.3276 164.557 53.7362 163.631 51.7205C162.928 50.3099 161.978 49.0335 160.824 47.9533C159.176 46.3034 157.469 44.7014 155.787 43.086C154.758 42.0901 153.834 40.9927 153.03 39.8101C152.113 38.5815 151.584 37.1116 151.509 35.5853C151.485 34.7033 151.67 33.8291 152.048 33.0305C152.427 32.2328 152.987 31.5338 153.687 30.9899C155.353 29.6119 157.357 28.6965 159.495 28.3374C161.512 27.9007 163.6 27.8883 165.622 28.2981C167.319 28.6735 167.128 28.6055 167.142 30.129V31.1459H167.045Z" fill="white" fill-opacity="0.8"/>
<path d="M137 85.6662C138.031 84.7744 138.041 84.7744 138.041 83.6487C138.041 80.7988 138.041 77.9508 138.041 75.1046C138.041 73.9158 138.041 73.9158 137.05 73.2163C137.109 72.958 137.342 73.0343 137.5 73.0343C139.43 73.0343 141.364 72.9957 143.293 73.0004C145.748 73.0004 147.623 74.1553 149.135 75.9144C149.718 76.5546 150.027 77.3861 149.998 78.2383C149.968 78.9331 149.998 79.6373 149.953 80.3321C149.912 81.3908 149.56 82.4156 148.937 83.2867C148.314 84.1569 147.447 84.8385 146.437 85.2495C145.517 85.6662 144.521 85.9057 143.506 85.9538C142.108 86.048 140.703 85.9981 139.316 85.8048C138.547 85.7199 137.774 85.6738 137 85.6662ZM140.03 79.1198C140.03 80.3849 140.03 81.6454 140.03 82.9106C140.03 83.2848 140.03 83.6582 140.074 84.0324C140.083 84.22 140.153 84.4001 140.274 84.5472C140.395 84.6942 140.562 84.8008 140.749 84.8517C141.204 85.0157 141.682 85.109 142.168 85.1298C143.136 85.1288 144.098 84.9667 145.009 84.6499C145.659 84.4529 146.249 84.1079 146.733 83.6459C147.217 83.183 147.58 82.6155 147.791 81.9904C148.087 81.2457 148.221 80.449 148.183 79.6524C148.004 76.9015 146.591 74.8604 143.749 74.0742C142.803 73.879 141.832 73.8197 140.868 73.897C140.204 73.897 140.045 74.0789 140.035 74.769C140.021 76.2208 140.03 77.6727 140.03 79.1198Z" fill="white" fill-opacity="0.8"/>
<path d="M54.3453 86.9895C53.669 87.0686 52.6844 86.6917 51.7545 86.1301C50.5926 85.4201 49.6066 84.4561 48.8704 83.3105C47.3787 81.032 47.9256 77.2886 49.5914 75.4222C49.89 75.1048 50.2236 74.8216 50.586 74.5784C51.987 73.5988 53.6451 73.0519 55.3546 73.005C56.2334 72.9679 57.1086 73.1359 57.9107 73.4963C58.7128 73.8557 59.4194 74.3987 59.9742 75.0804C60.8448 76.0316 61.4634 77.1851 61.7734 78.4361C62.0835 79.6872 62.0752 80.9959 61.7494 82.2431C61.5235 83.1406 61.0538 83.959 60.3919 84.6065C58.8454 86.1653 56.9757 86.9348 54.3453 86.9895ZM55.0514 86.0705C57.2591 86.0705 58.7161 85.1427 59.5266 83.3701C60.1105 82.163 60.3338 80.8123 60.1698 79.4811C60.0058 78.151 59.4615 76.895 58.6018 75.8647C58.1045 75.2328 57.4549 74.7376 56.7139 74.4251C55.9729 74.1116 55.1645 73.9924 54.3643 74.0754C53.5642 74.1594 52.7983 74.4446 52.1385 74.9036C51.4786 75.3636 50.9461 75.9828 50.5909 76.7036C50.116 77.8648 49.9185 79.1208 50.0141 80.3718C50.0287 81.492 50.3652 82.5849 50.9838 83.5195C51.9981 84.9991 53.2661 86.1359 55.0662 86.0705H55.0514Z" fill="white" fill-opacity="0.8"/>
<path d="M98.974 85.8811C99.132 85.2602 99.0529 84.6055 98.7511 84.0354L97.8251 81.6837C97.7789 81.4767 97.6563 81.2942 97.4802 81.1691C97.3043 81.044 97.0869 80.9857 96.8693 81.0045C96.1909 81.0421 95.5125 81.0327 94.839 81.0045C94.5969 80.98 94.354 81.0421 94.1567 81.1804C93.9594 81.3177 93.8216 81.5209 93.7694 81.7505C93.4392 82.726 93.1238 83.7043 92.8235 84.6864C92.7912 84.7617 92.7749 84.8435 92.7754 84.9253C92.7758 85.0072 92.7932 85.089 92.8264 85.1643C92.8595 85.2396 92.9079 85.3082 92.9685 85.3656C93.0292 85.423 93.1011 85.4681 93.1801 85.4992C93.3137 85.5707 93.4177 85.6572 93.3534 85.819C93.289 85.9818 93.1305 85.9724 92.9918 85.9724H90.3821C90.2434 85.9724 90.0751 85.9724 90.0157 85.819C89.9562 85.6666 90.0751 85.5848 90.2187 85.5321C90.5324 85.4013 90.812 85.2047 91.0372 84.9573C91.2626 84.709 91.4278 84.4155 91.521 84.0975C91.8232 83.3619 92.0906 82.6112 92.3678 81.8652L95.3986 73.8457C95.4759 73.6246 95.5772 73.4111 95.7006 73.2098C95.7359 73.1533 95.7841 73.1044 95.8416 73.0677C95.899 73.032 95.9642 73.0085 96.0324 73C96.1014 73.0179 96.1655 73.0508 96.2202 73.095C96.275 73.1402 96.319 73.1957 96.3493 73.2577C96.5178 73.5926 96.6614 73.9369 96.805 74.2859C98.0958 77.4034 99.3866 80.521 100.677 83.6394C101.059 84.5952 101.415 85.5039 103 85.518C101.876 86.0439 100.811 86.0965 98.974 85.8811ZM94.5171 80.0384C95.1045 80.1315 95.7013 80.1569 96.2949 80.1146C97.013 80.1146 97.1763 79.9001 96.9683 79.283C96.7109 78.537 96.4385 77.7976 96.1513 77.0639C96.0621 76.839 96.0671 76.5192 95.6561 76.442C95.1609 77.6076 94.7731 78.8126 94.4973 80.0431L94.5171 80.0384Z" fill="white" fill-opacity="0.8"/>
<path d="M99.3746 107.934C98.2511 108.022 97.1234 108.022 96 107.934C97.1913 106.964 97.3005 106.778 97.8321 105.178C98.9806 101.705 100.132 98.2189 101.287 94.7182C101.382 94.4323 101.444 94.0459 101.729 94.0049C102.132 93.9475 102.203 94.4056 102.341 94.713C103.034 96.5987 103.694 98.4945 104.377 100.38C105.06 102.267 105.754 104.027 106.404 105.891C106.502 106.285 106.686 106.646 106.94 106.944C107.194 107.241 107.51 107.467 107.861 107.601C107.885 107.603 107.908 107.612 107.928 107.626C107.948 107.641 107.965 107.66 107.978 107.683C107.99 107.705 107.998 107.731 107.999 107.758C108.001 107.784 107.998 107.81 107.989 107.834C107.932 107.877 107.87 107.965 107.804 107.965H104.586C104.69 107.496 104.885 107.137 104.681 106.647C104.239 105.606 103.898 104.475 103.527 103.381C103.481 103.182 103.373 103.008 103.221 102.888C103.069 102.767 102.884 102.71 102.697 102.725C101.957 102.725 101.216 102.725 100.476 102.725C100.312 102.714 100.15 102.766 100.018 102.872C99.8864 102.979 99.793 103.134 99.7542 103.308C99.4362 104.313 99.1087 105.319 98.8335 106.345C98.6389 107.089 98.7148 107.251 99.3746 107.934ZM101.714 101.755C101.942 101.755 102.189 101.755 102.403 101.755C102.768 101.755 102.877 101.558 102.773 101.167C102.456 100.125 102.14 99.0838 101.824 98.0416C101.781 97.9114 101.729 97.7136 101.553 97.8069C101.442 97.8827 101.36 97.9996 101.321 98.1359C101.078 98.9485 100.846 99.7663 100.623 100.579C100.319 101.652 100.4 101.772 101.453 101.792L101.714 101.755Z" fill="white" fill-opacity="0.8"/>
<path d="M73 85.5539C72.2688 86.1541 71.5744 86.0417 70.8938 85.8324C70.2419 85.6279 69.6622 85.2217 69.2289 84.6657C68.7277 84.0559 68.2541 83.4212 67.7574 82.8105C67.5757 82.5666 67.3465 82.3659 67.0855 82.2238C66.8244 82.0817 66.5376 82 66.2444 81.9856C65.6604 81.9856 65.504 82.074 65.4811 82.6645C65.4811 83.0448 65.4811 83.4308 65.4811 83.8063C65.4213 84.5831 65.5822 85.2121 66.3502 85.5049C66.3502 85.5049 66.3502 85.5933 66.3502 85.6903C65.3245 85.7709 64.2947 85.7709 63.269 85.6903C63.853 84.8366 63.853 84.8366 63.8576 83.7679C63.8576 81.6688 63.8576 79.5716 63.8576 77.4763C63.8576 77.1441 63.8898 76.7974 63.5265 76.6169C63.3196 76.5094 62.8919 76.5871 63.0253 76.1579C63.0896 75.938 63.4161 76.012 63.6323 76.012C64.5521 76.012 65.4304 76.0552 66.3271 76.0408C66.9505 76.0475 67.5698 76.1473 68.1667 76.3384C69.6245 76.7734 70.1625 78.1101 69.5463 79.5994C69.3134 80.1189 69.0029 80.5952 68.6266 81.01C68.5745 81.0552 68.5326 81.1128 68.5038 81.1781C68.475 81.2434 68.4601 81.3135 68.4601 81.3855C68.4601 81.4575 68.475 81.5286 68.5038 81.5929C68.5326 81.6582 68.5745 81.7158 68.6266 81.7619C69.0865 82.3035 69.4911 82.8547 69.9326 83.401C70.7263 84.4324 71.7958 85.1823 73 85.5539ZM65.4902 78.8869C65.4902 79.4525 65.4902 80.0239 65.4902 80.5904C65.4854 80.6845 65.5097 80.7777 65.5595 80.8564C65.6093 80.9351 65.6819 80.9937 65.7661 81.0244C66.1474 81.1694 66.5619 81.1838 66.9513 81.0657C67.3407 80.9476 67.6853 80.7028 67.9367 80.3657C68.207 79.8683 68.2954 79.2826 68.1851 78.7208C68.1755 78.4375 68.1092 78.1591 67.9906 77.9046C67.872 77.6501 67.7039 77.4264 67.4973 77.2459C67.2908 77.0663 67.0505 76.9347 66.7924 76.8608C66.5344 76.7869 66.2645 76.7715 66.0006 76.8166C65.9329 76.809 65.8644 76.8176 65.8001 76.8416C65.7357 76.8656 65.6773 76.905 65.6289 76.9559C65.5805 77.0068 65.5433 77.0682 65.5201 77.1364C65.497 77.2046 65.4883 77.2766 65.4948 77.3486C65.481 77.8422 65.4902 78.3645 65.4902 78.8869Z" fill="white" fill-opacity="0.8"/>
<path d="M130.533 97.0007C131.242 96.9894 131.947 97.1203 132.607 97.388C133.266 97.6556 133.867 98.0532 134.376 98.5593C134.884 99.0653 135.289 99.6684 135.567 100.335C135.846 101.002 135.993 101.718 136 102.443C136.006 103.053 135.871 103.658 135.605 104.206C135.339 104.753 134.951 105.229 134.471 105.595C133.47 106.421 132.24 106.909 130.955 106.988C129.669 107.068 128.391 106.737 127.299 106.039C126.366 105.475 125.654 104.599 125.283 103.558C124.913 102.519 124.905 101.38 125.264 100.335C125.552 99.5412 126.053 98.8457 126.707 98.3274C127.819 97.4944 129.155 97.0308 130.533 97.0007ZM134.388 102.318C134.401 102.085 134.401 101.852 134.388 101.619C134.055 98.8024 131.532 97.0581 128.761 98.1267C128.33 98.2916 127.938 98.5479 127.61 98.8778C127.282 99.2076 127.026 99.6052 126.858 100.042C126.009 102.15 126.909 104.89 128.982 105.891C130.857 106.791 133.436 106.126 134.199 103.846C134.347 103.351 134.411 102.835 134.388 102.318Z" fill="white" fill-opacity="0.8"/>
<path d="M78.4171 86C76.5457 85.8001 74.9269 85.0573 73.818 83.2131C73.2069 82.2745 72.9226 81.1186 73.0181 79.9616C73.1138 78.8046 73.5827 77.7269 74.3373 76.9295C75.2418 75.9044 76.4248 75.2461 77.7004 75.0565C78.9758 74.8669 80.2716 75.1575 81.3835 75.8817C82.1906 76.3732 82.8614 77.1036 83.3228 77.9928C83.784 78.8829 84.018 79.8967 83.9989 80.9249C84.0105 81.6451 83.8618 82.358 83.5661 82.9978C83.2704 83.6376 82.8371 84.1847 82.3052 84.5906C81.1592 85.4735 79.808 85.9639 78.4171 86ZM74.6087 80.1398C74.6087 83.2399 76.5129 85.2974 79.1938 85.0882C79.9034 85.0316 80.5804 84.7338 81.1341 84.2331C81.6878 83.7334 82.0915 83.0565 82.2911 82.2921C82.4963 81.5585 82.5511 80.7817 82.4515 80.0214C82.3519 79.261 82.1004 78.5347 81.7157 77.898C81.2532 77.0995 80.5737 76.4896 79.7776 76.1568C78.9815 75.824 78.1109 75.7859 77.2943 76.0497C76.4908 76.2733 75.7826 76.8049 75.2923 77.5518C74.8019 78.2988 74.5601 79.2147 74.6087 80.1398Z" fill="white" fill-opacity="0.8"/>
<path d="M77.5963 97C78.9516 96.9972 80.2584 97.5167 81.2573 98.4551C82.2562 99.3936 82.8743 100.682 82.9888 102.066C83.0428 102.794 82.9005 103.523 82.5774 104.174C82.2544 104.825 81.7631 105.373 81.1572 105.757C79.1764 107.137 77.0464 107.428 74.8465 106.325C73.6838 105.754 72.776 104.753 72.3064 103.522C71.9506 102.607 71.9033 101.596 72.1718 100.65C72.4402 99.7036 73.0092 98.876 73.7885 98.2983C74.8876 97.4556 76.2234 97 77.5963 97ZM81.4369 102.334H81.3996C81.416 102.102 81.416 101.869 81.3996 101.636C80.8403 97.8643 77.3493 97.0047 75.0796 98.5134C74.703 98.7727 74.3851 99.1108 74.1474 99.5063C72.586 102.042 74.3292 105.442 76.4778 106.048C78.7383 106.683 80.803 105.571 81.3203 103.302C81.3757 102.982 81.4146 102.658 81.4369 102.334Z" fill="white" fill-opacity="0.8"/>
<path d="M116.22 76.2882C115.609 76.9913 115.6 76.9913 115.59 77.753C115.59 79.2763 115.553 80.7996 115.562 82.323C115.562 83.7435 116.201 84.656 117.363 85.0277C117.975 85.2256 118.631 85.2217 119.241 85.0152C119.851 84.8097 120.386 84.4111 120.772 83.8751C120.977 83.5572 121.079 83.1797 121.066 82.7965C121.066 81.034 121.066 79.2763 121.066 77.5138C121.083 77.3957 121.077 77.2756 121.049 77.1604C121.021 77.0441 120.971 76.9356 120.903 76.8405C120.834 76.7454 120.748 76.6657 120.649 76.6062C120.551 76.5466 120.442 76.5082 120.329 76.4928C120.208 76.464 120.073 76.3756 120.133 76.1903C120.158 76.125 120.203 76.0712 120.262 76.0376C120.321 76.0039 120.389 75.9924 120.454 76.0049C121.224 76.0299 121.994 76.0587 122.787 76.0981C122.973 76.0981 123.08 76.4102 122.926 76.4928C122.46 76.7618 122.4 77.2065 122.404 77.704C122.404 78.9882 122.353 80.2771 122.404 81.5613C122.492 82.5698 122.213 83.5754 121.623 84.3784C121.034 85.1804 120.177 85.7212 119.224 85.8912C118.282 86.1102 117.298 85.9968 116.425 85.5675C115.553 85.1382 114.841 84.4168 114.401 83.5188C114.093 82.9329 113.933 82.274 113.935 81.6045C113.963 80.2723 113.935 78.9392 113.935 77.606C113.935 77.0259 113.86 76.5668 113.198 76.4784C113.164 76.4784 113.131 76.4688 113.101 76.4515C113.072 76.4333 113.047 76.4083 113.03 76.3785C113.012 76.3478 113.002 76.3142 113 76.2786C112.999 76.2431 113.006 76.2076 113.021 76.1759C113.041 76.1374 113.069 76.1038 113.103 76.0779C113.136 76.052 113.175 76.0337 113.217 76.0251C114.233 76.0587 115.236 75.8733 116.22 76.2882Z" fill="white" fill-opacity="0.8"/>
<path d="M109.333 76.8939C108.174 76.8939 107.095 76.8939 106.016 76.8939C105.391 76.9529 104.802 77.1935 104.331 77.5835C104.044 77.7878 103.799 78.0226 103.475 78.2122C103.443 78.2318 103.406 78.2436 103.368 78.2456C103.33 78.2466 103.292 78.2387 103.258 78.222C103.224 78.2053 103.196 78.1798 103.176 78.1493C103.156 78.1189 103.146 78.0835 103.145 78.0472C103.193 77.5138 103.262 76.9843 103.363 76.4597C103.422 76.1248 103.693 76 104.049 76L110.891 76.0648C111.046 76.0678 111.201 76.0825 111.353 76.11C111.416 76.1218 111.475 76.1473 111.526 76.1837C111.576 76.221 111.617 76.2682 111.644 76.3232C111.672 76.3772 111.685 76.4371 111.684 76.4971C111.682 76.558 111.665 76.6169 111.635 76.6699C110.992 77.723 110.258 78.725 109.44 79.6651C108.228 81.1887 106.984 82.6612 105.756 84.1897C105.596 84.3842 105.463 84.5885 105.33 84.7732C105.421 85.1376 105.713 85.0728 105.952 85.0728C106.941 85.0728 107.924 85.0237 108.908 85.0728C109.349 85.1091 109.792 85.0413 110.198 84.8753C110.603 84.7093 110.958 84.4519 111.231 84.1248C111.391 83.9451 111.518 83.7054 111.853 83.7604C112.026 84.1081 112.047 84.506 111.911 84.8685C111.858 85.2034 111.8 85.5325 111.731 85.9569H109.604C107.792 85.9569 105.973 85.9569 104.161 85.9569C103.778 85.9569 103.273 86.1563 103.05 85.6975C102.869 85.338 103.225 85.0679 103.422 84.7987C103.821 84.229 104.225 83.6602 104.66 83.116C106.078 81.3684 107.496 79.6258 108.913 77.888C109.168 77.61 109.316 77.2603 109.333 76.8939Z" fill="white" fill-opacity="0.8"/>
<path d="M70.7152 105.348C70.8219 105.418 70.9048 105.517 70.953 105.634C71.0013 105.749 71.0126 105.877 70.9858 106C70.8721 108.244 71.1589 107.985 68.9079 107.996C66.7434 107.996 64.579 107.996 62.4145 107.996C62.2252 107.604 62.6148 107.588 62.7663 107.467C62.9733 107.267 63.1301 107.023 63.224 106.753C63.3179 106.485 63.3464 106.197 63.3074 105.915C63.3074 103.386 63.3074 100.86 63.3074 98.3299C63.3074 97.5041 63.3074 96.6783 63.3074 95.8525C63.3074 95.1382 63.1234 94.6456 62.3171 94.5352C62.2476 94.5134 62.1841 94.4759 62.1316 94.4269C62.079 94.377 62.0389 94.3166 62.0141 94.2489C61.9384 94.0114 62.1873 94.0219 62.3117 94.0167C63.7132 94.0167 65.1146 93.9792 66.6785 94.0167C65.3744 94.8685 65.304 94.9632 65.2987 96.3191C65.2987 99.0026 65.2987 101.686 65.2987 104.37C65.2772 104.886 65.3637 105.402 65.553 105.884C65.683 106.224 65.9092 106.521 66.2053 106.74C66.5013 106.959 66.855 107.092 67.225 107.122C67.722 107.196 68.2298 107.153 68.7066 106.997C69.1835 106.842 69.616 106.578 69.9685 106.227C70.2229 105.978 70.4339 105.693 70.7152 105.348Z" fill="white" fill-opacity="0.8"/>
<path d="M152.041 85.9956C152.736 85.0851 152.75 85.0851 152.755 84.1895C152.755 82.228 152.755 80.2605 152.755 78.299C152.755 77.534 152.918 76.6938 152 76.3316C152 76.3316 152 76.1109 152.047 76.0901C152.17 76.0297 152.303 75.999 152.438 76C154.028 76 155.622 76 157.212 76C157.725 76 157.837 76.1762 157.716 76.7393C157.673 76.9808 157.61 77.2183 157.529 77.4489C157.454 77.63 157.258 77.8111 157.119 77.5944C156.582 76.7541 155.804 76.8452 155.03 76.8897C154.961 76.8818 154.89 76.8907 154.824 76.9164C154.758 76.9412 154.698 76.9828 154.649 77.0362C154.6 77.0896 154.563 77.155 154.54 77.2262C154.517 77.2975 154.509 77.3737 154.518 77.4489C154.518 78.2337 154.518 79.0185 154.518 79.8023C154.518 80.1447 154.737 80.306 155.053 80.3407C155.879 80.4545 156.715 80.2773 157.441 79.8379C157.55 80.2239 157.585 80.6297 157.541 81.0305C157.499 81.4313 157.381 81.8182 157.193 82.1676C156.963 81.7915 156.642 81.4907 156.265 81.2977C155.888 81.1047 155.469 81.0255 155.053 81.07C154.986 81.0592 154.917 81.0631 154.852 81.0829C154.786 81.1027 154.726 81.1383 154.674 81.1858C154.623 81.2343 154.582 81.2937 154.553 81.36C154.526 81.4273 154.512 81.5006 154.513 81.5738C154.513 82.4585 154.513 83.3393 154.513 84.2251C154.517 84.421 154.576 84.6121 154.685 84.7714C154.792 84.9307 154.941 85.0505 155.114 85.1148C155.457 85.3137 155.849 85.3919 156.235 85.3375C156.622 85.2831 156.983 85.1 157.268 84.813C157.403 84.6873 157.506 84.5161 157.64 84.3904C157.673 84.3617 157.712 84.3409 157.753 84.331C157.795 84.3221 157.838 84.3231 157.878 84.335C157.914 84.3567 157.944 84.3884 157.965 84.426C157.987 84.4646 157.998 84.5072 158 84.5517C157.97 84.7951 157.921 85.0356 157.855 85.2712C157.692 85.8699 157.575 85.9907 156.998 85.9956C155.403 86.0055 153.813 85.9956 152.041 85.9956Z" fill="white" fill-opacity="0.8"/>
<path d="M117.868 107C118.705 105.995 118.715 105.995 118.719 105.126C118.719 103.066 118.719 101.012 118.719 98.9518C118.719 98.8055 118.719 98.6553 118.719 98.51C118.719 98.1779 118.568 97.9368 118.246 97.9269C117.239 97.8913 116.198 97.7203 115.408 98.6454C115.371 98.6701 115.329 98.6859 115.286 98.6909C115.242 98.6958 115.198 98.6909 115.157 98.6751C115.096 98.6424 115.047 98.5881 115.021 98.5199C114.995 98.4527 114.993 98.3776 115.015 98.3084C115.337 97.1836 115.1 96.9365 116.52 97.0127C118.634 97.1332 120.778 97.0571 122.883 97.0631C123.067 97.0631 123.252 97.0225 123.436 97.0225C123.829 97.0225 123.999 97.2182 123.999 97.666C124.013 98.1068 123.895 98.5407 123.663 98.9063C122.651 97.9012 122.244 97.7658 120.939 97.9012C120.87 97.9012 120.801 97.915 120.738 97.9427C120.673 97.9704 120.616 98.0119 120.567 98.0633C120.519 98.1156 120.481 98.1779 120.455 98.2451C120.43 98.3133 120.417 98.3865 120.417 98.4596C120.411 98.6049 120.411 98.7512 120.417 98.8965C120.417 101.103 120.417 103.309 120.417 105.513C120.417 105.905 120.417 106.312 120.924 106.427C121.128 106.472 121.45 106.467 121.359 106.824C121.307 107.025 121.057 106.98 120.887 106.98L117.868 107Z" fill="white" fill-opacity="0.8"/>
<path d="M138.371 104.547C138.7 105.027 138.765 105.446 139.14 105.714C139.555 106.005 140.058 106.156 140.57 106.146C141.083 106.136 141.579 105.964 141.981 105.657C142.211 105.478 142.366 105.225 142.419 104.944C142.471 104.664 142.416 104.375 142.266 104.13C142.094 103.845 141.879 103.588 141.626 103.366C140.962 102.747 140.273 102.151 139.629 101.536C139.146 101.14 138.722 100.683 138.366 100.177C138.152 99.8907 138.051 99.5392 138.082 99.1868C138.114 98.8344 138.274 98.5047 138.536 98.2562C138.752 98.003 139.019 97.7924 139.32 97.6374C140.41 97.0942 141.649 96.8911 142.865 97.0555C142.989 97.0602 143.111 97.0885 143.223 97.1395C143.335 97.1906 143.435 97.2643 143.516 97.354C143.598 97.4447 143.66 97.5496 143.697 97.6639C143.734 97.7773 143.746 97.8972 143.733 98.0163C143.759 98.3507 143.68 98.6852 143.508 98.9771C143.482 99.013 143.447 99.0432 143.406 99.065C143.365 99.0857 143.32 99.099 143.274 99.1018C143.184 99.0895 143.102 99.0451 143.045 98.9771C142.99 98.9044 142.985 98.7995 142.935 98.722C142.726 98.3224 142.361 98.0172 141.919 97.8746C141.478 97.7319 140.996 97.7621 140.577 97.9587C140.402 98.0135 140.242 98.106 140.11 98.2298C139.977 98.3526 139.875 98.5028 139.812 98.6691C139.748 98.8354 139.725 99.014 139.743 99.1906C139.762 99.3664 139.822 99.5364 139.918 99.6876C140.239 100.216 140.674 100.673 141.192 101.027C141.607 101.354 142.041 101.656 142.455 101.988C142.715 102.199 142.954 102.435 143.194 102.67C144.452 103.88 144.193 105.34 142.725 106.205C142.225 106.547 141.656 106.787 141.054 106.908C140.453 107.03 139.832 107.03 139.23 106.91C137.916 106.555 137.697 105.979 138.371 104.547Z" fill="white" fill-opacity="0.8"/>
<path d="M88.0729 97H88.3598C89.6609 97.0918 90.022 97.6834 89.5224 98.9242C89.5011 98.9658 89.4713 99.0028 89.4347 99.033C89.3981 99.0624 89.3554 99.0851 89.3097 99.0974C89.2635 99.0955 89.2182 99.0842 89.1772 99.0633C89.1362 99.0425 89.1003 99.0132 89.0722 98.9772C88.9634 98.8286 88.8941 98.6459 88.7803 98.4964C88.5521 98.1907 88.2275 97.9664 87.856 97.8575C87.4845 97.7477 87.0864 97.7591 86.7223 97.8906C86.3983 97.9957 86.1296 98.221 85.9734 98.5163C85.8172 98.8116 85.7859 99.1551 85.8863 99.4732C86.0202 99.9275 86.3034 100.326 86.6926 100.608C87.217 101.018 87.7464 101.427 88.2807 101.825C88.793 102.178 89.2383 102.615 89.5966 103.115C89.897 103.491 90.0381 103.964 89.9912 104.438C89.9443 104.913 89.7128 105.352 89.3442 105.665C88.7946 106.226 88.0987 106.633 87.3305 106.842C86.5623 107.051 85.7503 107.053 84.9809 106.848C83.7837 106.55 83.8233 105.535 84.3526 104.737C84.3526 104.703 84.5406 104.707 84.595 104.737C84.6609 104.802 84.7041 104.886 84.7187 104.977C84.8919 105.829 85.5944 106.064 86.3166 106.185C86.651 106.23 86.9916 106.201 87.3129 106.1C87.6342 105.999 87.9279 105.829 88.1719 105.603C88.3389 105.463 88.4559 105.275 88.5057 105.067C88.5555 104.859 88.5357 104.64 88.4488 104.443C88.3224 104.087 88.1084 103.766 87.8255 103.51C87.2616 102.995 86.6827 102.504 86.1188 101.994C85.6427 101.599 85.1932 101.175 84.7732 100.723C83.7244 99.4874 83.9766 98.3525 85.4212 97.6256C86.2589 97.2631 87.1573 97.0511 88.0729 97Z" fill="white" fill-opacity="0.8"/>
<path d="M109.308 106.815C109.984 105.872 109.989 105.872 109.989 104.6C109.989 102.646 109.989 100.697 109.989 98.7424C109.989 98.0908 109.88 97.5949 109.169 97.4244C109.114 97.4244 109.089 97.2746 109 97.0892C110.127 96.9611 111.265 96.971 112.389 97.1188C112.454 97.3298 112.389 97.4796 112.265 97.525C112.075 97.5723 111.91 97.6896 111.802 97.8542C111.693 98.0178 111.649 98.2169 111.679 98.4121C111.679 99.8247 111.679 101.238 111.679 102.656C111.679 103.337 111.679 104.024 111.679 104.705C111.658 104.902 111.68 105.102 111.744 105.29C111.808 105.478 111.911 105.65 112.048 105.792C112.184 105.935 112.35 106.047 112.533 106.119C112.716 106.191 112.913 106.221 113.11 106.208C113.494 106.271 113.888 106.236 114.256 106.109C114.625 105.981 114.956 105.764 115.222 105.477C115.342 105.327 115.488 105.202 115.654 105.106C115.685 105.088 115.72 105.077 115.756 105.076C115.792 105.074 115.828 105.082 115.861 105.097C115.893 105.113 115.921 105.137 115.943 105.167C115.964 105.196 115.977 105.231 115.982 105.266C116.046 105.8 115.939 106.341 115.679 106.81C115.599 107 115.356 107 115.182 107H112.856C111.862 107 110.824 107 109.81 107C109.636 106.98 109.427 107.02 109.308 106.815Z" fill="white" fill-opacity="0.8"/>
<path d="M131.861 83.9472C132.046 84.5057 132.046 85.1078 131.861 85.6663C131.799 85.7908 131.693 85.8897 131.562 85.9421C131.421 85.9885 131.273 86.0073 131.126 85.9974H125.087C125.285 85.4953 125.792 85.2639 125.859 84.7519C125.928 84.2685 125.967 83.7821 125.975 83.2938C125.975 81.631 125.975 79.9623 125.975 78.2996C125.988 77.9635 125.966 77.6264 125.909 77.2942C125.841 77.0629 125.717 76.8514 125.548 76.6764C125.387 76.4955 124.848 76.5963 125.041 76.1742C125.163 75.9073 125.548 76.0279 125.853 76.023C126.447 76.023 127.041 76.023 127.635 76.023C127.781 76.0032 127.932 76.016 128.074 76.0605C128.217 76.105 128.346 76.1792 128.456 76.279C128.603 76.4955 128.375 76.5261 128.279 76.5459C128.056 76.5854 127.858 76.708 127.725 76.8889C127.592 77.0688 127.534 77.2942 127.563 77.5157C127.563 78.2996 127.563 79.0835 127.563 79.8625C127.563 81.0379 127.624 82.2192 127.563 83.3798C127.472 84.8319 128.802 85.7661 130.303 85.1631C130.888 84.8478 131.414 84.4365 131.861 83.9472Z" fill="white" fill-opacity="0.8"/>
<path d="M118.247 75.9859C118.094 75.9288 117.962 75.8195 118.01 75.6593C118.097 75.3715 118.205 75.0909 118.332 74.8184C118.707 73.9937 119.092 73.1742 119.472 72.3496C119.662 71.9393 119.947 71.8873 120.296 72.2088C120.41 72.3098 120.517 72.417 120.618 72.5302C121.108 73.112 121.146 73.4232 120.618 73.9672C120.032 74.601 119.409 75.197 118.791 75.794C118.729 75.8747 118.645 75.9349 118.548 75.9696C118.452 76.0033 118.347 76.0094 118.247 75.9859Z" fill="white" fill-opacity="0.8"/>
<path d="M54.4706 78C54.5835 78.0567 54.7158 78.0719 54.7859 78.1642C55.2139 78.7722 55.8405 79.1694 56 80.0754C55.6896 80.7625 55.2796 81.3614 54.7936 81.8376C54.7524 81.8913 54.7032 81.9339 54.6491 81.9613C54.595 81.9897 54.5372 82.0018 54.4792 81.9998C54.4212 81.9967 54.3643 81.9775 54.3119 81.9451C54.2596 81.9116 54.2129 81.864 54.1749 81.8062C53.8208 81.3533 53.4705 80.8942 53.132 80.4159C53.0903 80.3632 53.0571 80.3004 53.0344 80.2304C53.0117 80.1605 53 80.0845 53 80.0085C53 79.9325 53.0117 79.8575 53.0344 79.7876C53.0571 79.7177 53.0903 79.6538 53.132 79.6021C53.4705 79.1228 53.8208 78.6638 54.1749 78.2108C54.266 78.1236 54.3655 78.0527 54.4706 78Z" fill="white" fill-opacity="0.8"/>
<path d="M131 104C130.907 103.983 130.819 103.951 130.738 103.904C130.214 103.4 129.696 102.89 129.182 102.373C129.126 102.326 129.079 102.266 129.049 102.199C129.017 102.133 129 102.061 129 101.987C129 101.913 129.017 101.841 129.049 101.774C129.079 101.707 129.126 101.648 129.182 101.602C129.656 101.1 130.139 100.635 130.637 100.169C130.689 100.116 130.749 100.073 130.817 100.044C130.886 100.015 130.959 100 131.032 100C131.106 100 131.18 100.015 131.248 100.044C131.315 100.073 131.377 100.116 131.427 100.169C131.931 100.63 132.404 101.111 132.872 101.602C132.954 101.693 133 101.811 133 101.935C133 102.057 132.954 102.176 132.872 102.267C132.338 102.828 131.785 103.374 131.231 103.914C131.206 103.969 131.091 103.969 131 104Z" fill="white" fill-opacity="0.8"/>
<path d="M77.9473 79C78.0429 79.0256 78.1637 79 78.2241 79.0749C78.7876 79.6161 79.3462 80.1572 79.8896 80.7141C79.9603 80.7841 80 80.8797 80 80.9793C80 81.0789 79.9603 81.1745 79.8896 81.2444C79.3462 81.8063 78.7876 82.3524 78.2241 82.8886C78.1893 82.9241 78.1478 82.9517 78.1021 82.9714C78.0563 82.9901 78.0071 83 77.9574 83C77.9077 83 77.8584 82.9901 77.8127 82.9714C77.7668 82.9517 77.7253 82.9241 77.6907 82.8886C77.1019 82.2568 76.2667 81.8408 76 80.9389C76.3924 80.1828 77.0919 79.7117 77.6705 79.1301C77.7544 79.071 77.8481 79.0276 77.9473 79Z" fill="white" fill-opacity="0.8"/>
<path d="M77.466 104C77.3749 103.951 77.2891 103.885 77.2108 103.805C76.8355 103.335 76.4901 102.855 76.1336 102.375C76.0917 102.329 76.0581 102.27 76.035 102.204C76.012 102.138 76 102.066 76 101.992C76 101.919 76.012 101.848 76.035 101.782C76.0581 101.716 76.0917 101.657 76.1336 101.611C76.5089 101.11 76.8505 100.646 77.2183 100.18C77.2552 100.126 77.2999 100.082 77.3499 100.05C77.3998 100.02 77.4539 100.003 77.509 100C77.564 99.9982 77.6188 100.011 77.6701 100.038C77.7214 100.064 77.7682 100.103 77.8076 100.155C78.1829 100.615 78.5357 101.095 78.8848 101.585C78.9191 101.627 78.9469 101.677 78.9666 101.734C78.9863 101.789 78.9976 101.85 78.9996 101.912C79.0017 101.974 78.9946 102.035 78.9788 102.094C78.963 102.152 78.9387 102.205 78.9073 102.25C78.5094 102.816 78.0966 103.356 77.6837 103.896C77.6168 103.948 77.5429 103.984 77.466 104Z" fill="white" fill-opacity="0.8"/>
<g filter="url(#filter0_b_2762_12896)">
<path d="M185.785 140.967C186.084 141.525 186.396 142.077 186.686 142.639C187.82 144.834 188.918 147.049 190.23 149.145C191.693 151.485 193.189 153.808 194.688 156.121C196.927 159.564 199.198 162.985 201.431 166.435C205.138 172.225 208.217 178.393 210.616 184.836C210.731 185.135 210.814 185.443 210.912 185.749C211.007 186.025 211.016 186.323 210.938 186.604C210.86 186.885 210.699 187.135 210.475 187.323C210.288 187.498 210.089 187.661 209.88 187.809C207.608 189.507 205.745 191.69 204.426 194.2C203.568 195.858 202.946 197.628 202.578 199.457C202.466 199.99 202.322 200.519 202.187 201.044C202.165 201.131 202.114 201.208 202.042 201.261C201.937 201.327 201.861 201.228 201.815 201.15C201.069 199.835 200.254 198.56 199.734 197.141C198.09 192.685 196.447 188.233 195.151 183.669C193.823 178.953 192.521 174.248 191.246 169.553C190.24 165.807 189.296 162.045 188.444 158.26C187.84 155.569 187.356 152.858 186.932 150.134C186.531 147.568 186.11 145.005 185.693 142.442C185.58 141.952 185.612 141.439 185.785 140.967V140.967Z" fill="white" fill-opacity="0.2"/>
<path d="M161.354 191.923C161.993 191.755 162.649 191.654 163.31 191.621C164.907 191.522 166.505 191.388 168.106 191.292C169.1 191.23 170.097 191.262 171.085 191.388C171.244 191.407 171.405 191.417 171.565 191.417C173.873 191.503 176.168 191.798 178.423 192.298C180.373 192.682 182.306 193.142 184.259 193.497C185.455 193.714 186.662 193.862 187.875 193.987C189.664 194.148 191.462 194.194 193.257 194.125C193.477 194.113 193.697 194.125 193.914 194.161C194.214 194.22 194.496 194.35 194.736 194.539C194.976 194.728 195.167 194.971 195.295 195.248C195.953 196.504 196.666 197.716 197.436 198.902C198.635 200.803 200.06 202.552 201.68 204.11C202.078 204.482 202.498 204.83 202.909 205.191C203.002 205.273 203.11 205.365 203.08 205.52C203.051 205.674 202.903 205.684 202.778 205.697C201.463 205.852 200.168 206.009 198.862 206.144C196.911 206.304 194.951 206.349 192.994 206.279C190.687 206.218 188.391 205.932 186.139 205.425C181.011 204.31 176.182 202.107 171.979 198.965C169.908 197.443 167.728 196.086 165.555 194.719C164.418 193.999 163.283 193.273 162.152 192.541C161.926 192.37 161.709 192.189 161.354 191.923Z" fill="white" fill-opacity="0.2"/>
<path d="M163.258 153.124C163.636 153.292 163.771 153.683 164.024 153.965C165.749 155.914 167.696 157.657 169.823 159.157C171.586 160.389 173.368 161.588 175.156 162.771C178.37 164.895 181.431 167.24 184.319 169.79C185.492 170.835 186.656 171.893 187.79 172.98C188.53 173.69 189.204 174.469 189.911 175.215C190.234 175.574 190.466 176.006 190.588 176.473C192.173 181.73 193.754 186.979 195.332 192.219C195.431 192.547 195.507 192.876 195.595 193.227C195.021 193.354 194.425 193.336 193.859 193.176C193.294 193.016 192.776 192.719 192.354 192.311C191.759 191.726 191.21 191.095 190.641 190.484C190.444 190.273 190.259 190.05 190.062 189.827C188.639 188.302 187.195 186.797 185.788 185.259C183.273 182.519 180.738 179.792 178.276 177.002C174.973 173.332 171.945 169.424 169.218 165.308C166.974 161.943 165.1 158.345 163.629 154.576C163.452 154.107 163.153 153.653 163.278 153.108L163.258 153.124Z" fill="white" fill-opacity="0.2"/>
<path d="M159.027 168.531C159.402 168.531 159.566 168.86 159.799 169.051C161.331 170.365 162.834 171.725 164.379 173.026C167.712 175.911 171.579 178.114 175.761 179.509C177.077 179.944 178.281 180.662 179.289 181.612C179.88 182.154 180.449 182.723 180.985 183.318C182.935 185.493 184.95 187.606 186.975 189.712C187.661 190.428 188.346 191.149 189.03 191.874C189.099 191.94 189.162 192.012 189.217 192.091C189.286 192.196 189.365 192.311 189.29 192.445C189.258 192.501 189.207 192.543 189.146 192.563C189.085 192.582 189.019 192.578 188.961 192.551C188.714 192.485 188.468 192.403 188.221 192.33C186.314 191.772 184.421 191.164 182.497 190.665C179.456 189.873 176.399 189.133 173.341 188.417C172.528 188.233 171.771 187.86 171.129 187.329C165.352 182.689 161.153 176.377 159.106 169.258C158.997 169.023 158.971 168.759 159.033 168.508L159.027 168.531Z" fill="white" fill-opacity="0.2"/>
<path d="M202.562 154.031C202.55 155.603 202.44 157.172 202.233 158.73C202.207 158.986 202.207 159.242 202.191 159.499C202.112 160.714 202.032 161.93 201.951 163.146C201.951 163.191 201.941 163.235 201.923 163.277C201.905 163.318 201.879 163.355 201.846 163.386C201.698 163.488 201.619 163.34 201.553 163.244C201.001 162.456 200.435 161.674 199.909 160.872C197.726 157.586 195.563 154.3 193.373 151.015C192.564 149.847 192.142 148.455 192.167 147.036C192.196 145.271 192.104 143.5 192.223 141.739C192.331 140.096 192.301 138.476 192.482 136.846C192.63 135.512 192.735 134.168 192.936 132.838C193.261 130.421 193.838 128.046 194.659 125.75C194.674 125.689 194.699 125.631 194.734 125.579C194.754 125.559 194.779 125.543 194.805 125.534C194.832 125.524 194.861 125.521 194.889 125.523C194.916 125.535 194.939 125.553 194.958 125.576C194.976 125.599 194.988 125.626 194.994 125.655C195.074 126.647 195.209 127.634 195.398 128.612C195.699 130.251 196.084 131.873 196.552 133.472C197.433 136.56 198.594 139.55 199.679 142.567C200.504 144.867 201.349 147.144 201.997 149.497C202.417 150.97 202.608 152.499 202.562 154.031V154.031Z" fill="white" fill-opacity="0.2"/>
<path d="M188.844 170.749C188.555 170.675 188.298 170.512 188.107 170.283C187.298 169.55 186.49 168.821 185.691 168.078C184.565 167.027 183.356 166.07 182.074 165.216C180.354 164.071 179.01 162.443 178.211 160.537C177.738 159.381 177.335 158.197 177.005 156.992C176.086 153.789 174.988 150.639 173.717 147.558C173.055 145.96 172.302 144.401 171.462 142.889C171.335 142.67 171.213 142.443 171.097 142.209C171.028 142.074 170.913 141.917 171.074 141.782C171.14 141.737 171.219 141.713 171.299 141.713C171.379 141.713 171.458 141.737 171.524 141.782C172.188 142.107 172.819 142.493 173.411 142.935C174.55 143.826 175.609 144.816 176.574 145.892C178.58 148.058 180.371 150.413 181.923 152.924C183.268 155.031 184.468 157.227 185.517 159.496C186.893 162.427 187.94 165.503 188.637 168.666C188.735 169.136 188.804 169.613 188.877 170.086C188.932 170.305 188.921 170.537 188.844 170.749V170.749Z" fill="white" fill-opacity="0.2"/>
</g>
<g filter="url(#filter1_b_2762_12896)">
<path d="M79.7848 140.967C80.084 141.525 80.3963 142.077 80.6856 142.639C81.8198 144.834 82.9179 147.049 84.2297 149.145C85.6927 151.485 87.1886 153.808 88.6877 156.121C90.9266 159.564 93.1984 162.985 95.4307 166.435C99.1379 172.225 102.217 178.393 104.616 184.836C104.731 185.135 104.814 185.443 104.912 185.749C105.007 186.025 105.016 186.323 104.938 186.604C104.86 186.885 104.699 187.135 104.475 187.323C104.288 187.498 104.089 187.661 103.88 187.809C101.608 189.507 99.7447 191.69 98.4258 194.2C97.568 195.858 96.9461 197.628 96.5781 199.457C96.4663 199.99 96.3217 200.519 96.1869 201.044C96.1652 201.131 96.114 201.208 96.0422 201.261C95.937 201.327 95.8614 201.228 95.8154 201.15C95.0691 199.835 94.2537 198.56 93.7343 197.141C92.0905 192.685 90.4466 188.233 89.1513 183.669C87.8231 178.953 86.5212 174.248 85.2456 169.553C84.2395 165.807 83.296 162.045 82.4445 158.26C81.8396 155.569 81.3563 152.858 80.9322 150.134C80.5311 147.568 80.1102 145.005 79.6927 142.442C79.5804 141.952 79.6124 141.439 79.7848 140.967V140.967Z" fill="white" fill-opacity="0.2"/>
<path d="M119.185 126.838C119.221 126.88 119.277 126.917 119.29 126.966C120.059 129.68 120.779 132.401 121.098 135.22C121.53 139.207 121.708 143.217 121.631 147.226C121.604 148.994 121.489 150.752 121.394 152.513C121.292 154.465 121.065 156.41 120.904 158.355C120.759 159.998 120.621 161.615 120.454 163.241C120.309 164.677 120.125 166.106 119.961 167.539C119.824 168.88 119.611 170.211 119.323 171.528C118.348 176.1 115.701 180.144 111.899 182.867C110.555 183.853 109.144 184.75 107.754 185.677C107.306 185.972 107.211 185.949 106.938 185.463C106.097 183.978 105.629 182.312 105.574 180.607C105.563 178.906 105.722 177.209 106.051 175.54C106.484 172.977 106.915 170.417 107.366 167.861C108.277 162.584 109.506 157.366 111.044 152.237C111.916 149.414 112.938 146.651 113.967 143.884C114.953 141.256 115.917 138.653 116.808 135.998C117.426 134.075 117.932 132.118 118.323 130.137C118.53 129.151 118.731 128.191 118.935 127.219C118.981 127.078 119.004 126.913 119.185 126.838Z" fill="white" fill-opacity="0.2"/>
<path d="M156.705 167.168C156.682 167.285 156.652 167.4 156.613 167.513C155.953 169.253 155.133 170.928 154.164 172.517C152.859 174.614 151.385 176.601 149.755 178.458C147.714 180.85 145.546 183.131 143.259 185.289C140.693 187.71 137.971 189.961 135.112 192.028C131.966 194.303 128.663 196.352 125.226 198.16C122.839 199.418 120.38 200.509 117.898 201.554C117.543 201.705 117.178 201.827 116.816 201.955C116.701 201.994 116.566 202.063 116.468 201.925C116.436 201.869 116.42 201.807 116.42 201.743C116.42 201.679 116.436 201.616 116.468 201.56C116.57 201.291 116.678 201.025 116.797 200.759C117.783 198.33 118.815 195.905 119.805 193.467C120.16 192.644 120.406 191.778 120.538 190.891C120.771 189.087 121.853 187.78 123.244 186.735C125.328 185.181 127.516 183.773 129.793 182.519C132.094 181.244 134.547 180.281 136.986 179.299C141.558 177.504 145.908 175.189 149.949 172.399C151.971 170.98 153.887 169.416 155.683 167.72C155.939 167.48 156.209 167.253 156.482 167.03C156.508 167.007 156.594 167.03 156.646 167.066C156.699 167.102 156.676 167.112 156.705 167.168Z" fill="white" fill-opacity="0.2"/>
<path d="M103.601 177.111C103.114 176.269 102.743 175.639 102.381 175.001C101.375 173.209 100.374 171.416 99.3763 169.622C99.0968 169.12 98.8733 168.584 98.5905 168.081C97.9792 166.973 97.7658 165.69 97.9856 164.444C98.1303 163.488 98.127 162.528 98.2519 161.572C98.4031 160.399 98.4097 159.206 98.4985 158.027C98.6004 156.683 98.7253 155.345 98.8272 154.005C98.8963 153.174 98.9193 152.342 99.0245 151.514C99.1626 150.466 99.1889 149.405 99.2875 148.353C99.3763 147.427 99.5012 146.507 99.5966 145.583C99.6689 144.883 99.7083 144.18 99.7971 143.477C99.9812 141.985 100.077 140.48 100.254 138.985C100.461 137.205 100.708 135.427 100.954 133.649C101.221 131.747 101.474 129.841 101.803 127.948C102.164 125.865 102.605 123.795 103.016 121.705C103.104 121.268 103.213 120.831 103.325 120.391C103.369 120.272 103.434 120.16 103.515 120.062C103.538 120.039 103.566 120.021 103.597 120.011C103.627 120 103.66 119.997 103.693 120.002C103.725 120.007 103.755 120.02 103.782 120.039C103.808 120.058 103.83 120.083 103.844 120.112C103.88 120.233 103.907 120.361 103.936 120.483C104.495 122.954 105.024 125.428 105.389 127.935C105.574 129.2 105.685 130.478 105.843 131.753C106.004 133.087 106.192 134.418 106.353 135.755C106.514 137.093 106.645 138.364 106.8 139.669C106.964 141.069 107.129 142.465 107.313 143.865C107.392 144.502 107.464 145.136 107.533 145.774C107.752 147.686 107.963 149.596 108.164 151.504C108.184 151.695 108.237 151.882 108.26 152.073C108.368 152.837 108.352 153.614 108.213 154.373C107.204 159.364 106.224 164.362 105.232 169.359C104.78 171.62 104.327 173.882 103.874 176.145C103.821 176.411 103.732 176.647 103.601 177.111Z" fill="white" fill-opacity="0.2"/>
<path d="M55.3535 191.923C55.9934 191.755 56.6489 191.654 57.3097 191.621C58.9075 191.522 60.5053 191.388 62.1064 191.292C63.1 191.23 64.0973 191.262 65.085 191.388C65.2442 191.407 65.4045 191.417 65.565 191.417C67.8729 191.503 70.1683 191.798 72.423 192.298C74.3726 192.682 76.3057 193.142 78.2586 193.497C79.4553 193.714 80.6619 193.862 81.875 193.987C83.6642 194.148 85.4618 194.194 87.2569 194.125C87.4767 194.113 87.6972 194.125 87.9144 194.161C88.2142 194.22 88.4957 194.35 88.7357 194.539C88.9757 194.728 89.1675 194.971 89.2953 195.248C89.9528 196.504 90.6662 197.716 91.4355 198.902C92.6349 200.803 94.0601 202.552 95.6799 204.11C96.0777 204.482 96.4985 204.83 96.9095 205.191C97.0015 205.273 97.11 205.365 97.0804 205.52C97.0508 205.674 96.9029 205.684 96.778 205.697C95.4629 205.852 94.1676 206.009 92.8624 206.144C90.9105 206.304 88.951 206.349 86.9939 206.279C84.6866 206.218 82.3908 205.932 80.1391 205.425C75.0106 204.31 70.1816 202.107 65.9792 198.965C63.908 197.443 61.7283 196.086 59.5551 194.719C58.4176 193.999 57.2834 193.273 56.1524 192.541C55.9256 192.37 55.7086 192.189 55.3535 191.923Z" fill="white" fill-opacity="0.2"/>
<path d="M119.266 177.958C119.344 178.168 119.41 178.382 119.464 178.599C119.745 180.538 119.809 182.502 119.654 184.454C119.521 186.149 119.19 187.822 118.668 189.439C117.558 192.922 116.26 196.342 114.779 199.684C114.268 200.933 113.628 202.124 112.869 203.239C111.621 205.015 109.801 206.308 107.713 206.903C106.192 207.328 104.586 207.348 103.055 206.962C101.737 206.65 100.485 206.111 99.3529 205.369C98.4192 204.761 98.0806 203.959 98.2351 202.832C98.5098 200.731 99.0937 198.683 99.9677 196.753C100.615 195.319 101.462 193.982 102.483 192.784C103.704 191.333 105.121 190.059 106.694 188.999C108.404 187.862 110.12 186.735 111.816 185.575C113.613 184.382 115.267 182.989 116.748 181.422C117.549 180.545 118.269 179.598 118.901 178.593C118.984 178.425 119.079 178.271 119.266 177.958Z" fill="white" fill-opacity="0.2"/>
<path d="M57.258 153.124C57.6361 153.292 57.7709 153.683 58.024 153.965C59.7494 155.914 61.6956 157.657 63.8234 159.157C65.5856 160.389 67.3675 161.588 69.156 162.771C72.3697 164.895 75.4314 167.24 78.3187 169.79C79.4924 170.835 80.6562 171.893 81.7904 172.98C82.5302 173.69 83.2041 174.469 83.911 175.215C84.2339 175.574 84.4661 176.006 84.5882 176.473C86.1729 181.73 87.7543 186.979 89.3323 192.219C89.431 192.547 89.5066 192.876 89.5953 193.227C89.0213 193.354 88.4248 193.336 87.8592 193.176C87.2935 193.016 86.7763 192.719 86.3537 192.311C85.7586 191.726 85.2096 191.095 84.6408 190.484C84.4436 190.273 84.2595 190.05 84.0622 189.827C82.6387 188.302 81.1954 186.797 79.7883 185.259C77.2732 182.519 74.7384 179.792 72.276 177.002C68.9728 173.332 65.9454 169.424 63.2185 165.308C60.9737 161.943 59.0998 158.345 57.6295 154.576C57.4519 154.107 57.1528 153.653 57.2777 153.108L57.258 153.124Z" fill="white" fill-opacity="0.2"/>
<path d="M121.278 174.81C121.284 174.009 121.355 173.208 121.492 172.418C121.676 170.927 121.929 169.441 122.15 167.953C122.179 167.698 122.19 167.441 122.182 167.184C122.182 165.213 122.685 163.317 123.353 161.47C123.763 160.357 124.233 159.267 124.76 158.204C126.131 155.411 127.485 152.618 128.876 149.828C130.163 147.205 131.724 144.726 133.535 142.432C134.53 141.133 135.658 139.941 136.901 138.877C137.72 138.22 138.483 137.464 139.295 136.79C139.535 136.59 139.804 136.117 140.159 136.439C140.422 136.675 140.064 137.017 139.939 137.29C139.252 138.772 138.489 140.227 137.993 141.788C136.816 145.486 135.655 149.186 134.511 152.888C133.739 155.365 132.989 157.852 132.21 160.33C131.388 162.995 130.592 165.666 129.718 168.314C128.53 172.01 127.029 175.598 125.233 179.039C124.375 180.654 123.426 182.218 122.39 183.725C122.319 183.833 122.239 183.934 122.15 184.027C122.125 184.043 122.097 184.053 122.068 184.057C122.039 184.06 122.009 184.057 121.982 184.047C121.955 184.034 121.931 184.016 121.912 183.992C121.893 183.969 121.88 183.941 121.873 183.912C121.844 183.11 121.798 182.309 121.808 181.507C121.776 179.681 121.626 177.859 121.357 176.052C121.306 175.64 121.28 175.226 121.278 174.81Z" fill="white" fill-opacity="0.2"/>
<path d="M122.068 206.683H120.566C120.485 206.684 120.405 206.66 120.337 206.615C120.27 206.57 120.218 206.505 120.188 206.43C120.158 206.355 120.155 206.272 120.179 206.195C120.203 206.118 120.252 206.051 120.319 206.006C120.796 205.575 121.266 205.138 121.756 204.724C122.086 204.467 122.462 204.275 122.864 204.159C125.732 203.226 128.531 202.093 131.241 200.768C133.174 199.825 135.048 198.774 136.892 197.667C140.322 195.584 143.624 193.3 146.782 190.825C147.675 190.079 148.809 189.681 149.974 189.705C151.065 189.735 152.16 189.672 153.262 189.741C155.022 189.857 156.766 190.146 158.469 190.605C158.591 190.638 158.716 190.674 158.837 190.717C158.876 190.726 158.911 190.745 158.939 190.773C158.967 190.801 158.986 190.836 158.995 190.874C159.004 190.913 159.002 190.953 158.989 190.99C158.976 191.027 158.953 191.06 158.923 191.085C158.614 191.315 158.298 191.538 157.976 191.742C153.781 194.417 149.576 197.072 145.45 199.852C143.265 201.327 140.955 202.609 138.546 203.683C136.18 204.76 133.678 205.512 131.109 205.917C129.875 206.112 128.632 206.245 127.384 206.315C125.586 206.403 123.798 206.555 122.068 206.683Z" fill="white" fill-opacity="0.2"/>
<path d="M53.0267 168.531C53.4015 168.531 53.5659 168.86 53.7993 169.051C55.3313 170.365 56.8338 171.725 58.379 173.026C61.7119 175.911 65.579 178.114 69.7609 179.509C71.0766 179.944 72.2809 180.662 73.2885 181.612C73.8803 182.154 74.4491 182.723 74.9849 183.318C76.9345 185.493 78.9499 187.606 80.9751 189.712C81.6611 190.428 82.346 191.149 83.0298 191.874C83.0993 191.94 83.1621 192.012 83.2172 192.091C83.2863 192.196 83.3652 192.311 83.2896 192.445C83.2582 192.501 83.2069 192.543 83.1459 192.563C83.0849 192.582 83.0187 192.578 82.9608 192.551C82.7142 192.485 82.4676 192.403 82.2211 192.33C80.3142 191.772 78.4206 191.164 76.4973 190.665C73.4562 189.873 70.3987 189.133 67.3411 188.417C66.5285 188.233 65.7705 187.86 65.1286 187.329C59.3521 182.689 55.1527 176.377 53.1056 169.258C52.9966 169.023 52.9711 168.759 53.0333 168.508L53.0267 168.531Z" fill="white" fill-opacity="0.2"/>
<path d="M96.5622 154.031C96.5499 155.603 96.4401 157.172 96.2334 158.73C96.2071 158.986 96.2071 159.242 96.1907 159.499C96.1118 160.714 96.0318 161.93 95.9507 163.146C95.9506 163.191 95.9412 163.235 95.9231 163.277C95.905 163.318 95.8786 163.355 95.8455 163.386C95.6976 163.488 95.6186 163.34 95.5529 163.244C95.0006 162.456 94.4351 161.674 93.9091 160.872C91.7261 157.586 89.5628 154.3 87.3732 151.015C86.5639 149.847 86.1419 148.455 86.1667 147.036C86.1962 145.271 86.1042 143.5 86.2225 141.739C86.331 140.096 86.3015 138.476 86.4823 136.846C86.6302 135.512 86.7354 134.168 86.936 132.838C87.2607 130.421 87.8381 128.046 88.6587 125.75C88.6738 125.689 88.6993 125.631 88.7343 125.579C88.7543 125.559 88.7785 125.543 88.8052 125.534C88.832 125.524 88.8605 125.521 88.8888 125.523C88.9157 125.535 88.9394 125.553 88.9577 125.576C88.976 125.599 88.9885 125.626 88.994 125.655C89.0742 126.647 89.2092 127.634 89.3984 128.612C89.6986 130.251 90.0838 131.873 90.5524 133.472C91.4335 136.56 92.594 139.55 93.6789 142.567C94.5041 144.867 95.3491 147.144 95.9967 149.497C96.4171 150.97 96.6078 152.499 96.5622 154.031V154.031Z" fill="white" fill-opacity="0.2"/>
<path d="M149.947 151.564C149.97 151.64 149.978 151.721 149.968 151.801C149.958 151.881 149.932 151.958 149.891 152.027C148.674 154.606 147.556 157.235 146.212 159.755C143.872 164.072 141.188 168.193 138.183 172.077C136.822 173.864 135.409 175.609 133.969 177.334C133.497 177.9 132.943 178.392 132.325 178.793C131.407 179.391 127.354 181.497 126.174 181.98C125.986 181.727 126.223 181.56 126.325 181.399C127.077 180.167 127.766 178.899 128.389 177.597C129.642 174.924 130.74 172.181 131.677 169.383C131.887 168.778 132.114 168.173 132.289 167.559C132.605 166.473 133.268 165.52 134.176 164.845C136.12 163.311 138.057 161.778 139.988 160.245C141.742 158.845 143.495 157.435 145.249 156.016C146.125 155.263 146.958 154.461 147.744 153.614C148.349 152.996 148.973 152.395 149.592 151.79C149.638 151.725 149.7 151.673 149.771 151.637C149.843 151.601 149.922 151.584 150.002 151.587L149.947 151.564Z" fill="white" fill-opacity="0.2"/>
<path d="M82.8437 170.749C82.5553 170.675 82.2977 170.512 82.1072 170.283C81.2985 169.55 80.4897 168.821 79.6908 168.078C78.5652 167.027 77.3557 166.07 76.0744 165.216C74.3538 164.071 73.01 162.443 72.2114 160.537C71.7377 159.381 71.3348 158.197 71.0048 156.992C70.0855 153.789 68.988 150.639 67.7172 147.558C67.0547 145.96 66.3017 144.401 65.4618 142.889C65.3347 142.67 65.2131 142.443 65.0969 142.209C65.0279 142.074 64.9128 141.917 65.0739 141.782C65.1404 141.737 65.2188 141.713 65.2991 141.713C65.3794 141.713 65.4579 141.737 65.5243 141.782C66.1877 142.107 66.8195 142.493 67.4114 142.935C68.5505 143.826 69.6088 144.816 70.5741 145.892C72.5799 148.058 74.3713 150.413 75.9232 152.924C77.2679 155.031 78.4684 157.227 79.5166 159.496C80.8934 162.427 81.9398 165.503 82.6366 168.666C82.7352 169.136 82.8042 169.613 82.8765 170.086C82.9324 170.305 82.9209 170.537 82.8437 170.749V170.749Z" fill="white" fill-opacity="0.2"/>
</g>
<g filter="url(#filter2_b_2762_12896)">
<path d="M13.1842 126.838C13.2203 126.88 13.2763 126.917 13.2894 126.966C14.0587 129.68 14.7787 132.401 15.0976 135.22C15.5296 139.207 15.7075 143.217 15.6302 147.226C15.6039 148.994 15.4888 150.752 15.3935 152.513C15.2916 154.465 15.0647 156.41 14.9036 158.355C14.759 159.998 14.6209 161.615 14.4532 163.241C14.3085 164.677 14.1244 166.106 13.9601 167.539C13.8232 168.88 13.6102 170.211 13.3223 171.528C12.3476 176.1 9.70026 180.144 5.89872 182.867C4.55407 183.853 3.14369 184.75 1.75302 185.677C1.3059 185.972 1.21054 185.949 0.937666 185.463C0.0969235 183.978 -0.371219 182.312 -0.426698 180.607C-0.43787 178.906 -0.278162 177.209 0.0500155 175.54C0.483986 172.977 0.914668 170.417 1.36508 167.861C2.27664 162.584 3.50514 157.366 5.04394 152.237C5.91517 149.414 6.93763 146.651 7.96667 143.884C8.95297 141.256 9.91625 138.653 10.8072 135.998C11.4255 134.075 11.9315 132.118 12.3228 130.137C12.5299 129.151 12.7305 128.191 12.9343 127.219C12.9803 127.078 13.0034 126.913 13.1842 126.838Z" fill="white" fill-opacity="0.2"/>
<path d="M50.7059 167.168C50.6828 167.285 50.6521 167.4 50.6138 167.513C49.953 169.253 49.1331 170.928 48.1645 172.517C46.8598 174.614 45.3853 176.601 43.7558 178.458C41.7149 180.85 39.5463 183.131 37.2594 185.289C34.6932 187.71 31.9718 189.961 29.1126 192.028C25.9667 194.303 22.663 196.352 19.2266 198.16C16.8398 199.418 14.3806 200.509 11.8984 201.554C11.5433 201.705 11.1784 201.827 10.8168 201.955C10.7017 201.994 10.5669 202.063 10.4683 201.925C10.4369 201.869 10.4204 201.807 10.4204 201.743C10.4204 201.679 10.4369 201.616 10.4683 201.56C10.5702 201.291 10.6787 201.025 10.7971 200.759C11.7833 198.33 12.8157 195.905 13.8053 193.467C14.1605 192.644 14.4069 191.778 14.5384 190.891C14.7718 189.087 15.8535 187.78 17.2441 186.735C19.328 185.181 21.5162 183.773 23.7932 182.519C26.0945 181.244 28.5471 180.281 30.9865 179.299C35.5583 177.504 39.9081 175.189 43.9498 172.399C45.9715 170.98 47.8877 169.416 49.6834 167.72C49.9399 167.48 50.2095 167.253 50.4823 167.03C50.5086 167.007 50.5941 167.03 50.6467 167.066C50.6993 167.102 50.6763 167.112 50.7059 167.168Z" fill="white" fill-opacity="0.2"/>
<path d="M-2.39858 177.111C-2.88516 176.269 -3.25667 175.639 -3.61831 175.001C-4.62433 173.209 -5.62598 171.416 -6.62323 169.622C-6.90268 169.12 -7.12623 168.584 -7.40897 168.081C-8.02027 166.973 -8.23375 165.69 -8.0139 164.444C-7.86925 163.488 -7.87253 162.528 -7.7476 161.572C-7.59637 160.399 -7.5898 159.206 -7.50103 158.027C-7.39911 156.683 -7.27418 155.345 -7.17226 154.005C-7.10322 153.174 -7.08022 152.342 -6.97501 151.514C-6.83693 150.466 -6.81061 149.405 -6.71198 148.353C-6.62322 147.427 -6.49829 146.507 -6.40294 145.583C-6.33062 144.883 -6.29117 144.18 -6.2024 143.477C-6.01829 141.985 -5.92295 140.48 -5.74541 138.985C-5.53829 137.205 -5.29171 135.427 -5.04514 133.649C-4.77884 131.747 -4.52571 129.841 -4.19694 127.948C-3.8353 125.865 -3.39475 123.795 -2.98379 121.705C-2.89503 121.268 -2.78653 120.831 -2.67475 120.391C-2.63025 120.272 -2.56577 120.16 -2.48406 120.062C-2.4615 120.039 -2.43365 120.021 -2.40284 120.011C-2.37202 120 -2.33913 119.997 -2.30694 120.002C-2.27475 120.007 -2.24419 120.02 -2.21781 120.039C-2.19142 120.058 -2.16999 120.083 -2.1553 120.112C-2.11914 120.233 -2.09284 120.361 -2.06326 120.483C-1.50435 122.954 -0.975027 125.428 -0.610098 127.935C-0.425989 129.2 -0.314207 130.478 -0.1564 131.753C0.00469549 133.087 0.192088 134.418 0.353183 135.755C0.514278 137.093 0.645779 138.364 0.800299 139.669C0.964682 141.069 1.12906 142.465 1.31317 143.865C1.39208 144.502 1.4644 145.136 1.53344 145.774C1.75262 147.686 1.96304 149.596 2.16468 151.504C2.18441 151.695 2.23701 151.882 2.26002 152.073C2.36831 152.837 2.35276 153.614 2.21399 154.373C1.20468 159.364 0.224953 164.362 -0.767919 169.359C-1.21942 171.62 -1.67203 173.882 -2.12572 176.145C-2.17832 176.411 -2.26708 176.647 -2.39858 177.111Z" fill="white" fill-opacity="0.2"/>
<path d="M13.2663 177.958C13.3442 178.168 13.4101 178.382 13.4635 178.599C13.7454 180.538 13.8094 182.502 13.6542 184.454C13.5212 186.149 13.1902 187.822 12.6679 189.439C11.5583 192.922 10.2599 196.342 8.77861 199.684C8.26803 200.933 7.62784 202.124 6.8685 203.239C5.62061 205.015 3.80087 206.308 1.71346 206.903C0.192275 207.328 -1.41366 207.348 -2.94516 206.962C-4.26254 206.65 -5.51532 206.111 -6.64706 205.369C-7.58075 204.761 -7.91937 203.959 -7.76485 202.832C-7.49017 200.731 -6.90632 198.683 -6.03225 196.753C-5.38456 195.319 -4.5379 193.982 -3.51721 192.784C-2.29601 191.333 -0.87857 190.059 0.694277 188.999C2.40386 187.862 4.12 186.735 5.81643 185.575C7.61273 184.382 9.26722 182.989 10.7479 181.422C11.5485 180.545 12.2692 179.598 12.9013 178.593C12.9835 178.425 13.0789 178.271 13.2663 177.958Z" fill="white" fill-opacity="0.2"/>
<path d="M15.2783 174.81C15.2836 174.009 15.3551 173.208 15.492 172.418C15.6761 170.927 15.9293 169.441 16.1496 167.953C16.1786 167.698 16.1896 167.441 16.1824 167.184C16.1824 165.213 16.6855 163.317 17.3528 161.47C17.7633 160.357 18.233 159.267 18.7599 158.204C20.1309 155.411 21.4854 152.618 22.8761 149.828C24.1625 147.205 25.7242 144.726 27.5347 142.432C28.5296 141.133 29.658 139.941 30.9013 138.877C31.7199 138.22 32.4826 137.464 33.2947 136.79C33.5347 136.59 33.8043 136.117 34.1593 136.439C34.4224 136.675 34.064 137.017 33.9391 137.29C33.2519 138.772 32.4892 140.227 31.9927 141.788C30.8158 145.486 29.6552 149.186 28.5111 152.888C27.7385 155.365 26.9889 157.852 26.2098 160.33C25.3879 162.995 24.5923 165.666 23.7177 168.314C22.5296 172.01 21.0294 175.598 19.2334 179.039C18.3751 180.654 17.4257 182.218 16.3895 183.725C16.319 183.833 16.2386 183.934 16.1496 184.027C16.1251 184.043 16.0972 184.053 16.0681 184.057C16.039 184.06 16.0094 184.057 15.9819 184.047C15.9546 184.034 15.9306 184.016 15.9118 183.992C15.8929 183.969 15.8798 183.941 15.8734 183.912C15.8438 183.11 15.7978 182.309 15.8076 181.507C15.776 179.681 15.6256 177.859 15.3572 176.052C15.3063 175.64 15.28 175.226 15.2783 174.81Z" fill="white" fill-opacity="0.2"/>
<path d="M16.0678 206.683H14.5654C14.4841 206.684 14.4044 206.66 14.3369 206.615C14.2694 206.57 14.2172 206.505 14.1873 206.43C14.1577 206.355 14.1546 206.272 14.1785 206.195C14.2024 206.118 14.2519 206.051 14.3188 206.006C14.7955 205.575 15.2656 205.138 15.7555 204.724C16.0854 204.467 16.4615 204.275 16.8634 204.159C19.7315 203.226 22.5306 202.093 25.2404 200.768C27.1735 199.825 29.0474 198.774 30.8918 197.667C34.3211 195.584 37.6233 193.3 40.7811 190.825C41.6749 190.079 42.8088 189.681 43.9734 189.705C45.0649 189.735 46.1597 189.672 47.2611 189.741C49.0212 189.857 50.7656 190.146 52.4687 190.605C52.5903 190.638 52.7153 190.674 52.8369 190.717C52.8753 190.726 52.9104 190.745 52.9383 190.773C52.9662 190.801 52.9857 190.836 52.9946 190.874C53.0035 190.913 53.0014 190.953 52.9887 190.99C52.9759 191.027 52.953 191.06 52.9224 191.085C52.6134 191.315 52.2977 191.538 51.9756 191.742C47.7805 194.417 43.5756 197.072 39.4496 199.852C37.2643 201.327 34.9542 202.609 32.5455 203.683C30.1791 204.76 27.6774 205.512 25.1088 205.917C23.8747 206.112 22.6315 206.245 21.3839 206.315C19.5856 206.403 17.7971 206.555 16.0678 206.683Z" fill="white" fill-opacity="0.2"/>
<path d="M43.9466 151.564C43.9704 151.64 43.9777 151.721 43.9681 151.801C43.9584 151.881 43.9321 151.958 43.8907 152.027C42.6743 154.606 41.5564 157.235 40.2118 159.755C37.8724 164.072 35.1875 168.193 32.1834 172.077C30.8223 173.864 29.4086 175.609 27.9686 177.334C27.4968 177.9 26.9426 178.392 26.3247 178.793C25.4075 179.391 21.3538 181.497 20.1736 181.98C19.9862 181.727 20.2229 181.56 20.3248 181.399C21.0772 180.167 21.7664 178.899 22.3894 177.597C23.6422 174.924 24.7399 172.181 25.6771 169.383C25.8875 168.778 26.1143 168.173 26.2886 167.559C26.6054 166.473 27.268 165.52 28.1757 164.845C30.1198 163.311 32.0573 161.778 33.9883 160.245C35.7417 158.845 37.4951 157.435 39.2485 156.016C40.1248 155.263 40.9579 154.461 41.7439 153.614C42.3488 152.996 42.9734 152.395 43.5915 151.79C43.638 151.725 43.6998 151.673 43.7715 151.637C43.8432 151.601 43.9225 151.584 44.0025 151.587L43.9466 151.564Z" fill="white" fill-opacity="0.2"/>
</g>
</g>
<defs>
<filter id="filter0_b_2762_12896" x="149" y="110" width="126.001" height="107.238" filterUnits="userSpaceOnUse" color-interpolation-filters="sRGB">
<feFlood flood-opacity="0" result="BackgroundImageFix"/>
<feGaussianBlur in="BackgroundImageFix" stdDeviation="5"/>
<feComposite in2="SourceAlpha" operator="in" result="effect1_backgroundBlur_2762_12896"/>
<feBlend mode="normal" in="SourceGraphic" in2="effect1_backgroundBlur_2762_12896" result="shape"/>
</filter>
<filter id="filter1_b_2762_12896" x="43" y="110" width="126.001" height="107.238" filterUnits="userSpaceOnUse" color-interpolation-filters="sRGB">
<feFlood flood-opacity="0" result="BackgroundImageFix"/>
<feGaussianBlur in="BackgroundImageFix" stdDeviation="5"/>
<feComposite in2="SourceAlpha" operator="in" result="effect1_backgroundBlur_2762_12896"/>
<feBlend mode="normal" in="SourceGraphic" in2="effect1_backgroundBlur_2762_12896" result="shape"/>
</filter>
<filter id="filter2_b_2762_12896" x="-63" y="110" width="126" height="107.238" filterUnits="userSpaceOnUse" color-interpolation-filters="sRGB">
<feFlood flood-opacity="0" result="BackgroundImageFix"/>
<feGaussianBlur in="BackgroundImageFix" stdDeviation="5"/>
<feComposite in2="SourceAlpha" operator="in" result="effect1_backgroundBlur_2762_12896"/>
<feBlend mode="normal" in="SourceGraphic" in2="effect1_backgroundBlur_2762_12896" result="shape"/>
</filter>
<linearGradient id="paint0_linear_2762_12896" x1="165.672" y1="11.7647" x2="82.5811" y2="192.659" gradientUnits="userSpaceOnUse">
<stop stop-color="#68CA83"/>
<stop offset="1" stop-color="#39D966"/>
</linearGradient>
<clipPath id="clip0_2762_12896">
<rect width="200" height="200" rx="20" fill="white"/>
</clipPath>
</defs>
</svg>
